<svg xmlns="http://www.w3.org/2000/svg" xmlns:xlink="http://www.w3.org/1999/xlink" viewBox="0 0 1365 615.618">
  <defs>
    <style>
      .cls-1 {
        fill: #fff8e6;
      }

      .cls-2 {
        clip-path: url(#clip-path);
      }

      .cls-3, .cls-4, .cls-5, .cls-6, .cls-7, .cls-8, .cls-9 {
        fill: none;
        stroke: #fff;
        stroke-linecap: round;
      }

      .cls-3, .cls-4, .cls-5 {
        stroke-linejoin: round;
      }

      .cls-3, .cls-5, .cls-6, .cls-8 {
        stroke-width: 0.962px;
      }

      .cls-4, .cls-7 {
        stroke-width: 1.809px;
      }

      .cls-5, .cls-8 {
        stroke-dasharray: 5.466 3.644;
      }

      .cls-6, .cls-7, .cls-8, .cls-9 {
        stroke-miterlimit: 10;
      }

      .cls-9 {
        stroke-width: 0.939px;
      }
    </style>
    <clipPath id="clip-path">
      <rect id="Rectangle_521" data-name="Rectangle 521" class="cls-1" width="1365" height="615.618" transform="translate(1833.966 1362.813)"/>
    </clipPath>
  </defs>
  <g id="Group_1037" data-name="Group 1037" transform="translate(-1833.966 -1362.813)">
    <g id="Group_1036" data-name="Group 1036" class="cls-2">
      <g id="Group_1035" data-name="Group 1035">
        <g id="Group_1034" data-name="Group 1034">
          <g id="Group_1009" data-name="Group 1009">
            <path id="Path_2331" data-name="Path 2331" class="cls-3" d="M2144.122,1267.718c-14.326,3.434-20.491-8.7-21.955-23.454s1.774-32.125,6.253-39.162c8.2-12.885,20.421-16.094,29.861-12.161s16.1,15.006,13.2,30.685c-1.036,5.592-21.916,42.872-27.341,44.089Z"/>
            <path id="Path_2332" data-name="Path 2332" class="cls-4" d="M2178.1,1181.752c14.249,15.25,13.6,42.809,5.152,65.558-4.347,11.7-19.518,41.542-31.718,56.13-2.351,2.811-4.45,4.994-6.263,5.929l-.018.009c-16.4,7.457-26.721-1.615-38.722-18.449-10.668-14.964-20.75-32.218-17.775-52.279,2.142-14.111,5.95-28.346,12.648-38.926a54.921,54.921,0,0,1,21.773-20.094c6.882-3.479,17.8-5.947,28.392-5.975C2162.346,1173.6,2172.7,1175.976,2178.1,1181.752Z"/>
            <path id="Path_2333" data-name="Path 2333" class="cls-3" d="M2197.172,1170.04c19.125,26.49,10.28,70.35-2.893,100.43-8.212,18.751-24.3,53.249-40.612,72.3a43.213,43.213,0,0,1-8.008,7.732l-.022.013c-18.491,11.406-34.907,6.445-55.488-13.443-22.016-21.275-41.266-48.1-36.659-80.877,3.086-21.671,8.868-44.529,20.153-62.371,8.543-13.5,20.089-24.44,35.455-31.278,10.276-4.573,28.558-7.868,46.132-7.372C2172.928,1155.649,2189.848,1159.894,2197.172,1170.04Z"/>
            <path id="Path_2334" data-name="Path 2334" class="cls-3" d="M2215.8,1157.829c24.053,37.7,6.846,97.8-10.939,135.3-12.2,25.726-29.036,65-49.507,88.467a69.438,69.438,0,0,1-9.752,9.534l-.025.018c-20.629,15.281-43.136,14.946-72.254-8.438-33.623-27-61.783-63.99-55.544-109.474,4.03-29.231,11.785-60.712,27.657-85.817,11.611-18.364,27.489-33.442,49.137-42.462,13.667-5.694,39.315-9.787,63.872-8.767C2183.066,1137.2,2206.57,1143.3,2215.8,1157.829Z"/>
            <path id="Path_2335" data-name="Path 2335" class="cls-4" d="M2079.905,1127.042c-66.873,26.758-89.437,99.721-97.982,162.908-7.87,58.2,29.155,105.6,74.429,138.072,44.346,31.809,75.959,20,100.547-7.927s42.151-71.972,58.4-104.635c22.365-44.956,47.907-121.214,18.983-170.175-11.158-18.888-41.225-26.861-72.766-28.406S2096.961,1120.218,2079.905,1127.042Z"/>
          </g>
          <g id="Group_1010" data-name="Group 1010">
            <path id="Path_2336" data-name="Path 2336" class="cls-3" d="M2439.1,1009.371c-13.928,4.468-68.007,20.827-72.3,36.45-5.44,19.775,28.348,32.928,42.958,32.722,29.289-.415,44.875,8.408,72.4,14.9,41.148,9.7,80.658-37.393,50.272-74.683C2513.233,995.209,2465.154,1001.015,2439.1,1009.371Z"/>
            <path id="Path_2337" data-name="Path 2337" class="cls-3" d="M2445.863,997.956c-11.843,1.592-30.358,2.484-48.264,8.686-13.87,4.8-28.784,19.238-36.877,28.311l0,.005c-6.518,9.607-5.036,16.329-3.885,23.707,3.485,22.349,35.526,42.007,54.591,46.568,33.013,7.9,55.658,18.812,91.026,19.329,34.81.507,64.811-25.358,73.269-57.921,4.726-18.293,2.994-37.939-13.185-53.795C2535.656,986.505,2480.047,993.36,2445.863,997.956Z"/>
            <path id="Path_2338" data-name="Path 2338" class="cls-3" d="M2456.432,985.773c-18.3,1.055-43.513-.4-66.876,7.329-18.086,5.983-37.965,30.034-46.034,44.162l0,.008c-5.739,14.055,2.985,23.215,7.155,33.468,9.924,24.4,42.636,50.622,66.225,60.416,36.668,15.224,66.47,29.118,109.655,23.761,43.071-5.343,77.148-39.551,87.247-81.5,5.715-23.878,4.335-48.8-17.351-67.246C2562.04,976.91,2498.339,983.356,2456.432,985.773Z"/>
            <path id="Path_2339" data-name="Path 2339" class="cls-3" d="M2468.06,973.252c-24.759.307-56.667-3.279-85.487,5.972-22.3,7.16-47.47,40.635-55.192,60.014l0,.01c-5.2,18.491,10.666,30.306,18.2,43.23,15.674,26.9,49.859,58.962,77.858,74.262,40.5,22.129,77.275,39.371,128.284,28.194,51.325-11.246,89.486-53.744,101.226-105.082,6.7-29.465,5.716-59.72-21.518-80.7C2589.548,966.9,2517.706,972.636,2468.06,973.252Z"/>
            <path id="Path_2340" data-name="Path 2340" class="cls-3" d="M2479.927,961.949c-31.2-.567-69.822-6.159-104.1,4.616-26.517,8.337-57.224,51.2-64.348,75.865l0,.013c-4.76,22.971,18.2,37.579,29.236,52.991,21.292,29.739,57.2,67.16,89.492,88.109,44.485,28.864,88.068,49.6,146.912,32.627,59.567-17.177,101.825-67.938,115.205-128.663,7.692-35.052,7.117-70.668-25.685-94.149C2617.323,958.057,2537.353,962.992,2479.927,961.949Z"/>
            <path id="Path_2341" data-name="Path 2341" class="cls-4" d="M2491.88,950.861c-37.634-1.519-82.978-9.04-122.711,3.259-30.734,9.514-67.138,61.788-73.5,91.716l0,.016c-4.357,27.489,25.679,44.972,40.277,62.753,26.913,32.782,64.642,75.281,101.125,101.956,48.593,35.529,98.851,59.807,165.541,37.06,67.8-23.125,114.163-82.131,129.183-152.244,8.681-40.638,8.53-81.64-29.851-107.6C2645.2,949.4,2557.118,953.495,2491.88,950.861Z"/>
            <path id="Path_2342" data-name="Path 2342" class="cls-3" d="M2503.872,939.814c-44.053-2.524-96.132-11.921-141.323,1.9-34.949,10.691-77.152,72.4-82.662,107.568l0,.018c-3.975,32.032,33.135,52.441,51.317,72.515,32.564,35.953,72.151,83.36,112.759,115.8,52.783,42.169,109.586,69.9,184.17,41.492,75.98-29.189,126.5-96.325,143.161-175.824,9.67-46.225,9.949-92.629-34.018-121.053C2673.118,940.759,2576.949,944,2503.872,939.814Z"/>
            <path id="Path_2343" data-name="Path 2343" class="cls-3" d="M2515.881,928.741c-50.463-3.565-109.287-14.8-159.934.545-39.166,11.869-87.23,83.052-91.819,123.42l0,.021c-3.6,36.591,40.584,59.957,62.359,82.276,38.247,39.2,79.71,91.417,124.392,129.65,57.032,48.8,120.371,80.151,202.8,45.925,84.214-35.1,138.839-110.518,157.141-199.405,10.658-51.812,11.414-103.7-38.185-134.5C2701.123,931.974,2596.815,934.461,2515.881,928.741Z"/>
            <path id="Path_2344" data-name="Path 2344" class="cls-3" d="M2349.349,916.861c-43.381,13.046-97.769,93.691-100.976,139.271l0,.023c-2.816,41.2,48.031,67.507,73.4,92.038,99.291,96.018,195.467,265.708,357.453,193.855,92.447-41.008,151.177-124.712,171.119-222.986,11.647-57.4,12.8-114.639-42.351-147.956-78.982-47.715-191.29-46.2-280.1-53.433C2471.028,913.039,2405.453,899.989,2349.349,916.861Z"/>
          </g>
          <g id="Group_1011" data-name="Group 1011">
            <path id="Path_2345" data-name="Path 2345" class="cls-3" d="M2469.052,1056.566c6.838,7.752,35.57,8.291,44.836,7.174,17.234-2.076-3.68-24.609-7.454-26.887C2493.762,1029.225,2449.3,1034.171,2469.052,1056.566Z"/>
          </g>
          <g id="Group_1012" data-name="Group 1012">
            <path id="Path_2346" data-name="Path 2346" class="cls-5" d="M2534.131,1716.648c36-16.271,51.285-55.055,9.882-75.574-42.454-21.041-54.289,16.773-80.658,39-17.462,14.719-60.165,30.148-13.282,41.888l.032.008C2478.688,1729.115,2507.085,1728.872,2534.131,1716.648Z"/>
            <path id="Path_2347" data-name="Path 2347" class="cls-3" d="M2577.633,1626.433c21.965,18.206,20.6,35.361,18.785,55.51-.988,11.049-1.5,21.687-5.009,32.053-4.47,13.19-14.019,25.156-28.053,34.114-12.1,7.721-26.848,13.305-40.843,12.951-12.049-.305-21.049-4.863-29.84-10.056-7.385-4.363-14.685-8.837-25.131-10.024-12.59-1.423-25.512.918-38.013-.533-53.637-6.223-26.99-30-4.746-56.472,7.029-8.366,15.883-15.8,21.584-25.148a38,38,0,0,0,4.769-13.171c.636-3.386-.2-7.2.777-10.447,2.038-6.781,10.433-11.861,16-14.645,7.838-3.918,16.073-4.892,23.919-5.313,14.786-.792,29.282,1.624,47.077,1.522C2551.707,1616.7,2565.272,1616.187,2577.633,1626.433Z"/>
            <path id="Path_2348" data-name="Path 2348" class="cls-4" d="M2611.252,1611.792c25.984,26.226,15.506,48.7,12.82,76.156-1.433,14.764.923,28.841-1.036,42.782-2.642,18.808-13,35.918-30.455,48.841-16.136,11.95-37.578,20.362-57.353,18.079-17.378-2.006-28.58-11.825-39.344-22.33-9.109-8.891-18.035-17.554-33.224-19.331-17.768-2.069-36.077,3.713-53.675,2.948-59.928-2.607-50.286-33.347-22.775-71.057,9.726-13.331,23.731-24.121,31.488-38.786,3.6-6.821,4.626-13.687,4.6-20.743-.017-5.192-3.129-11.33-2.446-16.275,1.486-10.768,15.958-18.037,24.531-21.087,12.5-4.446,25.6-3.441,37.749-1.888,22.992,3.031,44.613,10.329,71.134,9.39C2573.136,1597.788,2594.1,1594.485,2611.252,1611.792Z"/>
            <path id="Path_2349" data-name="Path 2349" class="cls-3" d="M2644.871,1597.151c30.233,34.071,10.408,62.041,6.855,96.8-1.877,18.478,3.431,35.995,2.938,53.509-.689,24.429-11.951,46.727-32.858,63.57-20.137,16.223-48.3,27.4-73.862,23.207-22.7-3.724-36.1-18.793-48.849-34.6-10.823-13.423-21.384-26.271-41.317-28.637-22.945-2.715-46.635,6.308-69.337,6.427-66.194.348-73.736-36.787-40.8-85.641,12.359-18.334,31.579-32.443,41.391-52.423,4.563-9.3,5.339-18.658,4.438-28.316-.653-7.006-6.072-15.458-5.668-22.1.9-14.75,21.485-24.195,33.063-27.53,17.169-4.945,35.129-2.012,51.579,1.536,31.2,6.813,59.943,19.021,95.19,17.259C2594.565,1578.862,2623.117,1572.634,2644.871,1597.151Z"/>
            <path id="Path_2350" data-name="Path 2350" class="cls-3" d="M2678.49,1582.51c34.589,41.873,5.31,75.381.89,117.449-2.322,22.194,5.979,43.133,6.911,64.238,1.326,30.027-10.877,57.553-35.261,78.3-24.116,20.517-59.026,34.428-90.371,28.335-28.025-5.449-43.581-25.786-58.353-46.88-12.5-17.976-24.734-34.988-49.41-37.944-28.123-3.36-57.206,8.756-85,9.907-72.507,3-97.252-40.251-58.831-100.225,14.961-23.354,39.426-40.764,51.294-66.06,5.524-11.786,6.058-23.634,4.273-35.889-1.286-8.824-9.022-19.583-8.891-27.93.294-18.725,27.011-30.345,41.595-33.972,21.835-5.431,44.656-.583,65.41,4.96,39.4,10.595,75.266,27.639,119.246,25.128C2615.989,1559.88,2652.231,1550.721,2678.49,1582.51Z"/>
            <path id="Path_2351" data-name="Path 2351" class="cls-3" d="M2712.109,1567.869c39,49.664.212,88.721-5.075,138.1-2.766,25.908,8.544,50.255,10.884,74.966,3.372,35.606-9.792,68.388-37.663,93.025-28.081,24.824-69.734,41.4-106.881,33.463-33.334-7.228-51.1-32.746-67.857-59.154-14.218-22.5-28.084-43.7-57.5-47.25-33.3-4.007-67.795,11.093-100.659,13.387-78.876,5.5-120.8-43.724-76.861-114.81,17.545-28.381,47.275-49.085,61.2-79.7,6.485-14.269,6.781-28.613,4.107-43.462-1.916-10.644-11.974-23.707-12.113-33.757-.315-22.7,32.536-36.491,50.127-40.415,26.5-5.911,54.183.846,79.24,8.384,47.6,14.377,90.595,36.338,143.3,33C2637.417,1540.958,2681.408,1528.776,2712.109,1567.869Z"/>
            <path id="Path_2352" data-name="Path 2352" class="cls-4" d="M2745.728,1553.228c43.452,57.451-4.886,102.061-11.04,158.742-3.211,29.623,11.119,57.368,14.857,85.694,5.434,41.172-8.7,79.229-40.065,107.754-32.038,29.136-80.456,48.44-123.391,38.591-38.656-8.943-58.617-39.708-77.361-71.428-15.931-27.031-31.433-52.422-65.6-56.557-38.477-4.653-78.4,13.347-116.321,16.866-85.294,7.916-144.375-47.2-94.889-129.394,20.116-33.412,55.122-57.406,71.1-93.335,7.446-16.751,7.5-33.593,3.942-51.034-2.547-12.466-14.928-27.829-15.336-39.585-.928-26.666,38.067-42.6,58.659-46.857,31.175-6.329,63.711,2.275,93.071,11.809,55.805,18.159,105.923,45.035,167.358,40.865C2658.844,1522.037,2710.625,1506.813,2745.728,1553.228Z"/>
            <path id="Path_2353" data-name="Path 2353" class="cls-5" d="M2779.348,1538.587c47.921,65.239-9.985,115.4-17.006,179.389-3.656,33.338,13.7,64.473,18.831,96.422,7.5,46.727-7.557,90.12-42.468,122.482-35.943,33.5-91.178,55.482-139.9,43.718-43.977-10.656-66.135-46.668-86.865-83.7-17.644-31.558-34.783-61.139-73.69-65.864-43.655-5.3-89.026,15.538-131.983,20.347-91.754,10.271-168.129-50.783-112.917-143.979,22.61-38.489,62.97-65.727,81-106.972,8.407-19.233,8.248-38.581,3.776-58.607-3.161-14.292-17.9-31.95-18.559-45.412-1.576-30.633,43.588-48.759,67.192-53.3,35.832-6.831,73.238,3.7,106.9,15.234,64.009,21.941,121.251,53.733,191.415,48.734C2680.272,1503.115,2739.868,1484.84,2779.348,1538.587Z"/>
            <path id="Path_2354" data-name="Path 2354" class="cls-3" d="M2245.683,1590.695c9.37-21.716,8.954-43.559,3.611-66.18-3.8-16.112-20.835-36.071-21.781-51.24-2.156-34.6,49.108-54.921,75.724-59.743,40.489-7.335,82.765,5.134,120.731,18.658,72.212,25.723,136.58,62.432,215.471,56.6,62.26-4.6,129.691-25.934,173.528,35.153,52.407,73.028-15.083,128.741-22.971,200.035-4.1,37.053,16.282,71.573,22.8,107.151,9.583,52.274-6.5,100.915-44.87,137.209-39.934,37.774-101.9,62.525-156.41,48.847-49.3-12.37-73.653-53.63-96.37-95.977-19.358-36.085-38.133-69.856-81.784-75.17-48.831-5.945-99.664,17.677-147.644,23.826-98.25,12.592-191.55-54.156-130.945-158.563C2180.016,1667.822,2225.594,1637.256,2245.683,1590.695Z"/>
          </g>
          <g id="Group_1013" data-name="Group 1013">
            <path id="Path_2355" data-name="Path 2355" class="cls-3" d="M2993.981,998.824c-18.236,2.9-53.11,23.946-57.422,42.994-4.185,18.484,9.243,38.312,16.927,53.926,5.133,10.428,17.277,51.184,26.788,56.846,16.832,10.02,25.559-6.874,36.517-23.983,11.742-18.333,42.7-49.082,42.748-71.429C3059.6,1030.125,3018.832,994.88,2993.981,998.824Z"/>
            <path id="Path_2356" data-name="Path 2356" class="cls-3" d="M2932.753,1024.124c-14.12,22.694,2.807,49.74,8.828,73.861,3.051,12.224,7.024,34.624,12.5,53.254,2.93,9.967,5.494,20.107,9.55,24.9a19.535,19.535,0,0,0,11.217,6.84c13.68,2.768,28.078-12.252,39.567-25.7,17.765-20.79,48.085-55.6,52.46-82.94,3.521-22.005-.68-51.106-17.209-71.367-13.048-15.994-34.5-19.964-50.662-17.839C2977.883,987.909,2943.57,1006.739,2932.753,1024.124Z"/>
            <path id="Path_2357" data-name="Path 2357" class="cls-3" d="M2928.946,1006.431c-25.729,26.69-4.095,61.359.729,93.795,2.677,18,5.035,44.181,9.472,67.286,2.184,11.379,3.435,24.45,7.841,32.167a22.855,22.855,0,0,0,12.358,10.691c16.64,5.861,38.453-10.746,52.692-24.423,24.055-23.1,53.885-62.107,62.174-94.45,7.294-28.466,12.219-68.623-4.834-96.965-14.018-23.3-43.574-25.606-65.35-23.093C2980.037,974.207,2944.536,990.259,2928.946,1006.431Z"/>
            <path id="Path_2358" data-name="Path 2358" class="cls-3" d="M2925.14,988.737c-38.155,29.689-11.152,72.979-7.371,113.731,2.207,23.781,3.184,53.708,6.443,81.318,1.508,12.776,1.541,28.724,6.133,39.437,2.86,6.674,7.3,11.728,13.5,14.542,19.62,8.909,48.915-9.145,65.818-23.148,30.49-25.261,59.85-68.562,71.886-105.961,11.223-34.874,25.226-86.19,7.542-122.563-14.9-30.642-52.65-31.206-80.039-28.347C2982.2,960.548,2945.064,973.234,2925.14,988.737Z"/>
            <path id="Path_2359" data-name="Path 2359" class="cls-4" d="M2921.334,971.043c-50.874,31.854-18.274,84.584-15.47,133.666,1.688,29.555,1.435,63.238,3.413,95.351.873,14.174-.251,32.99,4.425,46.708,2.746,8.058,7.4,14.572,14.64,18.393,22.618,11.936,59.414-7.478,78.944-21.875,37.005-27.28,65.891-74.969,81.6-117.471,15.24-41.235,38.291-103.763,19.918-148.161-15.725-38-61.722-36.775-94.727-33.6C2984.356,946.911,2945.563,955.873,2921.334,971.043Z"/>
            <path id="Path_2360" data-name="Path 2360" class="cls-3" d="M2917.528,953.35c-63.657,33.454-25.429,96.174-23.57,153.6,1.144,35.323-.237,72.782.384,109.384.265,15.58-1.982,37.262,2.717,53.978,2.657,9.455,7.5,17.413,15.781,22.245,25.628,14.955,69.927-5.763,92.069-20.6,43.566-29.194,71.972-81.342,91.312-128.981,19.307-47.561,51.389-121.335,32.293-173.759-16.52-45.351-70.788-42.256-109.416-38.856C2986.522,933.342,2946.131,938.318,2917.528,953.35Z"/>
            <path id="Path_2361" data-name="Path 2361" class="cls-3" d="M2882.052,1109.192c.583,41.085-1.856,82.34-2.644,123.416-.507,26.36-8.29,70.9,17.93,87.345,28.647,17.969,80.445-4.015,105.2-19.327,50.149-31.024,78.074-87.691,101.024-140.492,23.41-53.858,64.508-138.9,44.668-199.357-17.294-52.7-79.864-47.854-124.1-44.11-35.444,3-77.344,3.981-110.4,18.989C2837.306,970.351,2881.12,1043.411,2882.052,1109.192Z"/>
          </g>
          <g id="Group_1014" data-name="Group 1014">
            <path id="Path_2362" data-name="Path 2362" class="cls-3" d="M2849.413,1423.483c10.983,5.279,31.845,13.474,50.3,15.467s34.5-2.215,35.841-21.741c1.369-19.9-18.406-29.126-41.581-33.364s-49.751-3.491-61.986-3.456c-22.9.064-31.935,4.4-28.546,11.943S2822.636,1410.614,2849.413,1423.483Z"/>
            <path id="Path_2363" data-name="Path 2363" class="cls-4" d="M2785.518,1373.654c6.8-8.955,20.414-27.044,45.5-26.056a30.141,30.141,0,0,1,10.263,2.277c8.642,3.535,12.121,10.6,21.318,14.971,15.783,7.505,38.511,5.392,56.172,11.058,22.638,7.264,40.345,20.028,40.633,41.322.265,19.592-11.412,29.439-26.4,34.013-19.922,15.385-62.4,17.615-85.022,3.384-9.084-5.713-22.305-19.543-34.906-23.331-14.283-4.293-33.7-3.719-42.344-16.141C2758.146,1397.069,2778.83,1382.458,2785.518,1373.654Z"/>
            <path id="Path_2364" data-name="Path 2364" class="cls-3" d="M2767.6,1354.975c15.243-11.317,35.179-41.924,62.448-40.167a30.067,30.067,0,0,1,13.822,4.6c11.974,7.305,12.505,21.369,23.877,29.809,20.078,14.9,52.728,9.048,75.819,18.746,22.319,9.375,37.638,26.589,39.685,49.28,1.774,19.652-6.737,33.9-16.968,46.284-24.868,30.112-85.606,45.623-119.747,22.236-13.037-8.855-34.626-34.306-55.517-39.442-22.6-5.556-56.729-.971-69.283-23.3C2704.929,1393.144,2750.872,1367.392,2767.6,1354.975Z"/>
            <path id="Path_2365" data-name="Path 2365" class="cls-5" d="M2672.743,1430.9c-21.143-41.681,50.276-78.969,76.935-94.6,28.538-16.739,60-74.169,96.781-47.354,15.252,11.119,12.85,32.16,26.436,44.647,24.3,22.338,67.2,12.2,95.466,26.433,40.379,20.332,49.127,76.481,31.2,115.794-22.86,50.144-108.751,73.528-154.472,41.087-16.967-12.038-46.945-49.093-76.128-55.553C2738.052,1454.507,2689.1,1463.151,2672.743,1430.9Z"/>
          </g>
          <g id="Group_1015" data-name="Group 1015">
            <path id="Path_2366" data-name="Path 2366" class="cls-3" d="M2902.489,1426.984c20.72-2.892-4.971-30.751-14.422-23.7C2877.473,1411.178,2893.282,1428.269,2902.489,1426.984Z"/>
          </g>
          <g id="Group_1016" data-name="Group 1016">
            <path id="Path_2367" data-name="Path 2367" class="cls-3" d="M2986.63,1101.982c38.819-9.585,10.491-103.555-15.8-67.037C2965.293,1042.63,2978.29,1104.042,2986.63,1101.982Z"/>
          </g>
          <g id="Group_1017" data-name="Group 1017">
            <path id="Path_2368" data-name="Path 2368" class="cls-4" d="M3204.531,1384.659c9.521-6.469,15.326-21.5,17.15-37.18s-.334-32.027-6.74-41.128c-7.116-10.11-14.12-13.72-20.522-13.009s-12.2,5.746-16.906,12.925c-9.409,14.36-14.44,37.3-11.157,51.418,2.095,9.009,6.474,19.26,12.911,25.5S3194.2,1391.673,3204.531,1384.659Z"/>
            <path id="Path_2369" data-name="Path 2369" class="cls-3" d="M3167.96,1288.777c-6.413,12.536-13.806,23.97-20.172,36.9-3.88,7.878-4,14.056-3.854,22.506.137,7.776.931,15.559,1.624,22.82.369,3.893.495,7.642.681,11.232.455,8.668,1.063,17.388,5.875,25.867,4.433,7.809,10.349,14.856,15.923,21.379,5.126,6,10.984,13.272,19.3,13.305,9.432.037,19.344-8.658,27.046-16.116,10.377-10.049,17.494-23.223,21.592-38.589,3.934-14.746,5.678-30.726,6.01-46.785a324.507,324.507,0,0,0-1.736-38.888c-1.49-14.772-3.818-41.657-14.261-50.955-16.57-14.753-28.3,1.1-36.622,8.118C3181.357,1266.317,3174.218,1276.543,3167.96,1288.777Z"/>
            <path id="Path_2370" data-name="Path 2370" class="cls-3" d="M3158.407,1271.286c-8.86,19.246-20.736,34.671-31.247,52.994-6.682,11.648-6.083,19.876-5.21,32.742.761,11.212,2.573,22.578,3.682,33.268a143.328,143.328,0,0,1,.489,16.491c-.135,12.838-.572,25.494,6.935,37.968,6.667,11.16,15.827,21.1,23.751,31.019,7.3,9.139,15.629,21.694,28.463,21.051,14.384-.677,28.976-17.245,38.966-28.142,15.526-16.936,25.888-37.264,31.258-60.957,5.172-23.232,6.992-47.9,6.8-72.611-.168-20.218-1.683-40.457-3.806-59.953-2.136-20.26-4.423-65.729-21.449-78.6-25.859-19.556-42.519,15.839-52.721,29.245C3174.653,1238.49,3166.333,1254.068,3158.407,1271.286Z"/>
            <path id="Path_2371" data-name="Path 2371" class="cls-3" d="M3148.854,1253.8c-11.266,25.971-27.688,45.353-42.322,69.088-9.5,15.407-8.183,25.7-6.567,42.979,1.371,14.651,4.216,29.6,5.74,43.716a143.447,143.447,0,0,1,.3,21.75c-.727,17.009-2.189,33.59,7.994,50.069,8.918,14.5,21.3,27.345,31.579,40.659,9.471,12.277,20.275,30.1,37.627,28.8,19.335-1.413,38.561-25.864,50.884-40.169a180.958,180.958,0,0,0,40.924-83.325c6.452-31.706,8.307-65.082,7.582-98.437-.6-27.331-2.93-54.645-5.874-81.018-2.815-25.744-5.011-89.836-28.637-106.254-35.126-24.409-56.771,30.566-68.822,50.37C3167.922,1210.657,3158.479,1231.6,3148.854,1253.8Z"/>
            <path id="Path_2372" data-name="Path 2372" class="cls-3" d="M3139.3,1236.305c-13.651,32.7-34.645,56.028-53.4,85.184-12.321,19.159-10.29,31.524-7.923,53.215,1.974,18.092,5.858,36.618,7.8,54.165,1.018,9.22.656,18.207.107,27.009-1.317,21.178-3.8,41.684,9.054,62.169,11.17,17.842,26.783,33.59,39.407,50.3,11.644,15.415,24.92,38.5,46.791,36.545,24.286-2.149,48.128-34.491,62.8-52.2,25.6-30.881,42.766-65.322,50.59-105.693,7.731-40.18,9.621-82.26,8.367-124.263-1.033-34.444-4.177-68.834-7.942-102.083-3.5-31.228-5.594-113.959-35.826-133.9-44.386-29.282-71.033,45.3-84.921,71.5C3161.181,1182.827,3150.638,1209.145,3139.3,1236.305Z"/>
            <path id="Path_2373" data-name="Path 2373" class="cls-4" d="M3129.747,1218.814c-15.974,39.461-41.638,66.677-64.471,101.28-15.168,22.894-12.427,37.353-9.28,63.451,2.555,21.536,7.5,43.637,9.857,64.613,1.233,11,.71,21.729-.084,32.268-1.908,25.349-5.422,49.78,10.113,74.27,13.422,21.183,32.262,39.834,47.235,59.939,13.817,18.552,29.566,46.906,55.954,44.292,29.239-2.885,57.686-43.121,74.722-64.222,30.584-37.884,51.206-79.352,60.256-128.063,9.012-48.653,10.937-99.438,9.154-150.088-1.466-41.557-5.425-83.022-10.011-123.147-4.175-36.714-6.147-138.136-43.015-161.555-53.6-34.23-85.328,60.012-101.021,92.624C3154.409,1154.986,3142.848,1186.7,3129.747,1218.814Z"/>
            <path id="Path_2374" data-name="Path 2374" class="cls-3" d="M3281.224,976.953c-62.9-39.055-99.569,74.758-117.12,113.75-16.416,36.47-29.13,73.525-43.91,110.621-18.4,46.174-48.569,77.367-75.545,117.374-17.974,26.657-14.516,43.177-10.637,73.688,3.175,24.976,9.144,50.657,11.914,75.061,4.937,43.485-14.886,83.552,10.9,123.9,15.673,24.524,37.74,46.079,55.063,69.579,15.99,21.69,34.211,55.311,65.118,52.038,34.19-3.62,67.238-51.751,86.64-76.248,35.557-44.9,59.645-93.381,69.923-150.431,18.738-104.015,9.854-215.858-2.14-320.126C3326.573,1123.959,3324.674,1003.93,3281.224,976.953Z"/>
          </g>
          <g id="Group_1018" data-name="Group 1018">
            <path id="Path_2375" data-name="Path 2375" class="cls-3" d="M3007.177,1361.533c-20.682.668-18.4-35.183,1.335-37.256C3012.029,1331.508,3027.86,1360.866,3007.177,1361.533Z"/>
          </g>
          <g id="Group_1019" data-name="Group 1019">
            <path id="Path_2376" data-name="Path 2376" class="cls-3" d="M3084.993,1823.765c7.822,10.317,9.531,18.923,7.238,26.03s-8.586,12.717-16.77,17.042c-16.368,8.649-40.3,12.16-54.892,12.24-12.348.068-31.923-9.352-42.84-20.838s-13.176-25.039,9.108-33.236c9.041-3.326,30.638-7.515,51.446-8.934S3079.109,1816,3084.993,1823.765Z"/>
            <path id="Path_2377" data-name="Path 2377" class="cls-3" d="M2965.534,1783.847c5.842-3.73,22.44-4.935,33.017-6.18,16.63-1.958,28.806,5.033,41.957,11.006,17.551,7.97,36.24,17.116,52.883,24.53,5.693,2.536,10.9,4.855,14.653,8.332a41.914,41.914,0,0,1,5.451,6.079c8.482,11.662,10.236,24.864,10.078,35.811-.249,17.157-4.819,28.859-18.951,41.018-22.773,19.6-52.858,26.159-80.266,24.235-24.36-1.78-63.139-15.7-72.74-43.1-2.775-7.92-1.278-15.488-.9-23.188.572-11.638,1.37-23.93,2.6-35.735.74-7.1-.361-9.991-1.227-15.655-.918-6.005,4.394-11.277,7.823-17.226C2961.438,1791.13,2962.432,1785.827,2965.534,1783.847Z"/>
            <path id="Path_2378" data-name="Path 2378" class="cls-4" d="M2944.232,1742.69c7.331-5.627,32.986-6.219,45.186-7.261,24.059-2.055,37.608,13.031,53.315,25.847,20.508,16.733,43.7,34.706,67.717,46.688,7.5,3.743,14.863,6.729,20.646,11.341a47.7,47.7,0,0,1,8.026,8.015c11.554,14.869,14.476,34.023,15.792,49.734,2.282,27.265-1.235,44.729-21.13,65-29.5,30.054-65.421,40.157-105.641,36.229-36.371-3.629-93.456-22.539-102.639-65.356-2.875-13.4,1.756-25.743,4.036-38.466a417.688,417.688,0,0,0,6.158-57.912c.438-12.358-3.166-16.319-6.693-25.946-3.823-10.435,4.779-19.4,8.676-30.021C2939.355,1756.015,2939.773,1746.112,2944.232,1742.69Z"/>
            <path id="Path_2379" data-name="Path 2379" class="cls-5" d="M2922.929,1701.534c8.86-7.49,43.536-7.453,57.355-8.343,31.5-2.029,46.463,20.993,64.674,40.688,23.533,25.45,51.188,52.241,82.551,68.846,9.321,4.935,18.814,8.617,26.638,14.35a55.758,55.758,0,0,1,10.6,9.952c14.6,18.093,18.782,43.154,21.506,63.657,4.959,37.329,2.26,60.531-23.31,88.972-36.351,40.433-77.983,54.156-131.015,48.225-48.383-5.478-123.584-29.335-132.539-87.616-2.9-18.877,4.772-36.011,8.972-53.743a362.508,362.508,0,0,0,9.715-80.09c.108-17.611-5.977-22.621-12.16-36.237-6.737-14.838,5.2-27.536,9.529-42.816C2917.285,1720.9,2917.142,1706.426,2922.929,1701.534Z"/>
            <path id="Path_2380" data-name="Path 2380" class="cls-3" d="M2901.626,1660.377c10.406-9.342,54.085-8.663,69.525-9.424,38.933-1.918,55.345,28.951,76.033,55.529,26.592,34.164,58.692,69.749,97.383,91,11.144,6.122,22.762,10.514,32.631,17.359a64.583,64.583,0,0,1,13.178,11.889c17.649,21.326,23.109,52.27,27.22,77.579,7.693,47.367-7.756,70.4-38.957,107.042-43.249,50.789-77.078,74.062-142.922,66.127-60.4-7.326-153.649-36.1-162.439-109.875-2.9-24.345,7.782-46.286,13.909-69.02a383.786,383.786,0,0,0,13.271-102.268c-.23-22.861-8.788-28.916-17.626-46.528-9.651-19.233,5.626-35.672,10.382-55.611C2895.219,1685.777,2894.526,1666.752,2901.626,1660.377Z"/>
            <path id="Path_2381" data-name="Path 2381" class="cls-3" d="M2880.323,1619.221c11.961-11.19,64.632-9.862,81.7-10.505,46.369-1.748,64.29,36.875,87.391,70.369,29.732,42.836,66.248,87.171,112.217,113.162,12.98,7.285,26.7,12.433,38.624,20.368A74.422,74.422,0,0,1,3216,1826.44c20.66,24.588,27.445,61.379,32.934,91.5,10.457,57.39,9.139,92.076-27.67,136.927-50.173,61.138-103.108,82.153-181.763,72.214-72.407-9.175-183.687-42.842-192.339-132.134-2.888-29.809,10.757-56.573,18.845-84.3,11.52-39.839,17.611-82.786,16.828-124.445-.616-28.109-11.626-35.192-23.092-56.82-12.6-23.607,6.1-43.8,11.235-68.4C2873.17,1650.658,2871.918,1627.084,2880.323,1619.221Z"/>
            <path id="Path_2382" data-name="Path 2382" class="cls-4" d="M2865.218,1776.094c-.916-33.358-14.407-41.5-28.558-67.111-15.478-28.015,6.493-51.951,12.088-81.2,2.342-12.251.568-40.363,10.272-49.718,13.523-13.038,75.177-11.055,93.865-11.587,53.8-1.532,73.144,44.873,98.749,85.21,32.756,51.6,73.73,104.73,127.051,135.32,21.835,12.527,45.985,19.263,62.945,39.139,23.724,27.805,31.786,70.481,38.648,105.425,13.235,67.4,12.552,107.835-29.849,160.9-57.114,71.482-115.671,96.152-207.138,84.208-84.418-11.023-213.711-49.573-222.239-154.392-2.869-35.27,13.8-66.844,23.781-99.576C2859.135,1875.829,2866.567,1825.224,2865.218,1776.094Z"/>
          </g>
          <g id="Group_1020" data-name="Group 1020">
            <path id="Path_2383" data-name="Path 2383" class="cls-3" d="M2837.682,1805.7a2.277,2.277,0,0,0,4.173-.995c2.579-21.565-14.9-82.437-28.743-57.353C2802.691,1766.224,2827.924,1790.737,2837.682,1805.7Z"/>
          </g>
          <g id="Group_1021" data-name="Group 1021">
            <path id="Path_2384" data-name="Path 2384" class="cls-3" d="M3018.775,1513.407c10.364,3.41,14.541,13.77.765,33.018l-.011.016c-14.072,19.631-52.221,13.188-49.81-4.885,0-.006-.01-.006-.015-.017C2970.689,1519.941,3002.428,1508.03,3018.775,1513.407Z"/>
          </g>
          <g id="Group_1022" data-name="Group 1022">
            <path id="Path_2385" data-name="Path 2385" class="cls-6" d="M2389.3,1364.137c-16.68-3.881-34.9-9.222-52.11-8.945-8.066.131-12.323,3.794-18.288-1.954-8.806-8.486-4.923-35.978,3.1-43.668,10.963-10.514,28.893,5.774,36.906,12.648,14.912,12.792,29.933,21.055,48.534,27.829,14.254,5.191,29.7,6.612,35.957,22.694C2424.96,1380.061,2409.065,1368.737,2389.3,1364.137Z"/>
            <path id="Path_2386" data-name="Path 2386" class="cls-7" d="M2307.188,1288.6c9.412-19.593,26.155-4.1,39.169,7.752,5,4.546,9.432,8.6,13.161,11.777,16.861,14.378,31.239,21.739,54.345,36.14,5.4,3.366,12.833,6.533,20.731,9.624,10.458,4.082,21.678,7.4,30.066,10.651,12.686,4.916,21.3,12.844,25.042,25.425-11.712,16.04-55.431-2.663-83.325-11.416-23.372-7.334-48.887-17.306-73.812-13.995-1.822.235-3.633.53-5.442.826-10.861,1.782-18.387,4.937-28.359,2.719-13.126-2.919-12.75-9.359-8.848-22.044C2296.009,1326.241,2299.5,1304.6,2307.188,1288.6Z"/>
            <path id="Path_2387" data-name="Path 2387" class="cls-6" d="M2292.378,1267.621c11.355-31.335,32.871-6.973,50.077,10.014,6.585,6.5,12.453,11.957,17.678,16.4,22.607,19.221,40.449,26.431,73.723,49.965,6.545,4.628,16.833,9.276,27.893,13.734,14.336,5.768,29.956,10.774,40.649,14.71,18.318,6.744,29.486,18.243,33.61,34.748-4.988,24.76-76.489-1.461-112.554-14.228-31.192-11.174-65.407-26.128-99.13-19.067-2.434.5-4.851,1.085-7.268,1.674-13.664,3.334-25.222,7.873-38.431,7.391-23.67-.863-21.015-10.252-12.725-29.448C2278.3,1324.805,2282.5,1294.889,2292.378,1267.621Z"/>
            <path id="Path_2388" data-name="Path 2388" class="cls-8" d="M2277.569,1246.647c13.39-43.082,39.586-9.849,60.984,12.275,8.174,8.448,15.473,15.315,22.194,21.017,28.353,24.064,49.832,30.911,93.1,63.789,7.714,5.862,20.833,12.021,35.055,17.845,18.213,7.453,38.244,14.114,51.231,18.769,23.971,8.51,37.676,23.642,42.179,44.072,1.734,33.479-97.569-.19-141.784-17.042-39.03-14.955-81.927-34.949-124.448-24.138-3.046.771-6.072,1.633-9.095,2.522-16.479,4.85-31.828,11.035-48.5,12.064-34,2.1-29.319-11.18-16.6-36.853C2260.534,1323.319,2265.589,1285.187,2277.569,1246.647Z"/>
            <path id="Path_2389" data-name="Path 2389" class="cls-6" d="M2217.869,1368.423c-17.159,32.134-23.681,49.687,20.478,44.258,24.086-2.962,46.36-13.542,69.5-20.106,51.319-14.562,102.9,10.471,149.765,29.209,52.365,20.935,179.471,62.053,171.014,19.854-4.882-24.354-21.145-43.061-50.747-53.395-27.329-9.541-83.829-28.7-104.031-44.783-65.971-52.533-88.915-49.691-139.193-103.25-25.591-27.262-56.434-69.375-71.892-14.538C2248.718,1275.483,2242.758,1321.812,2217.869,1368.423Z"/>
          </g>
          <g id="Group_1023" data-name="Group 1023">
            <path id="Path_2390" data-name="Path 2390" class="cls-6" d="M1949.9,1742.891c9.82,33.665-28.68,58.926-51.99,71.023-7.664,3.978-48.391,28.689-56.7,21.465-16-13.905,14.362-69.173,14.5-86.755.215-28.049-16.8-101.521,32.953-80.75C1913.646,1678.308,1942.342,1717.019,1949.9,1742.891Z"/>
            <path id="Path_2391" data-name="Path 2391" class="cls-6" d="M1909.483,1628.418c14.652,10.224,27.922,16.108,44.188,24.995,14.112,7.659,28.14,21.365,28.457,37.213.292,14.608.4,24.69-1.381,38.358-1.842,14.143-7.421,32.562-6.6,46.578.929,15.781,4.578,23.574,5.831,34.032,1.648,13.765-40.4,31.887-58.271,36.526-9.293,2.413-22.4,5.168-37.457,7.48-15.173,2.33-31.167,6.837-39.825,2.422-13.664-6.968-19.554-22.351-18.292-42.87,1.75-30.385,11.9-66.016,12.484-88.183.5-20.248-.995-46.933,3.38-70.957,2.024-11.115,5.855-23.409,12.374-29.951,4.4-4.412,6.582-5.284,11.05-6.141,5.261-1.009,11.852-3.542,18.882-2.282C1892.348,1617.079,1900.4,1622.079,1909.483,1628.418Z"/>
            <path id="Path_2392" data-name="Path 2392" class="cls-6" d="M1930.312,1588.962c19.912,17.024,36.963,20.719,60.54,29.054,20.518,7.2,41.777,25.041,36.214,47.413-4.886,19.65-9.21,30.453-15.471,49.647-6.11,18.731-16.2,46.8-11.367,66.719,5.718,23.56,17.4,31.509,28.01,46.347,12.269,17.159-57.3,45.664-82.725,50.185-14.922,2.652-29.355,1.636-47.659.432-17.811-1.171-37.156,3.065-50.2-2.094-20.845-8.243-33.761-26.552-34.914-53.57-1.865-40.315,7.717-87.879,8.8-121.781.91-29.593.333-65.2,9.386-96.822,4.086-14.272,11.575-31.082,22.821-37.9,7.987-4.844,10.7-3.517,17.89-2.2,7.714,1.416,17.494-.589,26.609,2.448C1909.569,1570.614,1919.519,1579.735,1930.312,1588.962Z"/>
            <path id="Path_2393" data-name="Path 2393" class="cls-7" d="M1951.141,1549.507c25.017,23.973,46,25.33,76.892,33.112,26.924,6.736,55.547,28.809,43.971,57.613-9.956,24.774-18.714,36.287-29.56,60.937-10.289,23.384-24.908,60.994-16.138,86.86,10.6,31.274,30.082,39.985,50.19,58.66,22.825,21.2-74.192,59.333-107.18,63.844-20.554,2.81-36.319-1.8-57.86-6.615-20.459-4.576-43.157-.671-60.58-6.61-28.044-9.459-47.968-30.752-51.536-64.27-5.48-50.246,3.532-109.742,5.118-155.38,1.323-38.937,1.616-83.492,15.392-122.686,6.128-17.439,17.305-38.672,33.269-45.855,11.587-5.214,14.893-1.849,24.728,1.748,10.263,3.754,23.107,2.416,34.337,7.179C1926.751,1524.223,1938.565,1537.456,1951.141,1549.507Z"/>
            <path id="Path_2394" data-name="Path 2394" class="cls-6" d="M1971.969,1510.051c30.031,30.99,55.046,29.941,93.244,37.171,33.331,6.274,69.351,32.637,51.729,67.814-15,29.949-28.186,42.162-43.649,72.226-14.443,28.078-33.6,75.153-20.91,107,15.519,38.953,42.85,48.594,72.37,70.975,33.508,25.4-91.078,72.961-131.635,77.5-26.182,2.931-43.315-5.176-68.061-13.662-23.138-7.934-49.144-4.439-70.957-11.126-35.222-10.727-62.175-34.953-68.158-74.97-9.1-60.176-.653-131.6,1.435-188.978,1.736-48.283,2.879-101.8,21.4-148.551,8.163-20.611,23.024-46.23,43.717-53.807,15.182-5.559,19.132-.192,31.568,5.693,12.858,6.085,28.7,5.437,42.064,11.91C1943.906,1477.861,1957.575,1495.2,1971.969,1510.051Z"/>
            <path id="Path_2395" data-name="Path 2395" class="cls-6" d="M1992.8,1470.595c34.986,38.041,64.087,34.552,109.6,41.23,39.737,5.813,83.162,36.5,59.486,78.014-20.046,35.152-37.644,48.064-57.739,83.516-18.588,32.8-42.279,89.3-25.68,127.14,20.445,46.613,56.306,94.706,99.427,116.789,49.854,25.531-112.1,58.332-160.967,57.661-31.951-.439-50.341-8.53-78.263-20.708-25.844-11.272-55.131-8.208-81.334-15.643-42.4-11.995-76.381-39.154-84.78-85.671-12.711-70.106-4.839-153.467-2.248-222.575,2.149-57.628,4.075-120.132,27.4-174.416,10.168-23.8,28.733-53.775,54.165-61.759,18.771-5.893,23.39,1.466,38.406,9.637,15.475,8.421,34.282,8.466,49.792,16.641C1961.046,1431.512,1976.564,1452.943,1992.8,1470.595Z"/>
            <path id="Path_2396" data-name="Path 2396" class="cls-8" d="M1753.215,1606.693c2.563-66.973,5.377-138.425,33.409-200.281,12.22-26.966,21.5-71.174,51.676-79.571,22.357-6.222,65.14,4.223,82.729,14.677,18.1,10.76,32.375,14.811,50.037,24.686,24.175,13.516,24.473,44.488,42.561,64.935,39.9,45.11,73.128,39.164,125.948,45.289,46.143,5.351,96.974,40.376,67.243,88.215-25.09,40.371-47.1,53.98-71.828,94.805-22.732,37.526-50.959,103.429-30.451,147.281,25.376,54.261,68.515,65.889,116.729,95.6,55.042,33.922-124.832,100.17-180.545,104.819-37.434,3.123-57.389-11.874-88.464-27.755-28.571-14.6-61.118-11.976-91.711-20.16-49.58-13.262-90.588-43.353-101.4-96.37C1742.82,1782.83,1750.122,1687.536,1753.215,1606.693Z"/>
            <path id="Path_2397" data-name="Path 2397" class="cls-9" d="M1751.681,1622.038c2.443-66.973,5.127-138.426,31.86-200.282,11.654-26.965,32.841-61.313,61.618-69.71,21.321-6.221,26.376,3.127,43.149,13.582,17.264,10.76,38.01,11.5,54.854,21.372,23.055,13.516,39.614,39.037,56.863,59.484,38.055,45.11,69.74,39.164,120.112,45.289,44.005,5.351,92.48,40.376,64.128,88.214-23.928,40.372-44.916,53.981-68.5,94.806-21.679,37.526-48.6,103.429-29.04,147.281,24.2,54.261,65.34,65.888,111.32,95.6,52.491,33.922-119.047,100.17-172.179,104.819-35.7,3.123-54.73-11.874-84.365-27.755-27.247-14.6-58.286-11.976-87.461-20.16-47.282-13.262-86.391-43.354-96.7-96.37C1741.767,1798.175,1748.731,1702.88,1751.681,1622.038Z"/>
          </g>
          <g id="Group_1024" data-name="Group 1024">
            <path id="Path_2398" data-name="Path 2398" class="cls-6" d="M2457.215,2181.944c-10.215-4.037-26.083-4.124-37.528.244-5.723,2.184-10.34,5.482-12.592,9.957s-2.139,10.126,1.6,17.017c4.946,9.121,14.546,17.015,25.15,20.976s22.216,3.989,31.184-2.62c8.787-6.477,11.055-16.2,9.016-25.142S2465.658,2185.281,2457.215,2181.944Z"/>
            <path id="Path_2399" data-name="Path 2399" class="cls-6" d="M2361.941,2164.814c5.041-4.007,9.324-9.173,15.03-13.012,5.418-3.638,11.576-6.42,16.646-10.821,2.735-2.375,4.48-6.16,7.825-7.8,8.849-4.348,30.393-3.571,39.268-.122,6.314,2.454,10.533,8.079,15.367,12.155a138.762,138.762,0,0,0,17.555,12.581c9.1,5.521,18.027,11.29,27.235,16.441,13.6,7.591,26.255,16.647,29.6,33.693,5.68,28.984-33.772,40.216-54.378,47.682-21.4,7.676-44.971,8.3-67.863,5.758-17.647-1.957-35.29-4.511-52.244-10.441-10.587-3.7-30.737-9.553-34.894-22.087-3.2-9.641,5.866-17.8,9.705-23.972C2339.389,2191.043,2348.243,2175.7,2361.941,2164.814Z"/>
            <path id="Path_2400" data-name="Path 2400" class="cls-7" d="M2320,2137.312c8.775-5.827,15.658-14,24.789-19.975,8.741-5.714,18.554-10,25.972-17.734,4.054-4.226,6.1-11.269,11.248-14.2,12.726-7.238,50.155-4.932,62.574,1.613,9.559,5.038,15.039,15.89,21.921,23.531a136.18,136.18,0,0,0,26.76,22.916c14.757,9.728,29.549,19.081,45.376,26.71,23.41,11.27,45.987,24.348,51.46,53.126,9.32,49.029-67.315,61.768-99.739,70.223-33.827,8.742-69.505,10.814-104.544,8.9-30.889-1.692-61.711-5.183-91.852-13.952-18.055-5.254-55.582-14.232-61.6-36.46-4.68-17.284,14.426-31.683,23.736-41.612C2275.971,2179.208,2294.526,2154.23,2320,2137.312Z"/>
            <path id="Path_2401" data-name="Path 2401" class="cls-6" d="M2278.082,2109.664c12.5-7.67,21.99-18.825,34.546-26.938,12.064-7.79,25.51-13.6,35.3-24.647,5.36-6.087,7.723-16.367,14.67-20.591,16.621-10.106,69.878-6.253,85.879,3.349,12.771,7.662,19.538,23.7,28.476,34.906A161.736,161.736,0,0,0,2512.917,2109c20.424,13.915,41.07,26.87,63.517,36.979,33.221,14.949,65.72,32.048,73.323,72.558,12.96,69.073-100.858,83.321-145.1,92.764-46.257,9.809-94.015,13.421-141.224,12.034-44.119-1.3-88.131-5.887-131.461-17.464-25.524-6.82-80.387-18.917-88.306-50.832-6.13-24.932,22.992-45.644,37.767-59.252C2212.623,2167.059,2240.806,2132.528,2278.082,2109.664Z"/>
            <path id="Path_2402" data-name="Path 2402" class="cls-8" d="M2236.172,2081.928c16.238-9.522,28.323-23.652,44.3-33.9,15.388-9.866,32.486-17.185,44.626-31.56,6.678-7.937,9.351-21.461,18.092-26.984,20.523-12.968,89.582-7.564,109.185,5.084,15.966,10.3,24.013,31.534,35.029,46.282a191.038,191.038,0,0,0,45.171,43.589c26.09,18.1,52.592,34.66,81.658,47.249,43.031,18.627,85.453,39.747,95.185,91.99,16.6,89.117-134.4,104.872-190.46,115.3a904.673,904.673,0,0,1-177.905,15.172c-57.342-.852-114.524-6.713-171.068-20.975-32.978-8.457-105.237-23.591-115.013-65.2-7.614-32.572,31.565-59.625,51.8-76.893C2149.312,2154.778,2187.092,2110.708,2236.172,2081.928Z"/>
            <path id="Path_2403" data-name="Path 2403" class="cls-7" d="M2194.264,2054.131c19.949-11.416,34.656-28.478,54.062-40.865,18.711-11.942,39.463-20.766,53.953-38.473,7.995-9.787,10.991-26.539,21.515-33.378,24.449-15.792,109.275-8.87,132.49,6.819,19.152,12.944,28.515,39.341,41.583,57.659a223.04,223.04,0,0,0,54.376,53.924c31.756,22.289,64.114,42.45,99.8,57.518,52.84,22.307,105.184,47.448,117.047,111.423,20.242,109.162-167.942,126.424-235.821,137.845-71.117,11.943-143,18.7-214.585,18.31-70.562-.383-140.958-7.378-210.676-24.487-40.457-10-130.086-28.265-141.72-79.576-9.1-40.212,40.144-73.613,65.83-94.533C2086.017,2142.42,2133.312,2088.694,2194.264,2054.131Z"/>
            <path id="Path_2404" data-name="Path 2404" class="cls-6" d="M2152.358,2026.317c23.7-13.232,40.989-33.3,63.819-47.828,22.035-14.018,46.44-24.346,63.28-45.386,9.313-11.637,12.613-31.645,24.937-39.771,28.335-18.685,128.965-10.176,155.8,8.554,22.334,15.59,33.018,47.148,48.137,69.034a255.707,255.707,0,0,0,63.582,64.261c37.421,26.475,96.705,27.207,117.94,67.787,71.811,137.225,122.533,18.152,136.526,93.859,23.882,129.206-199.1,184.973-278.8,197.382-83.547,13.009-167.488,21.349-251.266,21.448s-167.391-8.043-250.284-28c-47.935-11.54-154.935-32.939-168.426-93.949-10.581-47.851,48.725-87.6,79.862-112.173C2022.73,2130.038,2079.665,2066.9,2152.358,2026.317Z"/>
          </g>
          <g id="Group_1025" data-name="Group 1025">
            <path id="Path_2405" data-name="Path 2405" class="cls-8" d="M2870.692,2239.074c.359-69.274-72.229-117.06-123.971-143.292-12.84-6.513-88.773-28.373-59.428-50.223,11.742-8.743,38.656-.662,54.143-8.163,17.416-8.435,28.481-27.064,50.6-20.173,3.3,55.77,19.727,85.652,60.516,125.4,33.875,33.007,80.083,47.451,125.194,56.822,69.5,14.438,143.8-4.312,211.424,12,55.687,13.438,51.36,70,8.117,98.612-57.391,37.968-137.461,20.512-201.655,20.983-28.787.211-112,22.654-134.09-3.351C2843.643,2306.624,2870.566,2263.418,2870.692,2239.074Z"/>
          </g>
          <g id="Group_1026" data-name="Group 1026">
            <path id="Path_2406" data-name="Path 2406" class="cls-7" d="M3140.084,2251.8c2.665,39.946-88.558,35.451-113.026,34.6-13.847-.483-124.47-1.3-92.287-32.734,19.817-19.353,79.447-12.5,107.457-15.407C3061.073,2236.3,3138.312,2225.225,3140.084,2251.8Z"/>
          </g>
          <g id="Group_1027" data-name="Group 1027">
            <path id="Path_2407" data-name="Path 2407" class="cls-6" d="M1953.47,2028.448c21.505,3.031,54.707-11.51,57.632,21.617,3.308,37.469-74.679,86.643-102.915,100.426-19.049,9.3-51.928,17.226-69.593.2-20.457-19.72-2.258-47.991,5.878-69.338,7.932-20.808.381-55.329,19.023-71.061C1890.487,1987.511,1926.081,2024.585,1953.47,2028.448Z"/>
          </g>
          <g id="Group_1028" data-name="Group 1028">
            <path id="Path_2408" data-name="Path 2408" class="cls-6" d="M1878.26,2113.254c-8.346-10.746,7.41-51.569,18.084-55.865,14.071-5.664,49.226,11.385,45.774,30.091-2.386,12.927-52.293,40.6-63.84,25.8Z"/>
          </g>
          <g id="Group_1029" data-name="Group 1029">
            <path id="Path_2409" data-name="Path 2409" class="cls-6" d="M1773.515,2091.238c-8.347-10.746,7.409-51.569,18.083-55.865,14.072-5.664,49.227,11.384,45.774,30.091-2.386,12.927-52.292,40.6-63.839,25.8Z"/>
          </g>
          <g id="Group_1030" data-name="Group 1030">
            <path id="Path_2410" data-name="Path 2410" class="cls-6" d="M1963.169,1248.975c14.748-32.342,17.149-69.958,34.394-102.879,20.03-38.234,56.608-48.52,96.829-52.72,27.471-2.869,45.5-12.929,70.811-18.284,18.407-3.894,52.089,15.289,67.351.72,14.345-13.7-.4-84.929-8.572-101.33-47.526-95.394-225.69-81.888-306.637-54.454C1797.831,960.533,1822.9,1101,1862.4,1192.2c9.254,21.38,2.553,65.2,19.565,81.583C1903.584,1294.595,1951.709,1274.1,1963.169,1248.975Z"/>
          </g>
          <g id="Group_1031" data-name="Group 1031">
            <path id="Path_2411" data-name="Path 2411" class="cls-8" d="M1883.09,970.336c-23.584,28.7-8.4,92.074-4.4,127.134,3.478,30.476,13.681,79.726,46.341,37.532,35.368-45.7,66.793-67.387,126.23-78.954,34.9-6.791,175.125-9.9,114.588-81.167C2133.727,937.06,2072,941.809,2028.01,941.11,1983.97,940.411,1915.218,931.233,1883.09,970.336Z"/>
          </g>
          <g id="Group_1032" data-name="Group 1032">
            <path id="Path_2412" data-name="Path 2412" class="cls-6" d="M1959.7,1175.164c-10.494-2.975-63.765,17.531-68.808,27.124-11.75,22.352,17.778,45.761,37.151,33.785C1944.635,1225.815,1963.335,1195.717,1959.7,1175.164Z"/>
          </g>
          <g id="Group_1033" data-name="Group 1033">
            <path id="Path_2413" data-name="Path 2413" class="cls-6" d="M1975.889,981.049c-25.99-.168-37.115.79-52.176,22.17-11.2,15.9-24.89,43.473-8.085,60.3,16.4,16.422,49.549-20.883,64.726-27.215,21.191-8.84,103.751-1.512,103.424-32.219C2083.4,968.415,1994.416,981.169,1975.889,981.049Z"/>
          </g>
        </g>
      </g>
    </g>
  </g>
</svg>
