<svg xmlns="http://www.w3.org/2000/svg" viewBox="0 0 246.644 58.59"><defs><style>.a{fill:#231f20;font-size:13px;font-family:Helvetica;letter-spacing:0.09em;}.b{fill:#fff;}.c{fill:#3a53a4;}.d{fill:#ed2024;}</style></defs><g transform="translate(-30 -5.704)"><text class="a" transform="translate(66.644 38.887)"><tspan x="0" y="0">&lt;$USD&gt; CURRENCY &lt;/$USD&gt;</tspan></text><path class="b" d="M51.57,37.249a32.159,32.159,0,0,0-.357-3.476q-.072-.513-.139-1.024v-.007c-.067-.513-.129-1.027-.17-1.54a27.4,27.4,0,0,1-.049-2.952v-.008c.038-1.3.134-2.592.235-3.873.016-.208.031-.418.047-.626l0-.017c.116-1.485.209-2.99.195-4.5v-.008a23.484,23.484,0,0,0-.139-2.54,19.77,19.77,0,0,0-.343-1.952l0-.007a19.652,19.652,0,0,0-1.6-4.493l0-.007a18.947,18.947,0,0,0-1.324-2.254,4.7,4.7,0,0,0-2.676-2.19,2.5,2.5,0,0,0-.455-.056c-.045,0-.09-.016-.135-.016-.063,0-.127.012-.191.016A3.763,3.763,0,0,0,42.5,6.5a6.87,6.87,0,0,0-1.6,1.723,26.551,26.551,0,0,0-3.087,7.595c-.208.714-.417,1.428-.641,2.143A47.571,47.571,0,0,1,32.2,28.487a13.963,13.963,0,0,0-1.686,4.255,19.058,19.058,0,0,0-.373,2.252c-.074.727-.109,1.481-.126,2.255v.016c-.015.7-.018,1.408,0,2.15.019.806.048,1.584.082,2.35v.007c.071,1.569.183,3.059.356,4.492v.007a34.7,34.7,0,0,0,.828,4.493l0,.007c.224.869.476,1.727.786,2.572.244.665.522,1.306.82,1.928l.009.016a19.6,19.6,0,0,0,2.953,4.5l.007.007a14.89,14.89,0,0,0,5.4,3.952,5.755,5.755,0,0,0,2.286.548,4.662,4.662,0,0,0,.574-.048c1.431-.238,2.692-1.356,3.752-3.38.182-.348.331-.713.494-1.072l0-.007a21.016,21.016,0,0,0,1.466-4.5l0-.016a20.573,20.573,0,0,0,.364-2.5c.052-.67.068-1.338.073-2v-.007c0-.511,0-1.02,0-1.517-.006-.988-.009-1.987.045-2.976v-.007c.028-.508.066-1.015.136-1.516.117-.881.309-1.738.5-2.571.03-.135.059-.27.088-.4l0-.007a21.538,21.538,0,0,0,.515-3.159c.03-.449.031-.9.018-1.341Z"/><path class="c" d="M42.5,28.25V6.5a6.87,6.87,0,0,0-1.6,1.723,26.551,26.551,0,0,0-3.087,7.595c-.208.714-.417,1.428-.641,2.143A47.571,47.571,0,0,1,32.2,28.487a13.963,13.963,0,0,0-1.686,4.255H42.5Z"/><path class="d" d="M47.922,7.966a4.7,4.7,0,0,0-2.676-2.19,2.5,2.5,0,0,0-.455-.056h-.326A3.763,3.763,0,0,0,42.5,6.5V10.22h6.749A18.947,18.947,0,0,0,47.922,7.966Z"/><path class="d" d="M51.194,16.679a19.77,19.77,0,0,0-.343-1.952l0-.007H42.5v4.5h8.836A23.484,23.484,0,0,0,51.194,16.679Z"/><path class="d" d="M51.089,24.369c.016-.208.031-.418.047-.626H42.5v4.5h8.357C50.892,26.947,50.988,25.65,51.089,24.369Z"/><path class="d" d="M51.213,33.773q-.072-.513-.139-1.024v-.007H30.512a19.058,19.058,0,0,0-.373,2.252c-.074.727-.109,1.481-.126,2.255H51.57A32.159,32.159,0,0,0,51.213,33.773Z"/><path class="d" d="M30.094,41.772c.071,1.569.183,3.059.356,4.492H50.31c.028-.508.066-1.015.136-1.516.117-.881.309-1.738.5-2.571.03-.135.059-.27.088-.4l0-.007H30.094Z"/><path class="d" d="M31.281,50.771c.224.869.476,1.727.786,2.572.244.665.522,1.306.82,1.928H49.83a20.573,20.573,0,0,0,.364-2.5c.052-.67.068-1.338.073-2v-.007H31.279Z"/><path class="d" d="M41.251,63.746a5.755,5.755,0,0,0,2.286.548,4.662,4.662,0,0,0,.574-.048c1.431-.238,2.692-1.356,3.752-3.38.182-.348.331-.713.494-1.072h-12.5A14.89,14.89,0,0,0,41.251,63.746Z"/></g></svg>