<svg xmlns="http://www.w3.org/2000/svg"  viewBox="0 0 4.227 11.051"  width="5" height="11">
  <g id="Group_421" data-name="Group 421" transform="translate(-2553.147 -2237.863)">
    <path id="Path_488" data-name="Path 488" d="M2555.768,2248.789a1.136,1.136,0,0,1-.421-.1,3.232,3.232,0,0,1-1.694-1.921,7.837,7.837,0,0,1-.379-2.566,3.526,3.526,0,0,1,.4-2.014,8.778,8.778,0,0,0,.916-1.941h0c.042-.13.08-.262.119-.4a4.929,4.929,0,0,1,.568-1.4.825.825,0,0,1,.8-.452.87.87,0,0,1,.493.4,3.611,3.611,0,0,1,.6,1.607,7.133,7.133,0,0,1-.019,1.419,7.99,7.99,0,0,0-.034,1.256c.012.158.035.319.057.475a4.424,4.424,0,0,1,.063.892,4.491,4.491,0,0,1-.112.657c-.035.155-.071.315-.093.473a5.921,5.921,0,0,0-.033.832c0,.212,0,.432-.013.649a3.858,3.858,0,0,1-.43,1.493,1.034,1.034,0,0,1-.692.623A.763.763,0,0,1,2555.768,2248.789Z"/>
    <path id="Path_489" data-name="Path 489" d="M2555.768,2248.789a1.136,1.136,0,0,1-.421-.1,3.232,3.232,0,0,1-1.694-1.921,7.837,7.837,0,0,1-.379-2.566,3.526,3.526,0,0,1,.4-2.014,8.778,8.778,0,0,0,.916-1.941h0c.042-.13.08-.262.119-.4a4.929,4.929,0,0,1,.568-1.4.825.825,0,0,1,.8-.452.87.87,0,0,1,.493.4,3.611,3.611,0,0,1,.6,1.607,7.133,7.133,0,0,1-.019,1.419,7.99,7.99,0,0,0-.034,1.256c.012.158.035.319.057.475a4.424,4.424,0,0,1,.063.892,4.491,4.491,0,0,1-.112.657c-.035.155-.071.315-.093.473a5.921,5.921,0,0,0-.033.832c0,.212,0,.432-.013.649a3.858,3.858,0,0,1-.43,1.493,1.034,1.034,0,0,1-.692.623A.763.763,0,0,1,2555.768,2248.789Z" fill="none" stroke="#231f20" stroke-miterlimit="10" stroke-width="0.25"/>
  </g>
</svg>
