<svg xmlns="http://www.w3.org/2000/svg" viewBox="0 0 4.227 11.051" width="5" height="11">
  <defs>
    <style>
      .cls-1 {
        fill: #fff;
      }

      .cls-2 {
        fill: none;
        stroke: #231f20;
        stroke-miterlimit: 10;
        stroke-width: 0.25px;
      }
    </style>
  </defs>
  <g id="Group_763" data-name="Group 763" transform="translate(-582.272 -1667.313)">
    <path id="Path_959" data-name="Path 959" class="cls-1" d="M584.892,1678.239a1.119,1.119,0,0,1-.421-.1,3.226,3.226,0,0,1-1.693-1.92,7.815,7.815,0,0,1-.379-2.567,3.514,3.514,0,0,1,.4-2.013,8.843,8.843,0,0,0,.916-1.941h0c.041-.131.08-.263.118-.4a4.931,4.931,0,0,1,.569-1.4.82.82,0,0,1,.8-.451.874.874,0,0,1,.494.4,3.636,3.636,0,0,1,.6,1.608,7.151,7.151,0,0,1-.02,1.419,7.974,7.974,0,0,0-.034,1.256c.013.158.035.319.057.474a3.268,3.268,0,0,1-.049,1.549c-.035.155-.071.315-.092.474a5.627,5.627,0,0,0-.033.831c0,.213,0,.433-.013.649a3.873,3.873,0,0,1-.431,1.494,1.032,1.032,0,0,1-.691.622A.628.628,0,0,1,584.892,1678.239Z"/>
    <path id="Path_960" data-name="Path 960" class="cls-2" d="M584.892,1678.239a1.119,1.119,0,0,1-.421-.1,3.226,3.226,0,0,1-1.693-1.92,7.815,7.815,0,0,1-.379-2.567,3.514,3.514,0,0,1,.4-2.013,8.843,8.843,0,0,0,.916-1.941h0c.041-.131.08-.263.118-.4a4.931,4.931,0,0,1,.569-1.4.82.82,0,0,1,.8-.451.874.874,0,0,1,.494.4,3.636,3.636,0,0,1,.6,1.608,7.151,7.151,0,0,1-.02,1.419,7.974,7.974,0,0,0-.034,1.256c.013.158.035.319.057.474a3.268,3.268,0,0,1-.049,1.549c-.035.155-.071.315-.092.474a5.627,5.627,0,0,0-.033.831c0,.213,0,.433-.013.649a3.873,3.873,0,0,1-.431,1.494,1.032,1.032,0,0,1-.691.622A.628.628,0,0,1,584.892,1678.239Z"/>
  </g>
</svg>
