<svg xmlns="http://www.w3.org/2000/svg" xmlns:xlink="http://www.w3.org/1999/xlink" width="1366" height="768" viewBox="0 0 1366 768">
  <defs>
    <clipPath id="clip-path">
      <rect id="Rectangle_70" data-name="Rectangle 70" width="1366" height="768" transform="translate(211.569 1157.336)" fill="none"/>
    </clipPath>
  </defs>
  <g id="Group_197" data-name="Group 197" transform="translate(-211.569 -1157.336)" clip-path="url(#clip-path)">
    <g id="Group_193" data-name="Group 193" opacity="0.2">
      <g id="Group_192" data-name="Group 192">
        <g id="Group_167" data-name="Group 167">
          <path id="Path_566" data-name="Path 566" d="M505.225,1244.656c-14.326,3.434-20.492-8.7-21.955-23.454s1.774-32.125,6.253-39.162c8.2-12.885,20.421-16.094,29.861-12.161s16.1,15.006,13.2,30.685c-1.036,5.592-21.917,42.872-27.341,44.089Z" fill="none" stroke="#fff8e6" stroke-linecap="round" stroke-linejoin="round" stroke-width="0.962"/>
          <path id="Path_567" data-name="Path 567" d="M539.2,1158.69c14.25,15.25,13.6,42.809,5.152,65.558-4.346,11.7-19.517,41.542-31.718,56.13-2.35,2.81-4.449,4.994-6.263,5.929l-.018.008c-16.4,7.458-26.72-1.614-38.721-18.448-10.668-14.964-20.75-32.218-17.775-52.279,2.142-14.111,5.95-28.346,12.648-38.926a54.916,54.916,0,0,1,21.773-20.094c6.882-3.479,17.8-5.947,28.392-5.976C523.449,1150.535,533.8,1152.914,539.2,1158.69Z" fill="none" stroke="#fff8e6" stroke-linecap="round" stroke-linejoin="round" stroke-width="1.809"/>
          <path id="Path_568" data-name="Path 568" d="M558.275,1146.977c19.125,26.491,10.28,70.351-2.893,100.43-8.212,18.752-24.3,53.25-40.613,72.3a43.146,43.146,0,0,1-8.007,7.731l-.022.014c-18.491,11.406-34.907,6.444-55.488-13.444-22.016-21.274-41.266-48.1-36.659-80.876,3.086-21.671,8.867-44.529,20.152-62.372,8.544-13.5,20.09-24.44,35.456-31.277,10.276-4.574,28.558-7.868,46.132-7.372C534.031,1132.587,550.95,1136.832,558.275,1146.977Z" fill="none" stroke="#fff8e6" stroke-linecap="round" stroke-linejoin="round" stroke-width="0.962"/>
          <path id="Path_569" data-name="Path 569" d="M576.9,1134.767c24.054,37.7,6.847,97.8-10.938,135.3-12.2,25.726-29.036,65-49.507,88.467a69.367,69.367,0,0,1-9.753,9.533l-.024.019c-20.629,15.281-43.136,14.946-72.255-8.438-33.622-27-61.782-63.99-55.544-109.474,4.031-29.231,11.786-60.712,27.657-85.817,11.612-18.364,27.49-33.442,49.138-42.462,13.666-5.694,39.315-9.787,63.872-8.767C544.169,1114.141,567.673,1120.241,576.9,1134.767Z" fill="none" stroke="#fff8e6" stroke-linecap="round" stroke-linejoin="round" stroke-width="0.962"/>
          <path id="Path_570" data-name="Path 570" d="M441.008,1103.98c-66.874,26.758-89.437,99.721-97.982,162.908-7.87,58.2,29.154,105.6,74.429,138.072,44.346,31.809,75.958,20,100.546-7.927s42.152-71.973,58.4-104.635c22.365-44.956,47.908-121.214,18.984-170.175-11.159-18.888-41.225-26.861-72.766-28.406S458.063,1097.156,441.008,1103.98Z" fill="none" stroke="#fff8e6" stroke-linecap="round" stroke-linejoin="round" stroke-width="1.809"/>
        </g>
        <g id="Group_168" data-name="Group 168">
          <path id="Path_571" data-name="Path 571" d="M800.2,986.309c-13.928,4.467-68.006,20.826-72.3,36.45-5.44,19.775,28.348,32.928,42.958,32.721,29.289-.414,44.875,8.409,72.4,14.9,41.148,9.7,80.658-37.393,50.272-74.683C874.336,972.147,826.257,977.953,800.2,986.309Z" fill="none" stroke="#fff8e6" stroke-linecap="round" stroke-linejoin="round" stroke-width="0.962"/>
          <path id="Path_572" data-name="Path 572" d="M806.966,974.894c-11.843,1.592-30.358,2.483-48.264,8.686-13.87,4.8-28.784,19.237-36.878,28.311l0,.005c-6.518,9.606-5.036,16.328-3.885,23.706,3.484,22.35,35.526,42.007,54.591,46.569,33.013,7.9,55.657,18.812,91.026,19.328,34.81.508,64.811-25.357,73.269-57.921,4.726-18.292,2.994-37.938-13.185-53.794C896.759,963.443,841.15,970.3,806.966,974.894Z" fill="none" stroke="#fff8e6" stroke-linecap="round" stroke-linejoin="round" stroke-width="0.962"/>
          <path id="Path_573" data-name="Path 573" d="M817.535,962.711c-18.3,1.055-43.513-.4-66.876,7.329-18.086,5.982-37.965,30.034-46.034,44.162l0,.008c-5.739,14.055,2.985,23.215,7.155,33.468,9.924,24.4,42.636,50.621,66.224,60.415,36.669,15.225,66.471,29.119,109.655,23.762,43.072-5.343,77.149-39.551,87.248-81.5,5.715-23.879,4.335-48.8-17.351-67.246C923.143,953.848,859.442,960.294,817.535,962.711Z" fill="none" stroke="#fff8e6" stroke-linecap="round" stroke-linejoin="round" stroke-width="0.962"/>
          <path id="Path_574" data-name="Path 574" d="M829.163,950.189c-24.76.307-56.667-3.278-85.487,5.973-22.3,7.16-47.47,40.635-55.192,60.014l0,.01c-5.2,18.49,10.665,30.306,18.2,43.23,15.674,26.9,49.86,58.962,77.859,74.262,40.5,22.129,77.275,39.371,128.283,28.194,51.326-11.246,89.487-53.744,101.226-105.082,6.7-29.466,5.717-59.72-21.518-80.7C950.651,943.836,878.809,949.574,829.163,950.189Z" fill="none" stroke="#fff8e6" stroke-linecap="round" stroke-linejoin="round" stroke-width="0.962"/>
          <path id="Path_575" data-name="Path 575" d="M841.03,938.887c-31.2-.567-69.822-6.159-104.1,4.616-26.518,8.336-57.224,51.2-64.348,75.865l0,.013c-4.759,22.971,18.2,37.579,29.237,52.991,21.292,29.739,57.2,67.16,89.492,88.109,44.485,28.863,88.068,49.6,146.912,32.627,59.567-17.177,101.825-67.938,115.2-128.663,7.693-35.052,7.118-70.668-25.684-94.149C978.426,934.995,898.456,939.93,841.03,938.887Z" fill="none" stroke="#fff8e6" stroke-linecap="round" stroke-linejoin="round" stroke-width="0.962"/>
          <path id="Path_576" data-name="Path 576" d="M852.982,927.8c-37.633-1.519-82.977-9.04-122.71,3.259-30.734,9.514-67.138,61.788-73.5,91.716l0,.016c-4.358,27.489,25.679,44.972,40.277,62.753,26.913,32.782,64.642,75.28,101.125,101.956,48.593,35.529,98.851,59.807,165.541,37.06,67.8-23.125,114.163-82.132,129.183-152.244,8.681-40.638,8.53-81.64-29.851-107.6C1006.3,926.336,918.221,930.433,852.982,927.8Z" fill="none" stroke="#fff8e6" stroke-linecap="round" stroke-linejoin="round" stroke-width="1.809"/>
          <path id="Path_577" data-name="Path 577" d="M864.974,916.752c-44.052-2.524-96.132-11.922-141.322,1.9C688.7,929.345,646.5,991.059,640.99,1026.222l0,.018c-3.974,32.031,33.136,52.441,51.318,72.515,32.564,35.953,72.151,83.36,112.759,115.8,52.783,42.17,109.586,69.9,184.17,41.493,75.979-29.189,126.5-96.325,143.161-175.824,9.67-46.225,9.949-92.629-34.018-121.053C1034.221,917.7,938.051,920.939,864.974,916.752Z" fill="none" stroke="#fff8e6" stroke-linecap="round" stroke-linejoin="round" stroke-width="0.962"/>
          <path id="Path_578" data-name="Path 578" d="M876.983,905.679c-50.462-3.566-109.286-14.8-159.933.545-39.166,11.869-87.23,83.052-91.82,123.42l0,.02c-3.6,36.592,40.584,59.958,62.358,82.277,38.248,39.2,79.711,91.417,124.393,129.649,57.032,48.8,120.371,80.152,202.8,45.926,84.214-35.1,138.839-110.518,157.141-199.405,10.658-51.812,11.414-103.7-38.185-134.5C1062.225,908.912,957.918,911.4,876.983,905.679Z" fill="none" stroke="#fff8e6" stroke-linecap="round" stroke-linejoin="round" stroke-width="0.962"/>
          <path id="Path_579" data-name="Path 579" d="M710.452,893.8c-43.381,13.046-97.769,93.69-100.976,139.271l0,.023c-2.817,41.2,48.031,67.507,73.4,92.038,99.291,96.018,195.467,265.708,357.453,193.855,92.447-41.008,151.177-124.712,171.119-222.986,11.647-57.4,12.8-114.639-42.352-147.956-78.981-47.716-191.289-46.2-280.1-53.434C832.131,889.976,766.556,876.927,710.452,893.8Z" fill="none" stroke="#fff8e6" stroke-linecap="round" stroke-linejoin="round" stroke-width="0.962"/>
        </g>
        <g id="Group_169" data-name="Group 169">
          <path id="Path_580" data-name="Path 580" d="M830.155,1033.5c6.838,7.752,35.57,8.29,44.835,7.174,17.235-2.076-3.679-24.61-7.453-26.887C854.864,1006.163,810.4,1011.109,830.155,1033.5Z" fill="none" stroke="#fff8e6" stroke-linecap="round" stroke-linejoin="round" stroke-width="0.962"/>
        </g>
        <g id="Group_170" data-name="Group 170">
          <path id="Path_581" data-name="Path 581" d="M895.234,1693.586c36-16.271,51.285-55.055,9.882-75.575-42.454-21.04-54.289,16.774-80.658,39-17.463,14.718-60.165,30.148-13.282,41.888l.032.008C839.791,1706.053,868.187,1705.81,895.234,1693.586Z" fill="none" stroke="#fff8e6" stroke-linecap="round" stroke-linejoin="round" stroke-width="0.962" stroke-dasharray="5.466 3.644"/>
          <path id="Path_582" data-name="Path 582" d="M938.735,1603.37c21.966,18.207,20.605,35.362,18.786,55.511-.988,11.049-1.5,21.686-5.009,32.053-4.47,13.19-14.019,25.156-28.054,34.114-12.1,7.721-26.847,13.305-40.842,12.95-12.049-.305-21.049-4.862-29.84-10.056-7.385-4.362-14.685-8.836-25.131-10.024-12.59-1.423-25.512.918-38.013-.532-53.637-6.223-26.99-30-4.747-56.472,7.029-8.366,15.883-15.8,21.585-25.149a38.005,38.005,0,0,0,4.769-13.171c.635-3.385-.2-7.2.777-10.446,2.038-6.781,10.432-11.862,16-14.645,7.838-3.919,16.073-4.892,23.918-5.313,14.787-.792,29.283,1.624,47.078,1.522C912.81,1593.639,926.375,1593.125,938.735,1603.37Z" fill="none" stroke="#fff8e6" stroke-linecap="round" stroke-linejoin="round" stroke-width="0.962"/>
          <path id="Path_583" data-name="Path 583" d="M972.355,1588.729c25.984,26.227,15.506,48.7,12.82,76.157-1.433,14.764.923,28.841-1.036,42.782-2.642,18.808-13,35.917-30.456,48.841-16.135,11.949-37.578,20.362-57.352,18.079-17.378-2.006-28.58-11.825-39.344-22.33-9.11-8.891-18.035-17.554-33.224-19.331-17.768-2.069-36.077,3.713-53.675,2.947-59.928-2.606-50.286-33.347-22.775-71.056,9.726-13.331,23.731-24.122,31.488-38.786,3.6-6.821,4.626-13.687,4.6-20.744-.017-5.192-3.129-11.329-2.446-16.274,1.486-10.768,15.958-18.038,24.531-21.087,12.5-4.446,25.6-3.441,37.749-1.889,22.992,3.031,44.613,10.33,71.134,9.391C934.239,1574.726,955.208,1571.423,972.355,1588.729Z" fill="none" stroke="#fff8e6" stroke-linecap="round" stroke-linejoin="round" stroke-width="1.809"/>
          <path id="Path_584" data-name="Path 584" d="M1005.974,1574.088c30.233,34.072,10.408,62.042,6.855,96.8-1.877,18.478,3.431,35.994,2.938,53.509-.689,24.429-11.951,46.727-32.859,63.57-20.136,16.222-48.3,27.4-73.862,23.207-22.7-3.724-36.1-18.794-48.848-34.6-10.824-13.424-21.384-26.271-41.317-28.637-22.946-2.715-46.635,6.308-69.337,6.427-66.194.347-73.736-36.787-40.8-85.641,12.359-18.335,31.578-32.443,41.391-52.423,4.562-9.3,5.339-18.658,4.438-28.317-.653-7.005-6.072-15.457-5.668-22.1.9-14.749,21.485-24.194,33.063-27.529,17.169-4.945,35.129-2.012,51.579,1.536,31.2,6.813,59.942,19.02,95.19,17.259C955.667,1555.8,984.22,1549.572,1005.974,1574.088Z" fill="none" stroke="#fff8e6" stroke-linecap="round" stroke-linejoin="round" stroke-width="0.962"/>
          <path id="Path_585" data-name="Path 585" d="M1039.593,1559.447c34.589,41.874,5.31,75.382.89,117.45-2.322,22.194,5.979,43.132,6.911,64.238,1.326,30.027-10.877,57.553-35.261,78.3-24.116,20.517-59.026,34.428-90.371,28.334-28.025-5.448-43.582-25.785-58.353-46.879C850.9,1782.911,838.675,1765.9,814,1762.944c-28.122-3.361-57.2,8.756-85,9.907-72.507,3-97.252-40.251-58.831-100.225,14.96-23.354,39.426-40.764,51.294-66.06,5.524-11.786,6.058-23.634,4.273-35.89-1.286-8.823-9.023-19.583-8.891-27.929.294-18.725,27.01-30.345,41.6-33.972,21.835-5.431,44.656-.583,65.41,4.96,39.4,10.595,75.266,27.639,119.246,25.128C977.092,1536.818,1013.334,1527.658,1039.593,1559.447Z" fill="none" stroke="#fff8e6" stroke-linecap="round" stroke-linejoin="round" stroke-width="0.962"/>
          <path id="Path_586" data-name="Path 586" d="M1073.212,1544.806c39,49.664.212,88.722-5.075,138.1-2.766,25.909,8.544,50.256,10.884,74.966,3.372,35.607-9.792,68.389-37.663,93.026-28.081,24.823-69.734,41.4-106.881,33.463-33.334-7.228-51.1-32.746-67.857-59.154-14.219-22.5-28.084-43.7-57.5-47.25-33.3-4.007-67.8,11.093-100.66,13.387-78.875,5.5-120.8-43.724-76.86-114.81,17.544-28.381,47.275-49.085,61.2-79.7,6.485-14.268,6.78-28.612,4.107-43.462-1.916-10.643-11.974-23.706-12.114-33.757-.314-22.7,32.536-36.491,50.128-40.414,26.5-5.911,54.183.846,79.24,8.384,47.6,14.377,90.595,36.338,143.3,33C998.519,1517.9,1042.511,1505.713,1073.212,1544.806Z" fill="none" stroke="#fff8e6" stroke-linecap="round" stroke-linejoin="round" stroke-width="0.962"/>
          <path id="Path_587" data-name="Path 587" d="M1106.831,1530.165c43.451,57.452-4.886,102.061-11.04,158.743-3.211,29.623,11.119,57.368,14.857,85.694,5.434,41.172-8.7,79.229-40.065,107.754-32.038,29.136-80.456,48.439-123.391,38.591-38.656-8.943-58.617-39.708-77.361-71.429-15.932-27.03-31.433-52.421-65.6-56.556-38.477-4.653-78.4,13.347-116.321,16.866-85.294,7.916-144.375-47.2-94.889-129.394,20.116-33.412,55.122-57.406,71.1-93.335,7.446-16.751,7.5-33.594,3.941-51.035-2.546-12.465-14.927-27.828-15.336-39.584-.927-26.667,38.068-42.6,58.66-46.858,31.175-6.328,63.71,2.276,93.07,11.809,55.806,18.159,105.924,45.036,167.359,40.866C1019.947,1498.975,1071.727,1483.751,1106.831,1530.165Z" fill="none" stroke="#fff8e6" stroke-linecap="round" stroke-linejoin="round" stroke-width="1.809"/>
          <path id="Path_588" data-name="Path 588" d="M1140.451,1515.524c47.921,65.24-9.985,115.4-17.006,179.389-3.656,33.339,13.7,64.474,18.831,96.423,7.505,46.726-7.557,90.12-42.468,122.481-35.943,33.505-91.179,55.483-139.9,43.719-43.978-10.656-66.135-46.669-86.865-83.7-17.645-31.558-34.783-61.139-73.691-65.864-43.654-5.3-89.025,15.538-131.982,20.347-91.754,10.271-168.129-50.783-112.917-143.979,22.609-38.489,62.97-65.727,81-106.972,8.408-19.233,8.249-38.581,3.777-58.607-3.161-14.292-17.9-31.95-18.559-45.413-1.577-30.632,43.588-48.758,67.192-53.3,35.832-6.831,73.238,3.7,106.9,15.234,64.009,21.941,121.251,53.733,191.415,48.734C1041.374,1480.053,1100.971,1461.777,1140.451,1515.524Z" fill="none" stroke="#fff8e6" stroke-linecap="round" stroke-linejoin="round" stroke-width="0.962" stroke-dasharray="5.466 3.644"/>
          <path id="Path_589" data-name="Path 589" d="M606.786,1567.633c9.37-21.716,8.954-43.559,3.611-66.18-3.8-16.112-20.835-36.071-21.781-51.24-2.157-34.6,49.107-54.921,75.724-59.743,40.489-7.335,82.765,5.134,120.731,18.658,72.212,25.723,136.58,62.431,215.471,56.6,62.26-4.6,129.691-25.934,173.528,35.152,52.407,73.029-15.083,128.741-22.971,200.036-4.1,37.053,16.282,71.573,22.8,107.15,9.583,52.275-6.5,100.916-44.87,137.21-39.935,37.774-101.9,62.525-156.411,48.847-49.3-12.37-73.652-53.63-96.369-95.977-19.358-36.085-38.133-69.856-81.784-75.17-48.832-5.945-99.664,17.677-147.644,23.826-98.25,12.592-191.55-54.156-130.946-158.564C541.119,1644.76,586.7,1614.193,606.786,1567.633Z" fill="none" stroke="#fff8e6" stroke-linecap="round" stroke-linejoin="round" stroke-width="0.962"/>
        </g>
        <g id="Group_171" data-name="Group 171">
          <path id="Path_590" data-name="Path 590" d="M1355.084,975.762c-18.236,2.9-53.11,23.945-57.422,42.994-4.185,18.484,9.242,38.311,16.927,53.925,5.133,10.429,17.277,51.185,26.787,56.847,16.832,10.019,25.56-6.874,36.518-23.983,11.742-18.334,42.7-49.082,42.748-71.429C1420.7,1007.063,1379.935,971.818,1355.084,975.762Z" fill="none" stroke="#fff8e6" stroke-linecap="round" stroke-linejoin="round" stroke-width="0.962"/>
          <path id="Path_591" data-name="Path 591" d="M1293.856,1001.062c-14.121,22.694,2.807,49.74,8.827,73.861,3.052,12.224,7.025,34.624,12.5,53.253,2.93,9.968,5.493,20.108,9.549,24.9a19.543,19.543,0,0,0,11.218,6.84c13.68,2.767,28.078-12.252,39.567-25.7,17.765-20.79,48.085-55.6,52.46-82.94,3.521-22.006-.68-51.106-17.209-71.367-13.048-15.994-34.495-19.964-50.662-17.839C1338.986,964.846,1304.672,983.677,1293.856,1001.062Z" fill="none" stroke="#fff8e6" stroke-linecap="round" stroke-linejoin="round" stroke-width="0.962"/>
          <path id="Path_592" data-name="Path 592" d="M1290.049,983.368c-25.729,26.691-4.095,61.36.729,93.8,2.677,18,5.035,44.18,9.471,67.286,2.185,11.379,3.435,24.45,7.841,32.167a22.859,22.859,0,0,0,12.359,10.69c16.639,5.862,38.453-10.745,52.692-24.423,24.054-23.1,53.885-62.106,62.173-94.45,7.3-28.465,12.22-68.622-4.833-96.965-14.018-23.3-43.575-25.606-65.35-23.093C1341.14,951.145,1305.638,967.2,1290.049,983.368Z" fill="none" stroke="#fff8e6" stroke-linecap="round" stroke-linejoin="round" stroke-width="0.962"/>
          <path id="Path_593" data-name="Path 593" d="M1286.243,965.675c-38.155,29.689-11.152,72.979-7.371,113.731,2.207,23.781,3.184,53.708,6.443,81.318,1.507,12.776,1.54,28.724,6.132,39.437,2.861,6.674,7.3,11.728,13.5,14.542,19.62,8.909,48.915-9.145,65.818-23.149,30.49-25.26,59.85-68.561,71.886-105.96,11.223-34.874,25.225-86.19,7.542-122.563-14.9-30.643-52.65-31.206-80.039-28.348C1343.3,937.486,1306.167,950.172,1286.243,965.675Z" fill="none" stroke="#fff8e6" stroke-linecap="round" stroke-linejoin="round" stroke-width="0.962"/>
          <path id="Path_594" data-name="Path 594" d="M1282.437,947.981c-50.875,31.854-18.275,84.584-15.471,133.666,1.689,29.555,1.436,63.238,3.414,95.351.873,14.174-.251,32.99,4.424,46.708,2.747,8.057,7.4,14.572,14.641,18.393,22.618,11.936,59.414-7.478,78.944-21.875,37.005-27.28,65.891-74.969,81.6-117.471,15.239-41.235,38.291-103.763,19.918-148.161-15.725-38-61.723-36.775-94.728-33.6C1345.459,923.848,1306.666,932.811,1282.437,947.981Z" fill="none" stroke="#fff8e6" stroke-linecap="round" stroke-linejoin="round" stroke-width="1.809"/>
          <path id="Path_595" data-name="Path 595" d="M1278.631,930.288c-63.657,33.454-25.429,96.174-23.57,153.6,1.143,35.323-.238,72.781.384,109.384.265,15.58-1.982,37.261,2.716,53.978,2.658,9.454,7.5,17.413,15.782,22.245,25.628,14.955,69.927-5.763,92.069-20.6,43.566-29.194,71.972-81.343,91.311-128.982,19.308-47.56,51.39-121.334,32.293-173.758C1473.1,900.8,1418.829,903.9,1380.2,907.3,1347.624,910.28,1307.234,915.256,1278.631,930.288Z" fill="none" stroke="#fff8e6" stroke-linecap="round" stroke-linejoin="round" stroke-width="0.962"/>
          <path id="Path_596" data-name="Path 596" d="M1243.155,1086.13c.583,41.085-1.856,82.339-2.645,123.416-.506,26.36-8.289,70.9,17.93,87.345,28.648,17.968,80.446-4.015,105.2-19.327,50.149-31.025,78.074-87.691,101.024-140.492,23.409-53.859,64.508-138.9,44.668-199.357-17.3-52.7-79.864-47.854-124.1-44.11-35.444,3-77.344,3.981-110.4,18.989C1198.409,947.288,1242.222,1020.349,1243.155,1086.13Z" fill="none" stroke="#fff8e6" stroke-linecap="round" stroke-linejoin="round" stroke-width="0.962"/>
        </g>
        <g id="Group_172" data-name="Group 172">
          <path id="Path_597" data-name="Path 597" d="M1210.516,1400.421c10.983,5.279,31.845,13.474,50.3,15.467s34.5-2.215,35.841-21.741c1.369-19.9-18.406-29.126-41.581-33.364s-49.752-3.491-61.986-3.456c-22.9.064-31.935,4.4-28.546,11.943S1183.739,1387.552,1210.516,1400.421Z" fill="none" stroke="#fff8e6" stroke-linecap="round" stroke-linejoin="round" stroke-width="0.962"/>
          <path id="Path_598" data-name="Path 598" d="M1146.621,1350.591c6.8-8.954,20.414-27.043,45.5-26.055a30.122,30.122,0,0,1,10.263,2.277c8.642,3.535,12.121,10.6,21.317,14.97,15.784,7.506,38.512,5.393,56.172,11.059,22.639,7.264,40.346,20.028,40.634,41.322.264,19.592-11.412,29.439-26.405,34.013-19.922,15.385-62.4,17.615-85.022,3.384-9.084-5.713-22.305-19.544-34.906-23.331-14.284-4.293-33.7-3.719-42.344-16.141C1119.249,1374.007,1139.933,1359.4,1146.621,1350.591Z" fill="none" stroke="#fff8e6" stroke-linecap="round" stroke-linejoin="round" stroke-width="1.809"/>
          <path id="Path_599" data-name="Path 599" d="M1128.7,1331.913c15.243-11.317,35.179-41.925,62.447-40.167a30.056,30.056,0,0,1,13.823,4.6c11.974,7.305,12.5,21.368,23.877,29.809,20.077,14.9,52.728,9.048,75.819,18.746,22.319,9.375,37.637,26.588,39.685,49.28,1.774,19.652-6.737,33.9-16.968,46.284-24.869,30.112-85.606,45.623-119.747,22.236-13.038-8.855-34.626-34.306-55.517-39.442-22.6-5.556-56.73-.971-69.283-23.3C1066.032,1370.081,1111.974,1344.33,1128.7,1331.913Z" fill="none" stroke="#fff8e6" stroke-linecap="round" stroke-linejoin="round" stroke-width="0.962"/>
          <path id="Path_600" data-name="Path 600" d="M1033.846,1407.839c-21.143-41.681,50.276-78.969,76.934-94.6,28.538-16.739,60-74.17,96.782-47.355,15.252,11.12,12.85,32.161,26.436,44.648,24.3,22.338,67.2,12.2,95.466,26.433,40.379,20.331,49.127,76.481,31.2,115.794-22.86,50.143-108.751,73.528-154.472,41.087-16.967-12.038-46.945-49.093-76.128-55.553C1099.155,1431.445,1050.206,1440.089,1033.846,1407.839Z" fill="none" stroke="#fff8e6" stroke-linecap="round" stroke-linejoin="round" stroke-width="0.962" stroke-dasharray="5.466 3.644"/>
        </g>
        <g id="Group_173" data-name="Group 173">
          <path id="Path_601" data-name="Path 601" d="M1263.591,1403.922c20.721-2.892-4.97-30.751-14.421-23.7C1238.576,1388.116,1254.385,1405.207,1263.591,1403.922Z" fill="none" stroke="#fff8e6" stroke-linecap="round" stroke-linejoin="round" stroke-width="0.962"/>
        </g>
        <g id="Group_174" data-name="Group 174">
          <path id="Path_602" data-name="Path 602" d="M1347.733,1078.92c38.818-9.585,10.491-103.555-15.8-67.038C1326.4,1019.568,1339.393,1080.979,1347.733,1078.92Z" fill="none" stroke="#fff8e6" stroke-linecap="round" stroke-linejoin="round" stroke-width="0.962"/>
        </g>
        <g id="Group_175" data-name="Group 175">
          <path id="Path_603" data-name="Path 603" d="M1565.634,1361.6c9.521-6.468,15.326-21.495,17.15-37.179s-.335-32.027-6.741-41.129c-7.115-10.109-14.119-13.72-20.521-13.008s-12.2,5.746-16.906,12.925c-9.409,14.36-14.44,37.3-11.157,51.418,2.095,9.009,6.474,19.26,12.911,25.5S1555.3,1368.611,1565.634,1361.6Z" fill="none" stroke="#fff8e6" stroke-linecap="round" stroke-linejoin="round" stroke-width="1.809"/>
          <path id="Path_604" data-name="Path 604" d="M1529.063,1265.715c-6.413,12.536-13.806,23.97-20.172,36.9-3.88,7.878-4,14.056-3.854,22.505.137,7.777.931,15.559,1.624,22.821.369,3.892.495,7.642.68,11.232.456,8.667,1.064,17.388,5.876,25.867,4.432,7.809,10.349,14.856,15.923,21.378,5.125,6,10.984,13.273,19.3,13.306,9.433.037,19.345-8.658,27.047-16.116,10.377-10.049,17.493-23.223,21.592-38.589,3.934-14.746,5.677-30.726,6.01-46.785a324.483,324.483,0,0,0-1.736-38.888c-1.49-14.772-3.818-41.657-14.261-50.955-16.57-14.753-28.3,1.1-36.622,8.118C1542.46,1243.254,1535.321,1253.481,1529.063,1265.715Z" fill="none" stroke="#fff8e6" stroke-linecap="round" stroke-linejoin="round" stroke-width="0.962"/>
          <path id="Path_605" data-name="Path 605" d="M1519.51,1248.224c-8.86,19.246-20.737,34.67-31.247,52.994-6.682,11.648-6.083,19.876-5.21,32.741.761,11.213,2.573,22.579,3.681,33.269a143.086,143.086,0,0,1,.49,16.491c-.136,12.838-.572,25.494,6.935,37.968,6.667,11.16,15.827,21.1,23.751,31.018,7.3,9.14,15.629,21.7,28.463,21.052,14.384-.677,28.976-17.245,38.966-28.142,15.526-16.936,25.888-37.264,31.258-60.957,5.171-23.232,6.992-47.9,6.8-72.611-.169-20.218-1.683-40.457-3.806-59.953-2.136-20.26-4.423-65.729-21.449-78.6-25.859-19.556-42.519,15.839-52.721,29.245C1535.756,1215.427,1527.436,1231.006,1519.51,1248.224Z" fill="none" stroke="#fff8e6" stroke-linecap="round" stroke-linejoin="round" stroke-width="0.962"/>
          <path id="Path_606" data-name="Path 606" d="M1509.956,1230.733c-11.265,25.972-27.687,45.354-42.321,69.089-9.5,15.406-8.183,25.7-6.567,42.979,1.37,14.651,4.216,29.6,5.74,43.716a143.334,143.334,0,0,1,.3,21.75c-.726,17.009-2.188,33.59,7.995,50.069,8.918,14.5,21.305,27.345,31.579,40.658,9.471,12.278,20.275,30.1,37.627,28.8,19.335-1.413,38.561-25.864,50.884-40.169a180.96,180.96,0,0,0,40.924-83.325c6.452-31.706,8.307-65.082,7.582-98.437-.6-27.331-2.93-54.645-5.874-81.018-2.816-25.744-5.012-89.837-28.638-106.254-35.125-24.409-56.77,30.565-68.821,50.37C1529.025,1187.595,1519.582,1208.543,1509.956,1230.733Z" fill="none" stroke="#fff8e6" stroke-linecap="round" stroke-linejoin="round" stroke-width="0.962"/>
          <path id="Path_607" data-name="Path 607" d="M1500.4,1213.243c-13.652,32.7-34.645,56.028-53.4,85.184-12.321,19.159-10.29,31.524-7.923,53.215,1.974,18.092,5.858,36.617,7.8,54.164,1.018,9.221.656,18.208.107,27.009-1.317,21.179-3.805,41.685,9.054,62.17,11.17,17.842,26.783,33.59,39.407,50.3,11.644,15.416,24.92,38.5,46.791,36.546,24.286-2.149,48.128-34.491,62.8-52.2,25.6-30.881,42.767-65.322,50.591-105.694,7.731-40.179,9.621-82.26,8.367-124.262-1.033-34.444-4.177-68.834-7.942-102.083-3.495-31.228-5.594-113.959-35.826-133.9-44.386-29.282-71.033,45.3-84.921,71.5C1522.284,1159.765,1511.741,1186.083,1500.4,1213.243Z" fill="none" stroke="#fff8e6" stroke-linecap="round" stroke-linejoin="round" stroke-width="0.962"/>
          <path id="Path_608" data-name="Path 608" d="M1490.85,1195.752c-15.974,39.461-41.638,66.677-64.471,101.28-15.168,22.893-12.427,37.353-9.28,63.451,2.555,21.536,7.5,43.637,9.856,64.613,1.234,11,.71,21.729-.084,32.268-1.907,25.349-5.421,49.78,10.114,74.27,13.422,21.183,32.261,39.834,47.235,59.938,13.817,18.553,29.566,46.907,55.954,44.292,29.238-2.884,57.686-43.12,74.722-64.221,30.584-37.884,51.206-79.353,60.256-128.063,9.012-48.653,10.936-99.438,9.153-150.088-1.465-41.557-5.425-83.022-10.01-123.147-4.175-36.714-6.147-138.136-43.015-161.555-53.6-34.231-85.328,60.012-101.021,92.624C1515.512,1131.924,1503.95,1163.643,1490.85,1195.752Z" fill="none" stroke="#fff8e6" stroke-linecap="round" stroke-linejoin="round" stroke-width="1.809"/>
          <path id="Path_609" data-name="Path 609" d="M1642.327,953.891c-62.9-39.056-99.569,74.758-117.12,113.75-16.416,36.469-29.131,73.525-43.91,110.621-18.4,46.174-48.57,77.367-75.546,117.374-17.973,26.656-14.515,43.177-10.636,73.688,3.175,24.976,9.144,50.657,11.914,75.061,4.937,43.485-14.886,83.552,10.9,123.9,15.673,24.524,37.739,46.079,55.063,69.578,15.99,21.691,34.211,55.311,65.118,52.039,34.189-3.62,67.238-51.751,86.64-76.248,35.557-44.9,59.645-93.382,69.923-150.431,18.738-104.015,9.854-215.859-2.141-320.126C1687.676,1100.9,1685.777,980.868,1642.327,953.891Z" fill="none" stroke="#fff8e6" stroke-linecap="round" stroke-linejoin="round" stroke-width="0.962"/>
        </g>
        <g id="Group_176" data-name="Group 176">
          <path id="Path_610" data-name="Path 610" d="M1368.28,1338.471c-20.682.667-18.4-35.183,1.334-37.256C1373.132,1308.446,1388.962,1337.8,1368.28,1338.471Z" fill="none" stroke="#fff8e6" stroke-linecap="round" stroke-linejoin="round" stroke-width="0.962"/>
        </g>
        <g id="Group_177" data-name="Group 177">
          <path id="Path_611" data-name="Path 611" d="M1446.1,1800.7c7.822,10.317,9.531,18.923,7.238,26.03s-8.586,12.717-16.77,17.042c-16.368,8.649-40.3,12.159-54.892,12.24-12.348.068-31.923-9.352-42.84-20.838s-13.176-25.039,9.108-33.236c9.041-3.326,30.638-7.515,51.446-8.934S1440.212,1792.942,1446.1,1800.7Z" fill="none" stroke="#fff8e6" stroke-linecap="round" stroke-linejoin="round" stroke-width="0.962"/>
          <path id="Path_612" data-name="Path 612" d="M1326.637,1760.785c5.842-3.73,22.44-4.935,33.017-6.18,16.63-1.958,28.806,5.033,41.957,11.005,17.551,7.971,36.24,17.117,52.883,24.531,5.693,2.536,10.9,4.854,14.653,8.332a41.849,41.849,0,0,1,5.45,6.079c8.483,11.662,10.237,24.864,10.078,35.811-.248,17.157-4.818,28.859-18.95,41.018-22.773,19.595-52.858,26.159-80.266,24.235-24.36-1.78-63.139-15.7-72.74-43.1-2.776-7.921-1.278-15.489-.9-23.188.573-11.638,1.371-23.931,2.6-35.736.74-7.1-.361-9.99-1.227-15.654-.918-6.005,4.394-11.277,7.822-17.227C1322.541,1768.068,1323.535,1762.765,1326.637,1760.785Z" fill="none" stroke="#fff8e6" stroke-linecap="round" stroke-linejoin="round" stroke-width="0.962"/>
          <path id="Path_613" data-name="Path 613" d="M1305.334,1719.628c7.332-5.627,32.987-6.219,45.186-7.261,24.06-2.055,37.609,13.031,53.316,25.847,20.508,16.732,43.7,34.706,67.717,46.688,7.5,3.743,14.863,6.729,20.645,11.341a47.619,47.619,0,0,1,8.026,8.015c11.555,14.869,14.477,34.023,15.793,49.734,2.282,27.265-1.235,44.729-21.13,65-29.5,30.054-65.421,40.157-105.641,36.229-36.372-3.629-93.456-22.539-102.64-65.356-2.874-13.4,1.757-25.743,4.037-38.466a417.838,417.838,0,0,0,6.158-57.912c.437-12.359-3.167-16.319-6.694-25.946-3.822-10.435,4.78-19.405,8.676-30.021C1300.458,1732.953,1300.876,1723.05,1305.334,1719.628Z" fill="none" stroke="#fff8e6" stroke-linecap="round" stroke-linejoin="round" stroke-width="1.809"/>
          <path id="Path_614" data-name="Path 614" d="M1284.032,1678.472c8.859-7.49,43.536-7.453,57.355-8.343,31.5-2.029,46.463,20.993,64.674,40.688,23.533,25.449,51.187,52.24,82.55,68.846,9.322,4.935,18.815,8.617,26.639,14.35a55.719,55.719,0,0,1,10.6,9.952c14.606,18.093,18.783,43.154,21.507,63.656,4.959,37.33,2.259,60.532-23.31,88.973-36.351,40.433-77.983,54.156-131.015,48.224-48.383-5.477-123.584-29.335-132.539-87.615-2.9-18.877,4.772-36.011,8.972-53.743a362.508,362.508,0,0,0,9.715-80.09c.108-17.611-5.978-22.622-12.16-36.238-6.737-14.837,5.2-27.535,9.529-42.815C1278.388,1697.835,1278.245,1683.364,1284.032,1678.472Z" fill="none" stroke="#fff8e6" stroke-linecap="round" stroke-linejoin="round" stroke-width="0.962" stroke-dasharray="5.466 3.644"/>
          <path id="Path_615" data-name="Path 615" d="M1262.729,1637.315c10.405-9.342,54.085-8.663,69.525-9.424,38.933-1.918,55.345,28.951,76.032,55.529,26.593,34.163,58.693,69.749,97.384,91,11.144,6.122,22.762,10.514,32.631,17.359a64.53,64.53,0,0,1,13.178,11.889c17.648,21.326,23.109,52.27,27.22,77.579,7.693,47.367-7.756,70.4-38.957,107.041-43.249,50.79-77.078,74.063-142.922,66.127-60.395-7.326-153.649-36.1-162.439-109.874-2.9-24.345,7.782-46.286,13.908-69.02a383.747,383.747,0,0,0,13.272-102.268c-.23-22.861-8.788-28.916-17.626-46.529-9.651-19.232,5.626-35.671,10.382-55.61C1256.322,1662.714,1255.629,1643.689,1262.729,1637.315Z" fill="none" stroke="#fff8e6" stroke-linecap="round" stroke-linejoin="round" stroke-width="0.962"/>
          <path id="Path_616" data-name="Path 616" d="M1241.426,1596.159c11.961-11.191,64.632-9.863,81.695-10.506,46.369-1.747,64.29,36.876,87.391,70.37,29.732,42.836,66.248,87.171,112.217,113.162,12.98,7.285,26.695,12.433,38.624,20.368a74.446,74.446,0,0,1,15.753,13.825c20.66,24.588,27.445,61.378,32.934,91.5,10.456,57.39,9.139,92.076-27.67,136.927-50.173,61.138-103.108,82.153-181.763,72.214-72.407-9.175-183.687-42.842-192.339-132.134-2.888-29.809,10.757-56.573,18.845-84.3,11.519-39.838,17.61-82.786,16.828-124.445-.616-28.108-11.626-35.191-23.092-56.82-12.6-23.607,6.1-43.8,11.235-68.4C1234.273,1627.6,1233.021,1604.022,1241.426,1596.159Z" fill="none" stroke="#fff8e6" stroke-linecap="round" stroke-linejoin="round" stroke-width="0.962"/>
          <path id="Path_617" data-name="Path 617" d="M1226.321,1753.032c-.917-33.358-14.407-41.5-28.558-67.112-15.478-28.014,6.493-51.95,12.088-81.2,2.342-12.251.568-40.364,10.272-49.719,13.523-13.037,75.177-11.054,93.865-11.587,53.8-1.532,73.144,44.874,98.749,85.211,32.756,51.6,73.73,104.73,127.05,135.32,21.836,12.527,45.986,19.262,62.946,39.139,23.724,27.8,31.786,70.48,38.648,105.425,13.235,67.4,12.552,107.835-29.849,160.9-57.115,71.482-115.671,96.151-207.138,84.208-84.418-11.023-213.712-49.573-222.239-154.393-2.869-35.269,13.8-66.843,23.781-99.575C1220.238,1852.767,1227.67,1802.162,1226.321,1753.032Z" fill="none" stroke="#fff8e6" stroke-linecap="round" stroke-linejoin="round" stroke-width="1.809"/>
        </g>
        <g id="Group_178" data-name="Group 178">
          <path id="Path_618" data-name="Path 618" d="M1198.785,1782.634a2.277,2.277,0,0,0,4.173-.995c2.579-21.566-14.9-82.437-28.743-57.353C1163.794,1743.162,1189.026,1767.675,1198.785,1782.634Z" fill="none" stroke="#fff8e6" stroke-linecap="round" stroke-linejoin="round" stroke-width="0.962"/>
        </g>
        <g id="Group_179" data-name="Group 179">
          <path id="Path_619" data-name="Path 619" d="M1379.878,1490.345c10.364,3.41,14.541,13.77.765,33.018l-.011.016c-14.072,19.63-52.221,13.188-49.81-4.885,0-.006-.011-.006-.015-.017C1331.792,1496.879,1363.531,1484.968,1379.878,1490.345Z" fill="none" stroke="#fff8e6" stroke-linecap="round" stroke-linejoin="round" stroke-width="0.962"/>
        </g>
        <g id="Group_180" data-name="Group 180">
          <path id="Path_620" data-name="Path 620" d="M750.4,1341.075c-16.679-3.881-34.9-9.222-52.109-8.945-8.066.13-12.323,3.794-18.288-1.954-8.806-8.486-4.923-35.978,3.1-43.668,10.963-10.514,28.892,5.774,36.906,12.648,14.911,12.792,29.933,21.054,48.534,27.829,14.254,5.191,29.7,6.611,35.957,22.694C786.063,1357,770.168,1345.675,750.4,1341.075Z" fill="none" stroke="#fff8e6" stroke-linecap="round" stroke-miterlimit="10" stroke-width="0.962"/>
          <path id="Path_621" data-name="Path 621" d="M668.291,1265.534c9.412-19.593,26.155-4.1,39.169,7.752,5,4.546,9.432,8.6,13.161,11.777,16.861,14.378,31.239,21.739,54.345,36.14,5.4,3.366,12.833,6.532,20.731,9.624,10.458,4.082,21.678,7.4,30.066,10.651,12.686,4.916,21.3,12.843,25.042,25.425-11.712,16.039-55.431-2.663-83.325-11.416-23.372-7.334-48.887-17.306-73.813-14-1.821.235-3.632.529-5.441.826-10.861,1.782-18.388,4.936-28.36,2.719-13.125-2.919-12.749-9.359-8.848-22.044C657.112,1303.179,660.6,1281.536,668.291,1265.534Z" fill="none" stroke="#fff8e6" stroke-linecap="round" stroke-miterlimit="10" stroke-width="1.809"/>
          <path id="Path_622" data-name="Path 622" d="M653.481,1244.559c11.355-31.336,32.871-6.974,50.077,10.014,6.585,6.5,12.453,11.957,17.677,16.4,22.608,19.221,40.45,26.431,73.724,49.964,6.545,4.629,16.833,9.277,27.893,13.735,14.336,5.767,29.956,10.773,40.649,14.71,18.318,6.744,29.486,18.242,33.61,34.748-4.989,24.76-76.489-1.461-112.554-14.228-31.192-11.174-65.407-26.128-99.13-19.067-2.434.5-4.851,1.084-7.268,1.674-13.664,3.334-25.222,7.873-38.431,7.391-23.67-.863-21.015-10.252-12.725-29.448C639.4,1301.743,643.6,1271.827,653.481,1244.559Z" fill="none" stroke="#fff8e6" stroke-linecap="round" stroke-miterlimit="10" stroke-width="0.962"/>
          <path id="Path_623" data-name="Path 623" d="M638.671,1223.585c13.391-43.082,39.587-9.849,60.985,12.275,8.174,8.448,15.473,15.315,22.194,21.017,28.353,24.064,49.832,30.911,93.1,63.789,7.714,5.862,20.833,12.021,35.055,17.845,18.213,7.453,38.244,14.114,51.231,18.769,23.971,8.51,37.676,23.642,42.179,44.071,1.734,33.48-97.569-.189-141.784-17.041-39.03-14.956-81.927-34.949-124.448-24.138-3.046.771-6.072,1.632-9.095,2.522-16.479,4.85-31.828,11.035-48.5,12.064-34,2.1-29.319-11.18-16.6-36.853C621.637,1300.257,626.692,1262.125,638.671,1223.585Z" fill="none" stroke="#fff8e6" stroke-linecap="round" stroke-miterlimit="10" stroke-width="0.962" stroke-dasharray="5.466 3.644"/>
          <path id="Path_624" data-name="Path 624" d="M578.972,1345.361c-17.159,32.134-23.682,49.687,20.478,44.257,24.086-2.961,46.36-13.541,69.495-20.106,51.32-14.561,102.9,10.472,149.766,29.21,52.365,20.935,179.471,62.053,171.013,19.854-4.881-24.354-21.144-43.061-50.747-53.4-27.328-9.541-83.828-28.7-104.031-44.783-65.971-52.534-88.914-49.691-139.192-103.251-25.591-27.261-56.434-69.374-71.892-14.537C609.82,1252.421,603.861,1298.749,578.972,1345.361Z" fill="none" stroke="#fff8e6" stroke-linecap="round" stroke-miterlimit="10" stroke-width="0.962"/>
        </g>
        <g id="Group_181" data-name="Group 181">
          <path id="Path_625" data-name="Path 625" d="M311,1719.829c9.82,33.665-28.68,58.926-51.99,71.023-7.664,3.978-48.391,28.689-56.7,21.465-16-13.905,14.363-69.173,14.5-86.755.215-28.049-16.8-101.521,32.953-80.75C274.749,1655.245,303.445,1693.957,311,1719.829Z" fill="none" stroke="#fff8e6" stroke-linecap="round" stroke-miterlimit="10" stroke-width="0.962"/>
          <path id="Path_626" data-name="Path 626" d="M270.586,1605.356c14.652,10.223,27.922,16.108,44.188,24.995,14.112,7.659,28.14,21.365,28.457,37.212.292,14.609.4,24.691-1.382,38.358-1.841,14.144-7.421,32.562-6.6,46.579.928,15.78,4.578,23.573,5.83,34.032,1.649,13.765-40.4,31.887-58.27,36.526-9.293,2.412-22.4,5.168-37.457,7.48-15.174,2.329-31.168,6.837-39.825,2.421-13.664-6.968-19.554-22.35-18.292-42.869,1.75-30.385,11.9-66.016,12.484-88.183.5-20.248-1-46.934,3.38-70.958,2.024-11.114,5.855-23.408,12.373-29.95,4.4-4.413,6.583-5.284,11.051-6.141,5.261-1.009,11.852-3.542,18.882-2.283C253.451,1594.017,261.5,1599.017,270.586,1605.356Z" fill="none" stroke="#fff8e6" stroke-linecap="round" stroke-miterlimit="10" stroke-width="0.962"/>
          <path id="Path_627" data-name="Path 627" d="M291.415,1565.9c19.912,17.024,36.963,20.719,60.54,29.054,20.518,7.2,41.777,25.041,36.214,47.413-4.886,19.65-9.21,30.453-15.471,49.647-6.11,18.731-16.2,46.8-11.367,66.719,5.718,23.56,17.4,31.509,28.01,46.346,12.269,17.16-57.3,45.665-82.725,50.185-14.922,2.653-29.355,1.637-47.659.433-17.811-1.172-37.156,3.065-50.2-2.095-20.845-8.243-33.761-26.551-34.914-53.569-1.865-40.315,7.717-87.879,8.8-121.782.91-29.592.333-65.2,9.386-96.822,4.086-14.272,11.575-31.081,22.821-37.9,7.987-4.845,10.7-3.517,17.889-2.2,7.715,1.416,17.495-.589,26.61,2.448C270.672,1547.552,280.622,1556.673,291.415,1565.9Z" fill="none" stroke="#fff8e6" stroke-linecap="round" stroke-miterlimit="10" stroke-width="0.962"/>
          <path id="Path_628" data-name="Path 628" d="M312.243,1526.444c25.018,23.974,46,25.331,76.893,33.113,26.924,6.736,55.547,28.809,43.971,57.613-9.956,24.774-18.714,36.287-29.56,60.937-10.289,23.384-24.909,60.994-16.138,86.859,10.6,31.275,30.082,39.985,50.19,58.661,22.825,21.2-74.192,59.333-107.181,63.843-20.553,2.811-36.318-1.8-57.859-6.614-20.459-4.576-43.157-.671-60.58-6.611-28.044-9.458-47.968-30.751-51.536-64.269-5.481-50.246,3.532-109.742,5.118-155.38,1.323-38.937,1.616-83.492,15.391-122.687,6.129-17.438,17.306-38.671,33.269-45.854,11.588-5.214,14.893-1.849,24.729,1.748,10.262,3.753,23.107,2.416,34.337,7.179C287.854,1501.161,299.668,1514.394,312.243,1526.444Z" fill="none" stroke="#fff8e6" stroke-linecap="round" stroke-miterlimit="10" stroke-width="1.809"/>
          <path id="Path_629" data-name="Path 629" d="M333.072,1486.989c30.031,30.99,55.046,29.941,93.244,37.171,33.331,6.274,69.351,32.637,51.729,67.814-15,29.949-28.186,42.162-43.649,72.226-14.443,28.078-33.6,75.153-20.91,107,15.519,38.953,42.85,48.594,72.37,70.975,33.508,25.4-91.078,72.961-131.635,77.5-26.183,2.932-43.315-5.175-68.061-13.661-23.138-7.934-49.144-4.439-70.957-11.127-35.222-10.726-62.175-34.952-68.158-74.97-9.1-60.175-.654-131.6,1.435-188.977,1.736-48.283,2.879-101.8,21.4-148.552,8.163-20.61,23.024-46.23,43.717-53.806,15.182-5.559,19.132-.192,31.567,5.693,12.859,6.085,28.7,5.437,42.065,11.91C305.009,1454.8,318.678,1472.134,333.072,1486.989Z" fill="none" stroke="#fff8e6" stroke-linecap="round" stroke-miterlimit="10" stroke-width="0.962"/>
          <path id="Path_630" data-name="Path 630" d="M353.9,1447.533c34.986,38.04,64.087,34.552,109.6,41.23,39.737,5.813,83.161,36.5,59.486,78.014-20.046,35.152-37.644,48.064-57.739,83.516-18.589,32.8-42.279,89.3-25.68,127.14,20.445,46.613,56.306,94.706,99.427,116.789,49.854,25.531-112.1,58.332-160.967,57.661-31.951-.439-50.341-8.531-78.263-20.709-25.844-11.272-55.131-8.207-81.334-15.643-42.4-11.994-76.382-39.153-84.781-85.67-12.71-70.106-4.838-153.467-2.247-222.575,2.149-57.628,4.075-120.132,27.4-174.417,10.168-23.8,28.733-53.774,54.165-61.758,18.771-5.893,23.389,1.466,38.406,9.637,15.475,8.421,34.282,8.466,49.792,16.641C322.149,1408.45,337.666,1429.881,353.9,1447.533Z" fill="none" stroke="#fff8e6" stroke-linecap="round" stroke-miterlimit="10" stroke-width="0.962"/>
          <path id="Path_631" data-name="Path 631" d="M114.318,1583.631c2.563-66.973,5.377-138.426,33.409-200.282,12.22-26.965,21.5-71.173,51.676-79.57,22.357-6.222,65.14,4.223,82.729,14.677,18.1,10.76,32.375,14.81,50.037,24.685,24.175,13.517,24.473,44.489,42.561,64.936,39.9,45.11,73.128,39.164,125.947,45.289,46.143,5.351,96.974,40.376,67.244,88.214-25.09,40.372-47.1,53.981-71.828,94.806-22.732,37.526-50.959,103.429-30.451,147.281,25.376,54.261,68.515,65.888,116.729,95.6,55.042,33.922-124.832,100.17-180.545,104.819-37.434,3.123-57.389-11.874-88.464-27.755-28.571-14.6-61.118-11.976-91.711-20.16-49.58-13.262-90.589-43.354-101.4-96.37C103.923,1759.768,111.225,1664.473,114.318,1583.631Z" fill="none" stroke="#fff8e6" stroke-linecap="round" stroke-miterlimit="10" stroke-width="0.962" stroke-dasharray="5.466 3.644"/>
          <path id="Path_632" data-name="Path 632" d="M112.783,1598.976c2.444-66.974,5.128-138.426,31.861-200.282,11.653-26.965,32.841-61.313,61.618-69.71,21.321-6.221,26.375,3.127,43.149,13.581,17.264,10.76,38.01,11.5,54.854,21.372,23.055,13.517,39.614,39.038,56.863,59.485,38.055,45.11,69.74,39.164,120.112,45.289,44.005,5.351,92.48,40.375,64.127,88.214-23.927,40.372-44.915,53.981-68.5,94.8-21.679,37.527-48.6,103.43-29.04,147.281,24.2,54.262,65.34,65.889,111.32,95.6,52.491,33.922-119.047,100.17-172.179,104.818-35.7,3.124-54.73-11.874-84.365-27.755-27.247-14.6-58.286-11.975-87.461-20.159-47.283-13.262-86.391-43.354-96.7-96.37C102.87,1775.113,109.834,1679.818,112.783,1598.976Z" fill="none" stroke="#fff8e6" stroke-linecap="round" stroke-miterlimit="10" stroke-width="0.939"/>
        </g>
        <g id="Group_182" data-name="Group 182">
          <path id="Path_633" data-name="Path 633" d="M818.318,2158.882c-10.215-4.038-26.083-4.124-37.528.244-5.723,2.184-10.34,5.482-12.592,9.957s-2.139,10.126,1.6,17.017c4.946,9.121,14.545,17.014,25.15,20.975s22.216,3.99,31.183-2.62c8.788-6.476,11.056-16.2,9.017-25.141S826.761,2162.219,818.318,2158.882Z" fill="none" stroke="#fff8e6" stroke-linecap="round" stroke-miterlimit="10" stroke-width="0.962"/>
          <path id="Path_634" data-name="Path 634" d="M723.043,2141.752c5.042-4.008,9.325-9.173,15.031-13.012,5.418-3.639,11.576-6.421,16.646-10.821,2.735-2.375,4.48-6.16,7.825-7.8,8.849-4.348,30.392-3.571,39.268-.122,6.314,2.454,10.533,8.078,15.367,12.155a138.669,138.669,0,0,0,17.555,12.58c9.1,5.522,18.027,11.291,27.235,16.441,13.6,7.591,26.255,16.648,29.6,33.693,5.68,28.985-33.772,40.217-54.378,47.682-21.4,7.677-44.971,8.3-67.863,5.758-17.647-1.956-35.29-4.51-52.244-10.44-10.587-3.7-30.737-9.553-34.894-22.087-3.2-9.641,5.865-17.8,9.7-23.972C700.492,2167.981,709.346,2152.64,723.043,2141.752Z" fill="none" stroke="#fff8e6" stroke-linecap="round" stroke-miterlimit="10" stroke-width="0.962"/>
          <path id="Path_635" data-name="Path 635" d="M681.1,2114.25c8.775-5.827,15.658-14,24.789-19.975,8.741-5.715,18.554-10,25.972-17.735,4.054-4.225,6.1-11.268,11.248-14.2,12.726-7.237,50.155-4.931,62.573,1.614,9.559,5.038,15.04,15.89,21.922,23.531a136.17,136.17,0,0,0,26.76,22.916c14.757,9.728,29.548,19.081,45.376,26.71,23.41,11.27,45.987,24.348,51.46,53.126,9.32,49.028-67.315,61.768-99.739,70.222-33.828,8.743-69.505,10.815-104.544,8.9-30.889-1.691-61.711-5.182-91.852-13.952-18.056-5.253-55.582-14.231-61.6-36.459-4.679-17.284,14.427-31.684,23.737-41.612C637.074,2156.146,655.629,2131.168,681.1,2114.25Z" fill="none" stroke="#fff8e6" stroke-linecap="round" stroke-miterlimit="10" stroke-width="1.809"/>
          <path id="Path_636" data-name="Path 636" d="M639.185,2086.6c12.505-7.67,21.99-18.825,34.546-26.938,12.064-7.79,25.509-13.605,35.3-24.648,5.36-6.086,7.723-16.366,14.67-20.59,16.621-10.106,69.877-6.253,85.879,3.349,12.771,7.662,19.538,23.7,28.475,34.906a161.76,161.76,0,0,0,35.966,33.253c20.424,13.915,41.07,26.87,63.517,36.979,33.22,14.949,65.72,32.048,73.323,72.558,12.96,69.073-100.858,83.321-145.1,92.764-46.257,9.809-94.015,13.421-141.225,12.034-44.119-1.3-88.131-5.887-131.46-17.464-25.524-6.82-80.387-18.917-88.306-50.832-6.13-24.932,22.991-45.644,37.767-59.252C573.726,2144,601.909,2109.466,639.185,2086.6Z" fill="none" stroke="#fff8e6" stroke-linecap="round" stroke-miterlimit="10" stroke-width="0.962"/>
          <path id="Path_637" data-name="Path 637" d="M597.275,2058.866c16.237-9.522,28.323-23.652,44.3-33.9,15.388-9.866,32.486-17.185,44.626-31.56,6.678-7.937,9.351-21.461,18.092-26.984,20.523-12.968,89.581-7.564,109.185,5.084,15.966,10.3,24.013,31.534,35.029,46.282a191.042,191.042,0,0,0,45.171,43.589c26.09,18.1,52.592,34.66,81.658,47.248,43.031,18.628,85.452,39.748,95.185,91.991,16.6,89.117-134.4,104.872-190.46,115.3A904.673,904.673,0,0,1,702.16,2331.09c-57.342-.852-114.524-6.713-171.068-20.975-32.978-8.457-105.237-23.591-115.013-65.2-7.614-32.572,31.565-59.625,51.8-76.893C510.415,2131.716,548.2,2087.646,597.275,2058.866Z" fill="none" stroke="#fff8e6" stroke-linecap="round" stroke-miterlimit="10" stroke-width="0.962" stroke-dasharray="5.466 3.644"/>
          <path id="Path_638" data-name="Path 638" d="M555.367,2031.069c19.948-11.416,34.656-28.478,54.062-40.865,18.711-11.942,39.463-20.766,53.952-38.474,8-9.786,10.992-26.538,21.515-33.377,24.45-15.792,109.276-8.87,132.491,6.819,19.152,12.944,28.515,39.341,41.583,57.658a223.007,223.007,0,0,0,54.376,53.925c31.756,22.289,64.114,42.45,99.8,57.518,52.84,22.307,105.184,47.448,117.047,111.423,20.242,109.162-167.943,126.424-235.821,137.845-71.117,11.942-143,18.7-214.586,18.31-70.561-.383-140.957-7.378-210.676-24.487-40.456-10-130.085-28.265-141.719-79.576-9.1-40.212,40.144-73.613,65.83-94.533C447.119,2119.358,494.415,2065.632,555.367,2031.069Z" fill="none" stroke="#fff8e6" stroke-linecap="round" stroke-miterlimit="10" stroke-width="1.809"/>
          <path id="Path_639" data-name="Path 639" d="M513.461,2003.255c23.7-13.232,40.989-33.3,63.819-47.828,22.035-14.018,46.44-24.347,63.279-45.387,9.314-11.636,12.614-31.644,24.938-39.771,28.335-18.684,128.964-10.175,155.8,8.555,22.334,15.59,33.018,47.148,48.137,69.034a255.685,255.685,0,0,0,63.582,64.261c37.421,26.475,96.705,27.207,117.94,67.787,71.811,137.225,122.532,18.152,136.526,93.859,23.882,129.206-199.1,184.973-278.8,197.382-83.547,13.009-167.488,21.349-251.266,21.448s-167.392-8.043-250.284-28C359.2,2353.057,252.2,2331.658,238.7,2270.648c-10.581-47.851,48.725-87.6,79.862-112.173C383.833,2106.975,440.768,2043.836,513.461,2003.255Z" fill="none" stroke="#fff8e6" stroke-linecap="round" stroke-miterlimit="10" stroke-width="0.962"/>
        </g>
        <g id="Group_183" data-name="Group 183">
          <path id="Path_640" data-name="Path 640" d="M1231.8,2216.011c.359-69.273-72.229-117.059-123.971-143.292-12.84-6.512-88.773-28.372-59.428-50.222,11.742-8.743,38.656-.662,54.143-8.163,17.415-8.435,28.481-27.065,50.6-20.174,3.3,55.771,19.726,85.653,60.516,125.4,33.874,33.008,80.083,47.452,125.194,56.823,69.5,14.438,143.8-4.313,211.424,12,55.687,13.437,51.36,70,8.117,98.611-57.391,37.969-137.461,20.513-201.656,20.983-28.786.212-112,22.655-134.089-3.35C1204.746,2283.562,1231.668,2240.356,1231.8,2216.011Z" fill="none" stroke="#fff8e6" stroke-linecap="round" stroke-miterlimit="10" stroke-width="0.962" stroke-dasharray="5.466 3.644"/>
        </g>
        <g id="Group_184" data-name="Group 184">
          <path id="Path_641" data-name="Path 641" d="M1501.187,2228.739c2.665,39.946-88.558,35.45-113.026,34.6-13.847-.483-124.47-1.3-92.287-32.735,19.817-19.352,79.447-12.5,107.457-15.406C1422.176,2213.24,1499.415,2202.163,1501.187,2228.739Z" fill="none" stroke="#fff8e6" stroke-linecap="round" stroke-miterlimit="10" stroke-width="1.809"/>
        </g>
        <g id="Group_185" data-name="Group 185">
          <path id="Path_642" data-name="Path 642" d="M314.572,2005.386c21.505,3.031,54.708-11.51,57.633,21.617,3.308,37.469-74.679,86.642-102.916,100.426-19.048,9.3-51.927,17.226-69.592.2-20.458-19.719-2.259-47.99,5.878-69.337,7.931-20.808.381-55.329,19.023-71.061C251.59,1964.449,287.184,2001.523,314.572,2005.386Z" fill="none" stroke="#fff8e6" stroke-linecap="round" stroke-miterlimit="10" stroke-width="0.962"/>
        </g>
        <g id="Group_186" data-name="Group 186">
          <path id="Path_643" data-name="Path 643" d="M239.363,2090.192c-8.346-10.746,7.41-51.569,18.083-55.865,14.072-5.664,49.227,11.385,45.774,30.091-2.386,12.927-52.292,40.6-63.839,25.8Z" fill="none" stroke="#fff8e6" stroke-linecap="round" stroke-miterlimit="10" stroke-width="0.962"/>
        </g>
        <g id="Group_187" data-name="Group 187">
          <path id="Path_644" data-name="Path 644" d="M134.618,2068.176c-8.347-10.746,7.409-51.569,18.083-55.866,14.072-5.663,49.227,11.385,45.774,30.091-2.386,12.927-52.292,40.6-63.839,25.8Z" fill="none" stroke="#fff8e6" stroke-linecap="round" stroke-miterlimit="10" stroke-width="0.962"/>
        </g>
        <g id="Group_188" data-name="Group 188">
          <path id="Path_645" data-name="Path 645" d="M324.272,1225.913c14.748-32.342,17.149-69.958,34.394-102.879,20.029-38.235,56.608-48.52,96.829-52.72,27.471-2.869,45.5-12.929,70.811-18.284,18.407-3.894,52.089,15.289,67.351.719,14.345-13.694-.4-84.928-8.572-101.329-47.526-95.394-225.69-81.888-306.637-54.454-119.515,40.505-94.442,180.973-54.946,272.169,9.253,21.38,2.553,65.206,19.565,81.583C264.687,1271.533,312.812,1251.042,324.272,1225.913Z" fill="none" stroke="#fff8e6" stroke-linecap="round" stroke-miterlimit="10" stroke-width="0.962"/>
        </g>
        <g id="Group_189" data-name="Group 189">
          <path id="Path_646" data-name="Path 646" d="M244.193,947.274c-23.585,28.7-8.4,92.074-4.395,127.134,3.478,30.476,13.681,79.726,46.341,37.532,35.368-45.7,66.793-67.387,126.23-78.954,34.9-6.792,175.125-9.9,114.587-81.167C494.829,914,433.1,918.747,389.113,918.048,345.073,917.349,276.321,908.171,244.193,947.274Z" fill="none" stroke="#fff8e6" stroke-linecap="round" stroke-miterlimit="10" stroke-width="0.962" stroke-dasharray="5.466 3.644"/>
        </g>
        <g id="Group_190" data-name="Group 190">
          <path id="Path_647" data-name="Path 647" d="M320.8,1152.1c-10.493-2.975-63.764,17.53-68.807,27.124-11.75,22.352,17.778,45.761,37.151,33.785C305.738,1202.753,324.438,1172.655,320.8,1152.1Z" fill="none" stroke="#fff8e6" stroke-linecap="round" stroke-miterlimit="10" stroke-width="0.962"/>
        </g>
        <g id="Group_191" data-name="Group 191">
          <path id="Path_648" data-name="Path 648" d="M336.992,957.987c-25.991-.168-37.115.789-52.176,22.17-11.2,15.9-24.89,43.473-8.085,60.3,16.4,16.422,49.548-20.883,64.726-27.215,21.191-8.84,103.751-1.512,103.424-32.219C444.5,945.353,355.519,958.107,336.992,957.987Z" fill="none" stroke="#fff8e6" stroke-linecap="round" stroke-miterlimit="10" stroke-width="0.962"/>
        </g>
      </g>
    </g>
  </g>
</svg>
