<svg xmlns="http://www.w3.org/2000/svg" width="7.151" height="18.693" viewBox="0 0 7.151 18.693">
  <g id="Group_294" data-name="Group 294" transform="translate(-1930.457 -3440.401)">
    <g id="Group_293" data-name="Group 293">
      <g id="Group_292" data-name="Group 292">
        <path id="Path_918" data-name="Path 918" d="M1934.89,3458.883a1.9,1.9,0,0,1-.713-.168,5.464,5.464,0,0,1-2.865-3.248,13.263,13.263,0,0,1-.64-4.342,5.948,5.948,0,0,1,.681-3.406,14.847,14.847,0,0,0,1.55-3.283h0c.07-.221.135-.445.2-.669a8.372,8.372,0,0,1,.962-2.368,1.394,1.394,0,0,1,1.358-.763,1.475,1.475,0,0,1,.834.681,6.115,6.115,0,0,1,1.02,2.719,12.1,12.1,0,0,1-.032,2.4,13.439,13.439,0,0,0-.058,2.124c.021.268.06.54.1.8a7.361,7.361,0,0,1,.107,1.509,7.276,7.276,0,0,1-.19,1.111c-.059.262-.119.533-.156.8a9.736,9.736,0,0,0-.056,1.407c0,.359.006.732-.022,1.1a6.544,6.544,0,0,1-.728,2.526,1.752,1.752,0,0,1-1.17,1.054A1.213,1.213,0,0,1,1934.89,3458.883Z" fill="#FFF9E6" stroke="#FFF9E6" stroke-miterlimit="10" stroke-width="0.422"/>
      </g>
    </g>
  </g>
</svg>
