<svg xmlns="http://www.w3.org/2000/svg" viewBox="0 0 132.675 35"><defs><style>.a{fill:#231f20;}</style></defs><g transform="translate(-2449.629 -52.499)"><path class="a" d="M2516.533,53.932a4.4,4.4,0,0,0-3.319-1.433c-5.191,0-9.814,7.624-15.165,16.451a115.182,115.182,0,0,1-6.821,10.444c-2.759,3.531-4.244,4.06-4.884,4.06a.371.371,0,0,1-.344-.129c-1.381-1.5-.8-8.516-.419-13.159.593-7.207,1.106-13.43-1.475-16.234a4.394,4.394,0,0,0-3.32-1.433c-5.191,0-9.811,7.624-15.165,16.451a114.973,114.973,0,0,1-6.821,10.444l0,0c-.14.179-.277.359-.414.543-2.33,2.931-6.474,6.1-8.475,4.458a.173.173,0,0,0-.265.2,5.655,5.655,0,0,0,.955,1.463,4.393,4.393,0,0,0,3.317,1.433c2.554,0,4.974-1.847,7.409-4.775.037-.047.077-.092.115-.14a104.883,104.883,0,0,0,7.643-11.536A115.244,115.244,0,0,1,2475.9,60.6c2.756-3.531,4.242-4.059,4.882-4.059a.371.371,0,0,1,.344.129c1.381,1.5.8,8.516.419,13.159-.593,7.207-1.1,13.43,1.477,16.234a4.389,4.389,0,0,0,3.318,1.433c5.193,0,9.814-7.624,15.164-16.451a116.512,116.512,0,0,1,6.821-10.445c2.221-3.059,6.764-6.745,8.892-5.006a.169.169,0,0,0,.264-.2,5.623,5.623,0,0,0-.952-1.466"/><path class="a" d="M2581.339,53.932a4.405,4.405,0,0,0-3.32-1.433c-5.191,0-9.814,7.624-15.165,16.451a115.078,115.078,0,0,1-6.821,10.444c-2.758,3.531-4.244,4.06-4.884,4.06a.372.372,0,0,1-.344-.129c-1.381-1.5-.8-8.516-.419-13.159.593-7.207,1.107-13.43-1.475-16.234a4.39,4.39,0,0,0-3.317-1.433c-5.194,0-9.817,7.626-15.17,16.453a.009.009,0,0,1-.01,0c-.005,0-.01,0-.015,0a115.463,115.463,0,0,1-6.816,10.434c-2.756,3.531-4.244,4.06-4.884,4.06a.368.368,0,0,1-.342-.129c-1.38-1.5-.8-8.329-.418-12.975.438-5.336.834-8.979-.04-12.191a2.344,2.344,0,0,0-.272-.623c-.944-1.486-2.651-1.082-4.513.057a.128.128,0,0,0,.01.224,1.764,1.764,0,0,1,.4.289,1.357,1.357,0,0,1,.139.173c1.2,1.729.608,7.259.237,11.74-.593,7.207-1.107,13.243,1.478,16.047A4.383,4.383,0,0,0,2518.7,87.5h.022c5.194,0,9.817-7.624,15.167-16.451a115.558,115.558,0,0,1,6.821-10.445c2.759-3.531,4.242-4.059,4.885-4.059a.368.368,0,0,1,.341.129c1.381,1.5.8,8.516.419,13.159-.593,7.207-1.1,13.43,1.478,16.234a4.375,4.375,0,0,0,3.317,1.433c5.193,0,9.814-7.624,15.164-16.451a116.619,116.619,0,0,1,6.821-10.445c2.221-3.062,6.762-6.751,8.887-5a.172.172,0,0,0,.267-.2,5.674,5.674,0,0,0-.949-1.468"/></g></svg>
