<svg xmlns="http://www.w3.org/2000/svg" xmlns:xlink="http://www.w3.org/1999/xlink" width="1366" height="748" viewBox="0 0 1366 748">
  <defs>
    <clipPath id="clip-path">
      <rect id="Rectangle_135" data-name="Rectangle 135" width="1366" height="748" transform="translate(-0.5 2188)" fill="none"/>
    </clipPath>
  </defs>
  <g id="Group_130" data-name="Group 130" transform="translate(0.5 -2188)" clip-path="url(#clip-path)">
    <g id="Group_129" data-name="Group 129" opacity="0.7">
      <path id="Path_283" data-name="Path 283" d="M258.728,2151.774c-16.409,3.934-23.471-9.966-25.148-26.865s2.032-36.795,7.163-44.855c9.4-14.759,23.389-18.434,34.2-13.93s18.445,17.188,15.116,35.147c-1.188,6.405-25.1,49.1-31.317,50.5Z" fill="none" stroke="#fff8e6" stroke-linecap="round" stroke-linejoin="round" stroke-width="0.25"/>
      <path id="Path_284" data-name="Path 284" d="M297.646,2053.309c16.321,17.467,15.579,49.033,5.9,75.09-4.979,13.4-22.356,47.582-36.33,64.291-2.693,3.219-5.1,5.72-7.174,6.791l-.02.01c-18.788,8.541-30.606-1.85-44.352-21.131-12.219-17.14-23.767-36.9-20.36-59.881,2.454-16.163,6.816-32.467,14.488-44.585a62.9,62.9,0,0,1,24.938-23.016c7.883-3.984,20.391-6.812,32.521-6.844C279.6,2043.968,291.463,2046.693,297.646,2053.309Z" fill="none" stroke="#fff8e6" stroke-linecap="round" stroke-linejoin="round" stroke-width="0.25"/>
      <path id="Path_285" data-name="Path 285" d="M319.491,2039.893c21.906,30.342,11.775,80.58-3.314,115.033-9.406,21.477-27.832,60.991-46.517,82.81a49.522,49.522,0,0,1-9.172,8.856l-.024.015c-21.18,13.065-39.983,7.382-63.557-15.4-25.217-24.367-47.266-55.1-41.989-92.636,3.535-24.822,10.157-51,23.083-71.44,9.785-15.467,23.011-27.994,40.61-35.826,11.771-5.238,32.711-9.011,52.84-8.443C291.722,2023.41,311.1,2028.273,319.491,2039.893Z" fill="none" stroke="#fff8e6" stroke-linecap="round" stroke-linejoin="round" stroke-width="0.25"/>
      <path id="Path_286" data-name="Path 286" d="M340.828,2025.907c27.551,43.186,7.843,112.025-12.528,154.975-13.977,29.467-33.259,74.447-56.7,101.33a79.636,79.636,0,0,1-11.171,10.92l-.028.021c-23.629,17.5-49.409,17.119-82.761-9.665-38.511-30.927-70.765-73.294-63.62-125.392,4.617-33.48,13.5-69.539,31.678-98.294,13.3-21.035,31.487-38.305,56.283-48.636,15.653-6.522,45.031-11.211,73.159-10.042C303.334,2002.282,330.256,2009.27,340.828,2025.907Z" fill="none" stroke="#fff8e6" stroke-linecap="round" stroke-linejoin="round" stroke-width="0.25"/>
      <path id="Path_287" data-name="Path 287" d="M185.174,1990.644c-76.6,30.649-102.441,114.22-112.229,186.594-9.014,66.658,33.394,120.952,85.251,158.148,50.794,36.435,87,22.908,115.166-9.08s48.281-82.437,66.893-119.849c25.616-51.492,54.873-138.838,21.743-194.918-12.781-21.634-47.219-30.767-83.346-32.536S204.709,1982.827,185.174,1990.644Z" fill="none" stroke="#fff8e6" stroke-linecap="round" stroke-linejoin="round" stroke-width="0.25"/>
      <path id="Path_288" data-name="Path 288" d="M596.591,1855.864c-15.953,5.116-77.894,23.854-82.817,41.749-6.231,22.651,32.47,37.716,49.2,37.479,33.548-.474,51.4,9.632,82.924,17.062,47.132,11.109,92.386-42.83,57.582-85.542C681.507,1839.642,626.438,1846.292,596.591,1855.864Z" fill="none" stroke="#fff8e6" stroke-linecap="round" stroke-linejoin="round" stroke-width="0.25"/>
      <path id="Path_289" data-name="Path 289" d="M604.342,1842.788c-13.565,1.824-34.772,2.845-55.282,9.95-15.886,5.5-32.969,22.034-42.239,32.427l-.005.006c-7.466,11-5.768,18.7-4.451,27.153,3.992,25.6,40.692,48.115,62.529,53.339,37.813,9.047,63.75,21.548,104.262,22.139,39.871.582,74.234-29.044,83.922-66.342,5.413-20.952,3.43-43.455-15.1-61.616C707.19,1829.673,643.5,1837.524,604.342,1842.788Z" fill="none" stroke="#fff8e6" stroke-linecap="round" stroke-linejoin="round" stroke-width="0.25"/>
      <path id="Path_290" data-name="Path 290" d="M616.448,1828.834c-20.964,1.209-49.84-.455-76.6,8.4-20.715,6.852-43.485,34.4-52.728,50.583l0,.009c-6.574,16.1,3.419,26.591,8.2,38.335,11.367,27.952,48.835,57.981,75.854,69.2,42,17.439,76.135,33.352,125.6,27.217,49.333-6.12,88.366-45.3,99.933-93.352,6.546-27.351,4.966-55.9-19.874-77.024C737.411,1818.682,664.447,1826.066,616.448,1828.834Z" fill="none" stroke="#fff8e6" stroke-linecap="round" stroke-linejoin="round" stroke-width="0.25"/>
      <path id="Path_291" data-name="Path 291" d="M629.767,1814.492c-28.36.352-64.907-3.755-97.918,6.841-25.544,8.2-54.372,46.544-63.216,68.74l0,.011c-5.96,21.18,12.217,34.713,20.841,49.516,17.953,30.813,57.109,67.535,89.179,85.06,46.385,25.346,88.512,45.095,146.936,32.293,58.788-12.881,102.5-61.558,115.945-120.361,7.678-33.749,6.547-68.4-24.647-92.431C768.919,1807.215,686.631,1813.787,629.767,1814.492Z" fill="none" stroke="#fff8e6" stroke-linecap="round" stroke-linejoin="round" stroke-width="0.25"/>
      <path id="Path_292" data-name="Path 292" d="M643.359,1801.546c-35.74-.649-79.975-7.055-119.235,5.287-30.373,9.549-65.545,58.647-73.705,86.9l0,.015c-5.452,26.311,20.847,43.043,33.487,60.7,24.388,34.063,65.521,76.925,102.5,100.92,50.954,33.06,100.874,56.808,168.273,37.371,68.228-19.675,116.63-77.816,131.956-147.37,8.81-40.149,8.152-80.944-29.42-107.839C800.732,1797.088,709.134,1802.741,643.359,1801.546Z" fill="none" stroke="#fff8e6" stroke-linecap="round" stroke-linejoin="round" stroke-width="0.25"/>
      <path id="Path_293" data-name="Path 293" d="M657.049,1788.846c-43.105-1.74-95.042-10.355-140.553,3.733-35.2,10.9-76.9,70.772-84.192,105.052l0,.018c-4.991,31.485,29.413,51.511,46.133,71.877,30.827,37.549,74.042,86.226,115.829,116.78,55.658,40.7,113.225,68.5,189.611,42.449,77.655-26.487,130.762-94.074,147.966-174.38,9.944-46.548,9.771-93.511-34.191-123.247C832.659,1787.171,731.774,1791.863,657.049,1788.846Z" fill="none" stroke="#fff8e6" stroke-linecap="round" stroke-linejoin="round" stroke-width="0.25"/>
      <path id="Path_294" data-name="Path 294" d="M670.785,1776.193c-50.458-2.891-110.11-13.655-161.87,2.178-40.032,12.246-88.371,82.933-94.682,123.209l0,.02c-4.552,36.689,37.953,60.066,58.779,83.059,37.3,41.18,82.642,95.481,129.154,132.64,60.458,48.3,125.52,80.066,210.948,47.526,87.028-33.434,144.894-110.331,163.978-201.389,11.076-52.946,11.4-106.1-38.965-138.654C864.64,1777.275,754.487,1780.989,670.785,1776.193Z" fill="none" stroke="#fff8e6" stroke-linecap="round" stroke-linejoin="round" stroke-width="0.25"/>
      <path id="Path_295" data-name="Path 295" d="M684.54,1763.51c-57.8-4.084-125.177-16.955-183.188.624-44.86,13.595-99.913,95.128-105.17,141.365l0,.024c-4.127,41.912,46.485,68.675,71.426,94.239,43.809,44.905,91.3,104.709,142.479,148.5,65.324,55.9,137.873,91.805,232.285,52.6,96.458-40.2,159.026-126.588,179.988-228.4,12.209-59.345,13.075-118.78-43.736-154.061C896.716,1767.213,777.242,1770.061,684.54,1763.51Z" fill="none" stroke="#fff8e6" stroke-linecap="round" stroke-linejoin="round" stroke-width="0.25"/>
      <path id="Path_296" data-name="Path 296" d="M493.8,1749.9c-49.689,14.943-111.985,107.314-115.658,159.521l0,.027c-3.226,47.186,55.015,77.322,84.071,105.42,113.728,109.979,223.888,304.342,409.426,222.041,105.889-46.97,173.159-142.845,196-255.407,13.341-65.744,14.657-131.309-48.509-169.469-90.466-54.654-219.1-52.914-320.822-61.2C633.166,1745.524,558.056,1730.577,493.8,1749.9Z" fill="none" stroke="#fff8e6" stroke-linecap="round" stroke-linejoin="round" stroke-width="0.25"/>
      <path id="Path_297" data-name="Path 297" d="M630.9,1909.92c7.833,8.88,40.743,9.5,51.355,8.218,19.74-2.378-4.214-28.188-8.537-30.8C659.205,1878.6,608.276,1884.269,630.9,1909.92Z" fill="none" stroke="#fff8e6" stroke-linecap="round" stroke-linejoin="round" stroke-width="0.25"/>
      <path id="Path_298" data-name="Path 298" d="M705.444,2665.978c41.235-18.637,58.742-63.059,11.319-86.563-48.627-24.1-62.183,19.212-92.386,44.669-20,16.859-68.913,34.532-15.213,47.978l.037.01C641.94,2680.258,674.465,2679.98,705.444,2665.978Z" fill="none" stroke="#fff8e6" stroke-linecap="round" stroke-linejoin="round" stroke-width="0.25" stroke-dasharray="6.26 4.174"/>
      <path id="Path_299" data-name="Path 299" d="M755.271,2562.646c25.159,20.853,23.6,40.5,21.517,63.581-1.132,12.655-1.714,24.84-5.738,36.714-5.12,15.108-16.057,28.813-32.132,39.074-13.856,8.844-30.751,15.239-46.781,14.834-13.8-.35-24.11-5.57-34.179-11.519-8.459-5-16.82-10.121-28.785-11.481-14.421-1.63-29.222,1.051-43.54-.61-61.436-7.128-30.914-34.358-5.437-64.683,8.051-9.583,18.193-18.1,24.724-28.8a43.545,43.545,0,0,0,5.462-15.086c.728-3.878-.229-8.245.889-11.966,2.335-7.767,11.95-13.586,18.326-16.774,8.978-4.488,18.41-5.6,27.4-6.085,16.937-.908,33.54,1.859,53.923,1.743C725.576,2551.5,741.113,2550.91,755.271,2562.646Z" fill="none" stroke="#fff8e6" stroke-linecap="round" stroke-linejoin="round" stroke-width="0.25"/>
      <path id="Path_300" data-name="Path 300" d="M793.778,2545.876c29.763,30.039,17.761,55.782,14.684,87.23-1.64,16.91,1.057,33.033-1.186,49-3.026,21.542-14.894,41.14-34.884,55.943-18.482,13.686-43.042,23.322-65.691,20.707-19.9-2.3-32.736-13.544-45.065-25.577-10.434-10.183-20.657-20.106-38.055-22.141-20.351-2.37-41.322,4.252-61.479,3.376-68.641-2.986-57.6-38.2-26.086-81.388,11.139-15.27,27.181-27.629,36.066-44.426,4.125-7.812,5.3-15.677,5.273-23.76-.019-5.947-3.583-12.976-2.8-18.64,1.7-12.334,18.278-20.661,28.1-24.153,14.32-5.093,29.324-3.942,43.238-2.164,26.335,3.472,51.1,11.832,81.477,10.756C750.121,2529.836,774.138,2526.053,793.778,2545.876Z" fill="none" stroke="#fff8e6" stroke-linecap="round" stroke-linejoin="round" stroke-width="0.25"/>
      <path id="Path_301" data-name="Path 301" d="M832.285,2529.106c34.629,39.026,11.922,71.062,7.852,110.878-2.15,21.166,3.93,41.229,3.365,61.29-.788,27.98-13.688,53.521-37.636,72.813-23.064,18.581-55.327,31.382-84.6,26.581-26-4.265-41.349-21.526-55.951-39.636-12.4-15.376-24.494-30.091-47.325-32.8-26.282-3.11-53.415,7.225-79.418,7.361-75.819.4-84.457-42.135-46.736-98.093,14.156-21,36.17-37.16,47.409-60.045,5.226-10.656,6.115-21.371,5.084-32.434-.748-8.024-6.956-17.705-6.493-25.315,1.028-16.9,24.609-27.713,37.871-31.533,19.665-5.663,40.236-2.305,59.079,1.759,35.731,7.8,68.657,21.787,109.03,19.769C774.665,2508.158,807.368,2501.025,832.285,2529.106Z" fill="none" stroke="#fff8e6" stroke-linecap="round" stroke-linejoin="round" stroke-width="0.25"/>
      <path id="Path_302" data-name="Path 302" d="M870.793,2512.336c39.618,47.962,6.082,86.342,1.019,134.527-2.659,25.42,6.848,49.4,7.916,73.578,1.519,34.393-12.459,65.921-40.387,89.682-27.623,23.5-67.609,39.435-103.512,32.455-32.1-6.241-49.918-29.535-66.838-53.7-14.323-20.59-28.33-40.075-56.594-43.461-32.212-3.849-65.524,10.029-97.357,11.348-83.05,3.44-111.393-46.1-67.386-114.8,17.136-26.75,45.159-46.691,58.753-75.666,6.327-13.5,6.939-27.07,4.894-41.107-1.473-10.107-10.334-22.43-10.184-31.991.337-21.448,30.938-34.756,47.643-38.911,25.01-6.221,51.149-.668,74.92,5.681,45.128,12.136,86.211,31.658,136.585,28.782C799.2,2486.416,840.716,2475.925,870.793,2512.336Z" fill="none" stroke="#fff8e6" stroke-linecap="round" stroke-linejoin="round" stroke-width="0.25"/>
      <path id="Path_303" data-name="Path 303" d="M909.3,2495.566c44.674,56.885.243,101.621-5.813,158.176-3.169,29.675,9.787,57.562,12.467,85.866,3.862,40.783-11.216,78.332-43.139,106.551-32.165,28.433-79.874,47.417-122.422,38.329-38.181-8.28-58.529-37.508-77.724-67.755-16.285-25.776-32.167-50.06-65.864-54.121-38.142-4.589-77.653,12.707-115.3,15.334-90.344,6.3-138.368-50.082-88.035-131.5,20.1-32.507,54.148-56.222,70.1-91.285,7.428-16.343,7.767-32.773,4.7-49.781-2.195-12.192-13.716-27.154-13.875-38.666-.361-26,37.266-41.8,57.416-46.291,30.352-6.77,62.061.969,90.761,9.6,54.524,16.467,103.768,41.621,164.139,37.794C823.747,2464.743,874.135,2450.789,909.3,2495.566Z" fill="none" stroke="#fff8e6" stroke-linecap="round" stroke-linejoin="round" stroke-width="0.25"/>
      <path id="Path_304" data-name="Path 304" d="M947.808,2478.8c49.769,65.805-5.6,116.9-12.646,181.824-3.678,33.931,12.736,65.71,17.018,98.154,6.223,47.158-9.964,90.749-45.891,123.421-36.7,33.373-92.155,55.483-141.332,44.2-44.277-10.242-67.14-45.481-88.61-81.814-18.247-30.961-36-60.044-75.135-64.78-44.071-5.329-89.8,15.288-133.234,19.319-97.7,9.067-165.366-54.063-108.685-148.208,23.041-38.27,63.137-65.753,81.438-106.906,8.53-19.186,8.6-38.478,4.515-58.455-2.916-14.278-17.1-31.875-17.565-45.34-1.062-30.544,43.6-48.79,67.188-53.67,35.708-7.249,72.974,2.606,106.6,13.526,63.92,20.8,121.324,51.583,191.693,46.807C848.29,2443.071,907.6,2425.633,947.808,2478.8Z" fill="none" stroke="#fff8e6" stroke-linecap="round" stroke-linejoin="round" stroke-width="0.25"/>
      <path id="Path_305" data-name="Path 305" d="M986.315,2462.027c54.89,74.725-11.436,132.18-19.478,205.472-4.187,38.185,15.691,73.847,21.569,110.442,8.6,53.521-8.656,103.224-48.643,140.291-41.169,38.375-104.436,63.549-160.242,50.075-50.372-12.206-75.751-53.454-99.5-95.873-20.21-36.146-39.84-70.028-84.405-75.44-50-6.069-101.97,17.8-151.173,23.305-105.094,11.765-192.575-58.167-129.335-164.914,25.9-44.085,72.126-75.283,92.782-122.525,9.63-22.03,9.448-44.19,4.325-67.129-3.621-16.369-20.5-36.595-21.257-52.015-1.806-35.086,49.925-55.848,76.962-61.05,41.042-7.825,83.886,4.243,122.444,17.448,73.316,25.132,138.881,61.547,219.246,55.821C872.833,2421.4,941.095,2400.465,986.315,2462.027Z" fill="none" stroke="#fff8e6" stroke-linecap="round" stroke-linejoin="round" stroke-width="0.25" stroke-dasharray="6.26 4.174"/>
      <path id="Path_306" data-name="Path 306" d="M375.056,2521.711c10.732-24.873,10.255-49.892,4.136-75.8-4.358-18.454-23.865-41.316-24.948-58.69-2.47-39.632,56.248-62.906,86.734-68.43,46.376-8.4,94.8,5.88,138.286,21.371,82.711,29.463,156.438,71.509,246.8,64.833,71.312-5.268,148.547-29.7,198.759,40.264,60.027,83.647-17.276,147.46-26.312,229.12-4.7,42.441,18.65,81.98,26.12,122.731,10.976,59.875-7.444,115.589-51.393,157.16-45.742,43.266-116.718,71.615-179.153,55.949-56.468-14.169-84.362-61.428-110.382-109.932-22.172-41.332-43.677-80.013-93.675-86.1-55.932-6.809-114.155,20.247-169.112,27.29-112.535,14.423-219.4-62.03-149.985-181.618C299.841,2610.053,352.046,2575.042,375.056,2521.711Z" fill="none" stroke="#fff8e6" stroke-linecap="round" stroke-linejoin="round" stroke-width="0.25"/>
      <path id="Path_307" data-name="Path 307" d="M1232.156,1843.783c-20.887,3.317-60.832,27.427-65.771,49.245-4.793,21.172,10.586,43.882,19.388,61.766,5.879,11.946,19.789,58.627,30.683,65.112,19.279,11.477,29.275-7.873,41.827-27.47,13.449-21,48.908-56.218,48.963-81.815C1307.313,1879.635,1260.62,1839.265,1232.156,1843.783Z" fill="none" stroke="#fff8e6" stroke-linecap="round" stroke-linejoin="round" stroke-width="0.25"/>
      <path id="Path_308" data-name="Path 308" d="M1162.025,1872.762c-16.173,25.993,3.216,56.971,10.112,84.6,3.494,14,8.045,39.658,14.318,61,3.356,11.418,6.292,23.032,10.938,28.516a22.384,22.384,0,0,0,12.849,7.834c15.669,3.17,32.16-14.034,45.319-29.434,20.348-23.812,55.077-63.679,60.088-95,4.033-25.206-.779-58.538-19.711-81.744-14.946-18.32-39.511-22.867-58.028-20.433C1213.717,1831.28,1174.415,1852.849,1162.025,1872.762Z" fill="none" stroke="#fff8e6" stroke-linecap="round" stroke-linejoin="round" stroke-width="0.25"/>
      <path id="Path_309" data-name="Path 309" d="M1157.666,1852.495c-29.471,30.571-4.691,70.281.834,107.434,3.066,20.619,5.767,50.6,10.849,77.069,2.5,13.034,3.934,28,8.981,36.844a26.177,26.177,0,0,0,14.156,12.245c19.058,6.714,44.043-12.308,60.353-27.974,27.552-26.464,61.719-71.137,71.213-108.183,8.356-32.6,14-78.6-5.536-111.064-16.056-26.684-49.91-29.329-74.852-26.451C1216.185,1815.586,1175.521,1833.973,1157.666,1852.495Z" fill="none" stroke="#fff8e6" stroke-linecap="round" stroke-linejoin="round" stroke-width="0.25"/>
      <path id="Path_310" data-name="Path 310" d="M1153.306,1832.229c-43.7,34.006-12.774,83.59-8.443,130.267,2.528,27.24,3.647,61.518,7.379,93.142,1.728,14.633,1.765,32.9,7.025,45.172,3.277,7.644,8.364,13.433,15.462,16.656,22.473,10.2,56.028-10.475,75.388-26.515,34.923-28.933,68.552-78.53,82.338-121.367,12.856-39.944,28.894-98.721,8.639-140.383-17.064-35.1-60.305-35.744-91.677-32.469C1218.658,1799.942,1176.126,1814.472,1153.306,1832.229Z" fill="none" stroke="#fff8e6" stroke-linecap="round" stroke-linejoin="round" stroke-width="0.25"/>
      <path id="Path_311" data-name="Path 311" d="M1148.946,1811.963c-58.271,36.485-20.931,96.882-17.72,153.1,1.935,33.853,1.645,72.434,3.91,109.216,1,16.235-.287,37.786,5.068,53.5,3.146,9.229,8.476,16.691,16.769,21.067,25.907,13.672,68.053-8.565,90.422-25.055,42.387-31.247,75.472-85.87,93.463-134.551,17.455-47.232,43.858-118.851,22.814-169.7-18.011-43.521-70.7-42.123-108.5-38.487C1221.132,1784.321,1176.7,1794.587,1148.946,1811.963Z" fill="none" stroke="#fff8e6" stroke-linecap="round" stroke-linejoin="round" stroke-width="0.25"/>
      <path id="Path_312" data-name="Path 312" d="M1144.587,1791.7c-72.912,38.318-29.127,110.157-27,175.934,1.31,40.458-.272,83.363.44,125.288.3,17.845-2.271,42.679,3.111,61.826,3.044,10.829,8.592,19.945,18.076,25.479,29.355,17.13,80.095-6.6,105.456-23.6,49.9-33.438,82.437-93.169,104.588-147.735,22.116-54.476,58.862-138.977,36.989-199.024-18.922-51.944-81.081-48.4-125.325-44.505C1223.612,1768.78,1177.348,1774.479,1144.587,1791.7Z" fill="none" stroke="#fff8e6" stroke-linecap="round" stroke-linejoin="round" stroke-width="0.25"/>
      <path id="Path_313" data-name="Path 313" d="M1103.953,1970.2c.667,47.059-2.126,94.312-3.029,141.361-.58,30.193-9.495,81.207,20.537,100.044,32.812,20.582,92.142-4.6,120.491-22.136,57.441-35.536,89.425-100.441,115.712-160.92,26.814-61.689,73.888-159.1,51.164-228.343-19.81-60.364-91.477-54.813-142.149-50.524-40.6,3.436-88.591,4.56-126.452,21.75C1052.7,1811.169,1102.885,1894.853,1103.953,1970.2Z" fill="none" stroke="#fff8e6" stroke-linecap="round" stroke-linejoin="round" stroke-width="0.25"/>
      <path id="Path_314" data-name="Path 314" d="M1066.568,2330.187c12.58,6.047,36.475,15.433,57.611,17.716s39.512-2.537,41.053-24.9c1.567-22.8-21.083-33.361-47.628-38.215s-56.985-4-71-3.959c-26.234.074-36.578,5.043-32.7,13.68S1035.9,2315.447,1066.568,2330.187Z" fill="none" stroke="#fff8e6" stroke-linecap="round" stroke-linejoin="round" stroke-width="0.25"/>
      <path id="Path_315" data-name="Path 315" d="M993.383,2273.112c7.791-10.256,23.382-30.975,52.112-29.843a34.485,34.485,0,0,1,11.755,2.608c9.9,4.049,13.884,12.138,24.417,17.147,18.078,8.6,44.112,6.177,64.34,12.667,25.93,8.319,46.211,22.939,46.541,47.329.3,22.441-13.071,33.72-30.244,38.959-22.818,17.622-71.471,20.176-97.385,3.876-10.4-6.544-25.547-22.385-39.981-26.723-16.36-4.918-38.6-4.26-48.5-18.488C962.031,2299.933,985.722,2283.2,993.383,2273.112Z" fill="none" stroke="#fff8e6" stroke-linecap="round" stroke-linejoin="round" stroke-width="0.25"/>
      <path id="Path_316" data-name="Path 316" d="M972.857,2251.718c17.46-12.962,40.294-48.02,71.528-46.007a34.436,34.436,0,0,1,15.832,5.269c13.715,8.367,14.322,24.475,27.349,34.143,23,17.068,60.394,10.363,86.843,21.472,25.564,10.737,43.11,30.454,45.455,56.445,2.032,22.509-7.717,38.824-19.435,53.014-28.485,34.49-98.053,52.256-137.159,25.469-14.933-10.143-39.66-39.294-63.589-45.177-25.885-6.364-64.978-1.112-79.357-26.682C901.077,2295.436,953.7,2265.94,972.857,2251.718Z" fill="none" stroke="#fff8e6" stroke-linecap="round" stroke-linejoin="round" stroke-width="0.25"/>
      <path id="Path_317" data-name="Path 317" d="M864.21,2338.684c-24.217-47.742,57.586-90.451,88.121-108.361,32.687-19.172,68.725-84.954,110.853-54.24,17.47,12.737,14.719,36.837,30.28,51.139,27.839,25.586,76.974,13.977,109.347,30.277,46.25,23.288,56.27,87.6,35.742,132.63-26.183,57.435-124.563,84.22-176.932,47.062-19.433-13.789-53.771-56.232-87.2-63.631C939.015,2365.722,882.949,2375.623,864.21,2338.684Z" fill="none" stroke="#fff8e6" stroke-linecap="round" stroke-linejoin="round" stroke-width="0.25" stroke-dasharray="6.26 4.174"/>
      <path id="Path_318" data-name="Path 318" d="M1127.361,2334.2c23.733-3.312-5.693-35.222-16.519-27.151C1098.707,2316.093,1116.815,2335.669,1127.361,2334.2Z" fill="none" stroke="#fff8e6" stroke-linecap="round" stroke-linejoin="round" stroke-width="0.25"/>
      <path id="Path_319" data-name="Path 319" d="M1223.736,1961.94c44.463-10.979,12.016-118.612-18.1-76.785C1199.3,1893.959,1214.183,1964.3,1223.736,1961.94Z" fill="none" stroke="#fff8e6" stroke-linecap="round" stroke-linejoin="round" stroke-width="0.25"/>
      <path id="Path_320" data-name="Path 320" d="M1473.32,2285.718c10.905-7.41,17.555-24.621,19.644-42.586s-.383-36.684-7.721-47.108c-8.15-11.58-16.173-15.715-23.505-14.9s-13.975,6.581-19.364,14.8c-10.777,16.448-16.54,42.726-12.779,58.894,2.4,10.319,7.414,22.06,14.788,29.213S1461.487,2293.752,1473.32,2285.718Z" fill="none" stroke="#fff8e6" stroke-linecap="round" stroke-linejoin="round" stroke-width="0.25"/>
      <path id="Path_321" data-name="Path 321" d="M1431.432,2175.9c-7.345,14.359-15.814,27.455-23.106,42.263-4.443,9.023-4.584,16.1-4.413,25.778.157,8.907,1.065,17.821,1.859,26.138.424,4.459.567,8.754.78,12.865.521,9.928,1.218,19.916,6.73,29.629,5.077,8.944,11.854,17.015,18.238,24.486,5.871,6.875,12.581,15.2,22.106,15.24,10.8.043,22.157-9.916,30.979-18.459,11.886-11.51,20.037-26.6,24.731-44.2,4.506-16.891,6.5-35.194,6.884-53.588a371.812,371.812,0,0,0-1.989-44.543c-1.706-16.919-4.373-47.713-16.334-58.363-18.979-16.9-32.411,1.265-41.946,9.3C1446.777,2150.169,1438.6,2161.882,1431.432,2175.9Z" fill="none" stroke="#fff8e6" stroke-linecap="round" stroke-linejoin="round" stroke-width="0.25"/>
      <path id="Path_322" data-name="Path 322" d="M1420.489,2155.861c-10.147,22.044-23.751,39.711-35.79,60.7-7.653,13.341-6.967,22.766-5.967,37.5.871,12.843,2.947,25.862,4.217,38.106a164.025,164.025,0,0,1,.56,18.889c-.155,14.7-.655,29.2,7.944,43.488,7.636,12.783,18.128,24.169,27.2,35.529,8.36,10.469,17.9,24.849,32.6,24.113,16.475-.777,33.189-19.754,44.631-32.235,17.783-19.4,29.653-42.682,35.8-69.82,5.924-26.609,8.008-54.869,7.784-83.168-.193-23.158-1.927-46.34-4.359-68.671-2.446-23.205-5.066-75.286-24.568-90.033-29.619-22.4-48.7,18.141-60.387,33.5C1439.1,2118.3,1429.568,2136.14,1420.489,2155.861Z" fill="none" stroke="#fff8e6" stroke-linecap="round" stroke-linejoin="round" stroke-width="0.25"/>
      <path id="Path_323" data-name="Path 323" d="M1409.547,2135.827c-12.9,29.748-31.713,51.948-48.475,79.134-10.88,17.647-9.372,29.436-7.521,49.228,1.569,16.782,4.828,33.9,6.574,50.073a164.451,164.451,0,0,1,.342,24.912c-.832,19.482-2.507,38.474,9.157,57.349,10.215,16.61,24.4,31.321,36.17,46.57,10.849,14.063,23.223,34.475,43.1,32.986,22.147-1.619,44.168-29.625,58.283-46.009a207.283,207.283,0,0,0,46.874-95.441c7.39-36.316,9.515-74.545,8.684-112.75-.687-31.3-3.356-62.59-6.727-92.8-3.225-29.487-5.741-102.9-32.8-121.7-40.233-27.959-65.025,35.01-78.828,57.694C1431.389,2086.417,1420.572,2110.41,1409.547,2135.827Z" fill="none" stroke="#fff8e6" stroke-linecap="round" stroke-linejoin="round" stroke-width="0.25"/>
      <path id="Path_324" data-name="Path 324" d="M1398.6,2115.793c-15.637,37.459-39.683,64.175-61.16,97.57-14.113,21.945-11.786,36.108-9.075,60.953,2.261,20.722,6.71,41.941,8.931,62.04,1.166,10.561.752,20.854.123,30.936-1.508,24.258-4.358,47.746,10.371,71.209,12.794,20.436,30.677,38.473,45.136,57.612,13.338,17.656,28.544,44.1,53.594,41.859,27.818-2.462,55.127-39.506,71.935-59.785,29.318-35.372,48.985-74.821,57.946-121.062,8.856-46.021,11.02-94.22,9.584-142.33-1.183-39.452-4.785-78.842-9.1-116.925-4-35.77-6.408-130.53-41.035-153.375-50.84-33.539-81.361,51.881-97.269,81.893C1423.667,2054.54,1411.591,2084.684,1398.6,2115.793Z" fill="none" stroke="#fff8e6" stroke-linecap="round" stroke-linejoin="round" stroke-width="0.25"/>
      <path id="Path_325" data-name="Path 325" d="M1387.663,2095.76c-18.3,45.2-47.693,76.371-73.845,116-17.373,26.223-14.234,42.784-10.629,72.677,2.925,24.668,8.591,49.982,11.289,74.008,1.413,12.595.813,24.888-.1,36.959-2.186,29.035-6.21,57.019,11.584,85.069,15.373,24.264,36.952,45.627,54.1,68.654,15.826,21.25,33.864,53.727,64.09,50.732,33.489-3.3,66.073-49.39,85.586-73.56,35.031-43.392,58.651-90.889,69.017-146.682,10.322-55.728,12.527-113.9,10.484-171.911-1.678-47.6-6.213-95.094-11.466-141.053-4.782-42.052-7.041-158.221-49.269-185.045-61.4-39.208-97.734,68.738-115.709,106.091C1415.911,2022.651,1402.668,2058.981,1387.663,2095.76Z" fill="none" stroke="#fff8e6" stroke-linecap="round" stroke-linejoin="round" stroke-width="0.25"/>
      <path id="Path_326" data-name="Path 326" d="M1561.165,1818.731c-72.048-44.733-114.047,85.629-134.15,130.29-18.8,41.772-33.366,84.216-50.3,126.705-21.071,52.888-55.631,88.616-86.529,134.441-20.587,30.532-16.626,49.455-12.183,84.4,3.637,28.607,10.473,58.022,13.646,85.975,5.654,49.807-17.051,95.7,12.483,141.912,17.952,28.09,43.226,52.779,63.069,79.695,18.315,24.845,39.185,63.354,74.586,59.606,39.161-4.147,77.015-59.276,99.238-87.335,40.726-51.423,68.317-106.959,80.089-172.3,21.463-119.138,11.287-247.244-2.452-366.672C1613.107,1987.112,1610.932,1849.631,1561.165,1818.731Z" fill="none" stroke="#fff8e6" stroke-linecap="round" stroke-linejoin="round" stroke-width="0.25"/>
      <path id="Path_327" data-name="Path 327" d="M1247.271,2259.23c-23.689.764-21.072-40.3,1.528-42.674C1252.828,2224.839,1270.961,2258.466,1247.271,2259.23Z" fill="none" stroke="#fff8e6" stroke-linecap="round" stroke-linejoin="round" stroke-width="0.25"/>
      <path id="Path_328" data-name="Path 328" d="M1336.4,2788.67c8.959,11.817,10.917,21.674,8.291,29.815s-9.835,14.566-19.208,19.519c-18.748,9.907-46.155,13.928-62.874,14.02-14.143.078-36.564-10.711-49.069-23.867s-15.091-28.68,10.433-38.069c10.355-3.809,35.092-8.608,58.925-10.233S1329.661,2779.781,1336.4,2788.67Z" fill="none" stroke="#fff8e6" stroke-linecap="round" stroke-linejoin="round" stroke-width="0.25"/>
      <path id="Path_329" data-name="Path 329" d="M1199.573,2742.948c6.691-4.272,25.7-5.652,37.817-7.079,19.049-2.242,32.995,5.765,48.058,12.606,20.1,9.13,41.51,19.6,60.573,28.1,6.52,2.905,12.488,5.561,16.783,9.544a48.031,48.031,0,0,1,6.243,6.962c9.716,13.358,11.725,28.48,11.543,41.018-.284,19.652-5.519,33.055-21.7,46.983-26.085,22.444-60.544,29.962-91.937,27.759-27.9-2.04-72.32-17.987-83.316-49.364-3.18-9.072-1.465-17.74-1.031-26.56.656-13.329,1.57-27.409,2.979-40.931.848-8.131-.413-11.443-1.4-17.931-1.051-6.877,5.033-12.916,8.96-19.731C1194.882,2751.29,1196.02,2745.216,1199.573,2742.948Z" fill="none" stroke="#fff8e6" stroke-linecap="round" stroke-linejoin="round" stroke-width="0.25"/>
      <path id="Path_330" data-name="Path 330" d="M1175.173,2695.807c8.4-6.446,37.783-7.124,51.756-8.317,27.558-2.353,43.077,14.926,61.068,29.6,23.49,19.166,50.052,39.752,77.563,53.477,8.593,4.287,17.024,7.707,23.647,12.989a54.661,54.661,0,0,1,9.193,9.181c13.234,17.031,16.582,38.97,18.088,56.965,2.615,31.23-1.414,51.233-24.2,74.446-33.794,34.425-74.933,46-121,41.5-41.659-4.157-107.045-25.817-117.563-74.859-3.292-15.351,2.012-29.486,4.623-44.059a478.468,478.468,0,0,0,7.054-66.333c.5-14.155-3.627-18.692-7.667-29.719-4.379-11.952,5.475-22.225,9.938-34.385C1169.588,2711.069,1170.067,2699.727,1175.173,2695.807Z" fill="none" stroke="#fff8e6" stroke-linecap="round" stroke-linejoin="round" stroke-width="0.25"/>
      <path id="Path_331" data-name="Path 331" d="M1150.773,2648.667c10.148-8.579,49.866-8.537,65.7-9.556,36.075-2.324,53.218,24.045,74.078,46.6,26.954,29.151,58.629,59.837,94.553,78.857,10.676,5.653,21.549,9.87,30.511,16.436a63.819,63.819,0,0,1,12.143,11.4c16.73,20.724,21.514,49.429,24.633,72.913,5.681,42.756,2.589,69.333-26.7,101.909-41.636,46.312-89.321,62.03-150.064,55.236-55.418-6.274-141.553-33.6-151.811-100.355-3.322-21.622,5.466-41.247,10.278-61.557a415.255,415.255,0,0,0,11.127-91.735c.124-20.172-6.847-25.911-13.928-41.506-7.716-17,5.954-31.54,10.915-49.041C1144.308,2670.845,1144.145,2654.27,1150.773,2648.667Z" fill="none" stroke="#fff8e6" stroke-linecap="round" stroke-linejoin="round" stroke-width="0.25" stroke-dasharray="6.26 4.174"/>
      <path id="Path_332" data-name="Path 332" d="M1126.372,2601.526c11.919-10.7,61.949-9.923,79.635-10.794,44.593-2.2,63.392,33.16,87.087,63.6,30.459,39.131,67.227,79.891,111.544,104.236,12.764,7.012,26.071,12.043,37.375,19.883a73.953,73.953,0,0,1,15.094,13.617c20.215,24.427,26.469,59.871,31.178,88.86,8.812,54.254-8.884,80.637-44.621,122.6-49.538,58.174-88.286,84.831-163.7,75.742-69.177-8.391-175.99-41.346-186.058-125.85-3.323-27.885,8.913-53.016,15.931-79.056a439.578,439.578,0,0,0,15.2-117.137c-.263-26.185-10.066-33.121-20.189-53.294-11.054-22.029,6.445-40.858,11.892-63.7C1119.034,2630.618,1118.24,2608.827,1126.372,2601.526Z" fill="none" stroke="#fff8e6" stroke-linecap="round" stroke-linejoin="round" stroke-width="0.25"/>
      <path id="Path_333" data-name="Path 333" d="M1101.972,2554.385c13.7-12.817,74.029-11.3,93.574-12.033,53.111-2,73.637,42.238,100.1,80.6,34.055,49.064,75.881,99.845,128.534,129.616,14.867,8.344,30.577,14.24,44.239,23.329a85.24,85.24,0,0,1,18.044,15.835c23.664,28.163,31.436,70.3,37.723,104.807,11.977,65.734,10.467,105.463-31.693,156.836-57.469,70.027-118.1,94.1-208.192,82.713-82.934-10.508-210.4-49.07-220.3-151.345-3.308-34.144,12.322-64.8,21.585-96.555,13.195-45.631,20.171-94.823,19.275-142.539-.705-32.2-13.316-40.309-26.45-65.082-14.427-27.039,6.984-50.171,12.869-78.351C1093.779,2590.394,1092.345,2563.391,1101.972,2554.385Z" fill="none" stroke="#fff8e6" stroke-linecap="round" stroke-linejoin="round" stroke-width="0.25"/>
      <path id="Path_334" data-name="Path 334" d="M1084.671,2734.067c-1.05-38.207-16.5-47.53-32.711-76.869-17.728-32.087,7.438-59.5,13.846-93.006,2.683-14.032.651-46.232,11.766-56.947,15.489-14.933,86.108-12.662,107.513-13.272,61.627-1.755,83.779,51.4,113.107,97.6,37.519,59.1,84.45,119.958,145.524,155,25.01,14.348,52.672,22.063,72.1,44.829,27.174,31.848,36.408,80.729,44.268,120.754,15.16,77.2,14.377,123.515-34.19,184.3-65.418,81.876-132.489,110.133-237.255,96.452-96.693-12.625-244.785-56.78-254.552-176.841-3.287-40.4,15.8-76.562,27.238-114.053C1077.7,2848.3,1086.216,2790.341,1084.671,2734.067Z" fill="none" stroke="#fff8e6" stroke-linecap="round" stroke-linejoin="round" stroke-width="0.25"/>
      <path id="Path_335" data-name="Path 335" d="M1053.132,2767.974a2.608,2.608,0,0,0,4.779-1.14c2.954-24.7-17.061-94.423-32.922-65.692C1013.053,2722.762,1041.954,2750.84,1053.132,2767.974Z" fill="none" stroke="#fff8e6" stroke-linecap="round" stroke-linejoin="round" stroke-width="0.25"/>
      <path id="Path_336" data-name="Path 336" d="M1260.555,2433.187c11.872,3.905,16.655,15.771.876,37.818l-.012.018c-16.118,22.485-59.814,15.1-57.053-5.595,0-.007-.011-.006-.017-.02C1205.477,2440.67,1241.831,2427.027,1260.555,2433.187Z" fill="none" stroke="#fff8e6" stroke-linecap="round" stroke-linejoin="round" stroke-width="0.25"/>
      <path id="Path_337" data-name="Path 337" d="M539.554,2262.213c-19.1-4.446-39.976-10.564-59.686-10.246-9.239.149-14.114,4.345-20.947-2.238-10.087-9.72-5.639-41.21,3.546-50.018,12.557-12.043,33.093,6.614,42.272,14.488,17.08,14.651,34.285,24.115,55.591,31.874,16.326,5.946,34.021,7.573,41.185,25.994C580.4,2280.451,562.193,2267.481,539.554,2262.213Z" fill="none" stroke="#fff8e6" stroke-linecap="round" stroke-miterlimit="10" stroke-width="0.25"/>
      <path id="Path_338" data-name="Path 338" d="M445.5,2175.687c10.781-22.441,29.959-4.694,44.865,8.88,5.723,5.206,10.8,9.849,15.075,13.49,19.312,16.468,35.78,24.9,62.246,41.393,6.186,3.856,14.7,7.483,23.745,11.024,11.979,4.676,24.83,8.477,34.438,12.2,14.53,5.631,24.392,14.711,28.683,29.122-13.415,18.371-63.491-3.05-95.441-13.076-26.769-8.4-56-19.823-84.544-16.03-2.087.269-4.161.606-6.233.946-12.44,2.041-21.061,5.654-32.483,3.114-15.033-3.343-14.6-10.719-10.134-25.249C432.7,2218.806,436.7,2194.016,445.5,2175.687Z" fill="none" stroke="#fff8e6" stroke-linecap="round" stroke-miterlimit="10" stroke-width="0.25"/>
      <path id="Path_339" data-name="Path 339" d="M428.54,2151.663c13.007-35.892,37.651-7.988,57.358,11.47,7.543,7.442,14.264,13.695,20.248,18.781,25.9,22.016,46.331,30.274,84.443,57.229,7.5,5.3,19.281,10.626,31.949,15.732,16.42,6.606,34.311,12.34,46.559,16.849,20.981,7.724,33.773,20.895,38.5,39.8-5.714,28.36-87.611-1.673-128.92-16.3-35.727-12.8-74.916-29.927-113.543-21.839-2.788.576-5.557,1.242-8.325,1.918-15.65,3.818-28.889,9.017-44.019,8.465-27.111-.988-24.07-11.743-14.575-33.73C412.412,2217.161,417.223,2182.9,428.54,2151.663Z" fill="none" stroke="#fff8e6" stroke-linecap="round" stroke-miterlimit="10" stroke-width="0.25"/>
      <path id="Path_340" data-name="Path 340" d="M411.577,2127.639c15.338-49.346,45.342-11.281,69.852,14.06,9.362,9.677,17.723,17.542,25.421,24.073,32.476,27.563,57.078,35.406,106.64,73.064,8.836,6.714,23.862,13.768,40.152,20.44,20.862,8.536,43.8,16.166,58.681,21.5,27.455,9.747,43.153,27.08,48.311,50.48,1.987,38.347-111.756-.218-162.4-19.519-44.7-17.13-93.839-40.031-142.543-27.648-3.489.883-6.955,1.87-10.417,2.889-18.875,5.555-36.457,12.639-55.555,13.818-38.945,2.4-33.582-12.806-19.015-42.212C392.067,2215.459,397.856,2171.783,411.577,2127.639Z" fill="none" stroke="#fff8e6" stroke-linecap="round" stroke-miterlimit="10" stroke-width="0.25" stroke-dasharray="6.26 4.174"/>
      <path id="Path_341" data-name="Path 341" d="M343.2,2267.121c-19.654,36.807-27.125,56.912,23.455,50.693,27.588-3.392,53.1-15.51,79.6-23.029,58.781-16.679,117.859,11.994,171.542,33.456,59.978,23.979,205.566,71.075,195.878,22.74-5.59-27.894-24.219-49.321-58.125-61.158-31.3-10.928-96.018-32.868-119.157-51.294-75.563-60.172-101.843-56.916-159.431-118.263-29.312-31.225-64.64-79.461-82.346-16.651C378.531,2160.668,371.7,2213.733,343.2,2267.121Z" fill="none" stroke="#fff8e6" stroke-linecap="round" stroke-miterlimit="10" stroke-width="0.25"/>
      <path id="Path_342" data-name="Path 342" d="M36.263,2696.037c11.249,38.56-32.849,67.494-59.549,81.35-8.778,4.556-55.427,32.86-64.949,24.585-18.327-15.926,16.451-79.23,16.605-99.369.246-32.126-19.24-116.281,37.745-92.491C-5.259,2622.063,27.609,2666.4,36.263,2696.037Z" fill="none" stroke="#fff8e6" stroke-linecap="round" stroke-miterlimit="10" stroke-width="0.25"/>
      <path id="Path_343" data-name="Path 343" d="M-10.028,2564.92c16.783,11.71,31.982,18.45,50.614,28.629,16.163,8.773,32.231,24.471,32.594,42.623.334,16.732.455,28.28-1.583,43.935-2.108,16.2-8.5,37.3-7.555,53.351,1.063,18.075,5.244,27,6.678,38.981,1.888,15.766-46.27,36.523-66.742,41.837-10.645,2.763-25.66,5.919-42.9,8.567-17.38,2.668-35.7,7.831-45.616,2.774-15.65-7.981-22.4-25.6-20.951-49.1,2-34.8,13.632-75.615,14.3-101,.569-23.191-1.14-53.757,3.871-81.274,2.319-12.731,6.706-26.813,14.173-34.306,5.035-5.054,7.539-6.052,12.657-7.033,6.026-1.156,13.575-4.058,21.628-2.615C-29.654,2551.932-20.433,2557.659-10.028,2564.92Z" fill="none" stroke="#fff8e6" stroke-linecap="round" stroke-miterlimit="10" stroke-width="0.25"/>
      <path id="Path_344" data-name="Path 344" d="M13.83,2519.727c22.807,19.5,42.337,23.732,69.342,33.278,23.5,8.244,47.852,28.682,41.48,54.307-5.6,22.508-10.549,34.881-17.72,56.866-7,21.454-18.557,53.611-13.021,76.42,6.55,26.985,19.932,36.09,32.083,53.085,14.053,19.655-65.627,52.3-94.753,57.482-17.092,3.038-33.623,1.874-54.588.495-20.4-1.342-42.559,3.511-57.5-2.4-23.876-9.441-38.669-30.411-39.99-61.358-2.137-46.177,8.838-100.657,10.08-139.489,1.042-33.9.382-74.684,10.751-110.9,4.68-16.347,13.258-35.6,26.139-43.413,9.148-5.549,12.251-4.029,20.491-2.516,8.836,1.623,20.038-.674,30.479,2.8C-9.929,2498.711,1.467,2509.158,13.83,2519.727Z" fill="none" stroke="#fff8e6" stroke-linecap="round" stroke-miterlimit="10" stroke-width="0.25"/>
      <path id="Path_345" data-name="Path 345" d="M37.687,2474.534c28.655,27.46,52.693,29.014,88.072,37.927,30.839,7.716,63.624,33,50.365,65.991-11.4,28.376-21.436,41.562-33.858,69.8-11.785,26.784-28.53,69.862-18.485,99.489,12.146,35.821,34.456,45.8,57.488,67.19,26.144,24.281-84.98,67.959-122.765,73.126-23.542,3.219-41.6-2.057-66.272-7.576-23.434-5.242-49.432-.769-69.388-7.572-32.121-10.834-54.942-35.223-59.03-73.615-6.277-57.551,4.046-125.7,5.863-177.971,1.515-44.6,1.851-95.633,17.629-140.526,7.02-19.974,19.821-44.294,38.106-52.522,13.273-5.972,17.059-2.117,28.324,2,11.755,4.3,26.467,2.767,39.33,8.223C9.751,2445.575,23.283,2460.732,37.687,2474.534Z" fill="none" stroke="#fff8e6" stroke-linecap="round" stroke-miterlimit="10" stroke-width="0.25"/>
      <path id="Path_346" data-name="Path 346" d="M61.544,2429.342c34.4,35.5,63.049,34.295,106.8,42.576,38.176,7.186,79.434,37.382,59.25,77.674-17.184,34.3-32.284,48.293-50,82.728-16.543,32.16-38.482,86.079-23.95,122.557,17.776,44.618,49.08,55.66,82.893,81.3,38.38,29.1-104.321,83.569-150.775,88.77-29.99,3.358-49.613-5.927-77.957-15.647-26.5-9.088-56.29-5.085-81.275-12.745-40.343-12.286-71.214-40.034-78.068-85.87-10.418-68.926-.748-150.741,1.644-216.455,1.989-55.3,3.3-116.6,24.509-170.151,9.349-23.607,26.371-52.952,50.073-61.63,17.389-6.367,21.914-.22,36.157,6.52,14.728,6.97,32.873,6.229,48.181,13.642C29.4,2392.471,45.057,2412.327,61.544,2429.342Z" fill="none" stroke="#fff8e6" stroke-linecap="round" stroke-miterlimit="10" stroke-width="0.25"/>
      <path id="Path_347" data-name="Path 347" d="M85.4,2384.149c40.073,43.572,73.4,39.577,125.531,47.225,45.515,6.658,95.254,41.8,68.136,89.357-22.961,40.264-43.118,55.053-66.134,95.659-21.292,37.564-61.447,94.263-42.434,137.61,23.418,53.391,45.609,63.706,95,89,57.1,29.243-96.492,119.6-152.469,118.831-36.6-.5-57.66-9.77-89.642-23.719-29.6-12.911-63.147-9.4-93.16-17.917-48.566-13.738-87.487-44.846-97.107-98.127-14.559-80.3-5.542-175.782-2.574-254.937,2.461-66.008,4.667-137.6,31.387-199.777,11.646-27.258,32.911-61.594,62.04-70.738,21.5-6.75,26.791,1.679,43.991,11.038,17.725,9.645,39.266,9.7,57.031,19.061C49.033,2339.384,66.806,2363.93,85.4,2384.149Z" fill="none" stroke="#fff8e6" stroke-linecap="round" stroke-miterlimit="10" stroke-width="0.25"/>
      <path id="Path_348" data-name="Path 348" d="M-189.017,2540.036c2.935-76.711,6.159-158.553,38.266-229.4,14-30.887,24.627-81.523,59.19-91.141,25.608-7.126,74.612,4.837,94.758,16.812,20.734,12.324,37.082,16.963,57.313,28.274,27.69,15.482,28.031,50.957,48.749,74.378,45.706,51.669,83.76,44.858,144.26,51.873,52.852,6.13,111.074,46.247,77.021,101.041-28.738,46.242-53.946,61.829-82.272,108.59-26.038,42.983-58.368,118.468-34.879,168.7,29.066,62.151,78.477,75.469,133.7,109.5,63.045,38.854-142.982,114.735-206.8,120.059-42.877,3.578-65.734-13.6-101.327-31.791-32.726-16.724-70-13.717-105.046-23.09-56.788-15.19-103.76-49.657-116.146-110.382C-200.924,2741.783-192.559,2632.633-189.017,2540.036Z" fill="none" stroke="#fff8e6" stroke-linecap="round" stroke-miterlimit="10" stroke-width="0.25" stroke-dasharray="6.26 4.174"/>
      <path id="Path_349" data-name="Path 349" d="M-190.775,2557.612c2.8-76.711,5.874-158.553,36.493-229.4,13.348-30.887,37.616-70.228,70.578-79.847,24.421-7.126,30.21,3.582,49.423,15.556,19.773,12.325,43.536,13.169,62.829,24.48,26.407,15.481,45.374,44.713,65.132,68.134,43.587,51.669,79.879,44.858,137.575,51.873,50.4,6.13,105.927,46.247,73.452,101.041-27.406,46.242-57.915,58.648-78.46,108.59C162.5,2773,172.5,2738,210.5,2798c22.119,34.925,64.009,35.763,119,84,53.815,47.205-145.366,128.972-206.222,134.3-40.891,3.578-62.688-13.6-96.632-31.791-31.209-16.724-66.761-13.717-100.179-23.09-54.157-15.19-98.952-49.657-110.764-110.382C-202.13,2759.359-194.153,2650.209-190.775,2557.612Z" fill="none" stroke="#fff8e6" stroke-linecap="round" stroke-miterlimit="10" stroke-width="0.25"/>
      <path id="Path_350" data-name="Path 350" d="M617.344,3198.928c-11.7-4.624-29.875-4.724-42.984.28-6.555,2.5-11.843,6.279-14.423,11.4s-2.45,11.6,1.83,19.492c5.666,10.447,16.661,19.488,28.808,24.025s25.445,4.57,35.717-3c10.065-7.418,12.663-18.557,10.328-28.8S627.015,3202.751,617.344,3198.928Z" fill="none" stroke="#fff8e6" stroke-linecap="round" stroke-miterlimit="10" stroke-width="0.25"/>
      <path id="Path_351" data-name="Path 351" d="M508.217,3179.307c5.774-4.59,10.68-10.506,17.216-14.9,6.205-4.168,13.259-7.354,19.066-12.4,3.133-2.72,5.132-7.056,8.963-8.938,10.135-4.98,34.812-4.09,44.978-.14,7.231,2.81,12.064,9.253,17.6,13.923a159.013,159.013,0,0,0,20.107,14.409c10.427,6.324,20.649,12.933,31.2,18.831,15.578,8.7,30.073,19.069,33.9,38.592,6.505,33.2-38.683,46.064-62.284,54.615-24.509,8.793-51.51,9.5-77.731,6.595-20.213-2.24-40.422-5.166-59.841-11.958-12.126-4.241-35.2-10.942-39.967-25.3-3.663-11.044,6.719-20.39,11.116-27.458C482.386,3209.35,492.528,3191.778,508.217,3179.307Z" fill="none" stroke="#fff8e6" stroke-linecap="round" stroke-miterlimit="10" stroke-width="0.25"/>
      <path id="Path_352" data-name="Path 352" d="M460.18,3147.807c10.05-6.675,17.934-16.035,28.393-22.88,10.012-6.545,21.252-11.457,29.748-20.313,4.644-4.839,6.985-12.906,12.884-16.261,14.576-8.289,57.447-5.649,71.671,1.848,10.949,5.771,17.226,18.2,25.109,26.952a155.98,155.98,0,0,0,30.651,26.249c16.9,11.142,33.845,21.855,51.973,30.594,26.815,12.908,52.675,27.888,58.943,60.85,10.675,56.157-77.1,70.749-114.241,80.433-38.746,10.014-79.611,12.387-119.745,10.189-35.38-1.937-70.684-5.936-105.207-15.98-20.681-6.018-63.664-16.3-70.557-41.761-5.36-19.8,16.524-36.291,27.187-47.663C409.747,3195.794,431,3167.185,460.18,3147.807Z" fill="none" stroke="#fff8e6" stroke-linecap="round" stroke-miterlimit="10" stroke-width="0.25"/>
      <path id="Path_353" data-name="Path 353" d="M412.165,3116.139c14.324-8.786,25.188-21.562,39.57-30.855,13.818-8.923,29.218-15.583,40.431-28.231,6.14-6.972,8.846-18.746,16.8-23.584,19.038-11.576,80.038-7.163,98.366,3.835,14.627,8.777,22.378,27.151,32.616,39.982a185.262,185.262,0,0,0,41.2,38.088c23.393,15.937,47.042,30.777,72.752,42.356,38.051,17.122,75.276,36.707,83.984,83.108,14.845,79.116-115.523,95.435-166.2,106.251C618.7,3358.325,564,3362.462,509.926,3360.873c-50.534-1.485-100.945-6.743-150.574-20-29.236-7.812-92.076-21.668-101.147-58.223-7.021-28.558,26.335-52.281,43.259-67.867C337.189,3181.879,369.47,3142.327,412.165,3116.139Z" fill="none" stroke="#fff8e6" stroke-linecap="round" stroke-miterlimit="10" stroke-width="0.25"/>
      <path id="Path_354" data-name="Path 354" d="M364.162,3084.37c18.6-10.906,32.441-27.091,50.746-38.831,17.625-11.3,37.209-19.684,51.114-36.149,7.649-9.091,10.711-24.582,20.723-30.908,23.507-14.853,102.606-8.663,125.06,5.823,18.287,11.8,27.5,36.12,40.123,53.012a218.8,218.8,0,0,0,51.739,49.927c29.883,20.733,60.238,39.7,93.531,54.118,49.287,21.336,97.877,45.528,109.025,105.366,19.015,102.075-153.942,120.121-218.154,132.07A1036.176,1036.176,0,0,1,484.3,3396.175c-65.68-.975-131.175-7.689-195.941-24.025-37.773-9.686-120.538-27.021-131.736-74.684-8.721-37.309,36.155-68.3,59.33-88.073C264.672,3167.812,307.945,3117.335,364.162,3084.37Z" fill="none" stroke="#fff8e6" stroke-linecap="round" stroke-miterlimit="10" stroke-width="0.25" stroke-dasharray="6.26 4.174"/>
      <path id="Path_355" data-name="Path 355" d="M316.161,3052.531c22.849-13.075,39.695-32.618,61.922-46.807,21.432-13.678,45.2-23.785,61.8-44.067,9.159-11.209,12.59-30.4,24.643-38.23,28.005-18.089,125.165-10.16,151.755,7.81,21.937,14.826,32.662,45.061,47.629,66.042a255.449,255.449,0,0,0,62.283,61.765c36.373,25.53,73.435,48.623,114.31,65.881,60.524,25.55,120.478,54.347,134.066,127.624,23.185,125.034-192.361,144.807-270.109,157.888-81.458,13.679-163.795,21.417-245.786,20.972-80.821-.439-161.453-8.451-241.309-28.047-46.339-11.452-149-32.375-162.325-91.147-10.421-46.058,45.98-84.316,75.4-108.278C192.174,3153.658,246.346,3092.12,316.161,3052.531Z" fill="none" stroke="#fff8e6" stroke-linecap="round" stroke-miterlimit="10" stroke-width="0.25"/>
      <path id="Path_356" data-name="Path 356" d="M268.161,3020.673c27.15-15.156,46.949-38.146,73.1-54.782,25.238-16.056,53.192-27.887,72.48-51.986,10.668-13.328,14.447-36.245,28.563-45.553,32.455-21.4,147.716-11.655,178.449,9.8,25.582,17.857,37.819,54,55.136,79.071a292.88,292.88,0,0,0,72.827,73.6c42.862,30.325,110.765,31.163,135.089,77.643,82.251,157.178,140.348,20.791,156.376,107.506,27.355,147.993-228.05,211.868-319.335,226.082-95.694,14.9-191.841,24.453-287.8,24.566s-191.73-9.212-286.675-32.069c-54.9-13.218-177.462-37.728-192.915-107.609-12.12-54.809,55.809-100.342,91.473-128.483C119.685,3139.475,184.9,3067.154,268.161,3020.673Z" fill="none" stroke="#fff8e6" stroke-linecap="round" stroke-miterlimit="10" stroke-width="0.25"/>
      <path id="Path_357" data-name="Path 357" d="M1090.941,3264.364c.411-79.345-82.732-134.08-142-164.126-14.707-7.46-101.681-32.5-68.069-57.525,13.449-10.014,44.276-.758,62.015-9.35,19.948-9.661,32.622-31,57.957-23.107,3.784,63.88,22.595,98.107,69.316,143.631,38.8,37.807,91.727,54.351,143.4,65.085,79.6,16.537,164.709-4.94,242.165,13.75,63.783,15.392,58.827,80.182,9.3,112.95-65.736,43.489-157.448,23.494-230.976,24.034-32.972.242-128.281,25.948-153.587-3.838C1059.959,3341.737,1090.8,3292.248,1090.941,3264.364Z" fill="none" stroke="#fff8e6" stroke-linecap="round" stroke-miterlimit="10" stroke-width="0.25" stroke-dasharray="6.26 4.174"/>
      <path id="Path_358" data-name="Path 358" d="M1399.5,3278.943c3.052,45.754-101.435,40.6-129.46,39.628-15.86-.553-142.569-1.486-105.706-37.494,22.7-22.166,91-14.318,123.081-17.647C1309,3261.19,1397.473,3248.5,1399.5,3278.943Z" fill="none" stroke="#fff8e6" stroke-linecap="round" stroke-miterlimit="10" stroke-width="0.25"/>
      <path id="Path_359" data-name="Path 359" d="M40.354,3023.114c24.632,3.472,62.662-13.184,66.012,24.76,3.789,42.917-85.537,99.241-117.879,115.029-21.818,10.65-59.478,19.73-79.711.225-23.432-22.587-2.587-54.968,6.733-79.419,9.084-23.833.436-63.373,21.789-81.393C-31.786,2976.225,8.984,3018.69,40.354,3023.114Z" fill="none" stroke="#fff8e6" stroke-linecap="round" stroke-miterlimit="10" stroke-width="0.25"/>
      <path id="Path_360" data-name="Path 360" d="M-45.79,3120.251c-9.56-12.308,8.486-59.067,20.712-63.988,16.118-6.487,56.385,13.04,52.43,34.466-2.733,14.807-59.9,46.5-73.122,29.548Z" fill="none" stroke="#fff8e6" stroke-linecap="round" stroke-miterlimit="10" stroke-width="0.25"/>
      <path id="Path_361" data-name="Path 361" d="M-165.765,3095.033c-9.561-12.308,8.486-59.067,20.712-63.988,16.117-6.487,56.384,13.04,52.43,34.467-2.733,14.806-59.9,46.5-73.122,29.547Z" fill="none" stroke="#fff8e6" stroke-linecap="round" stroke-miterlimit="10" stroke-width="0.25"/>
      <path id="Path_362" data-name="Path 362" d="M51.464,2130.3c16.893-37.044,19.642-80.13,39.4-117.837,22.942-43.794,64.839-55.574,110.908-60.386,31.466-3.286,52.114-14.808,81.107-20.942,21.084-4.46,59.663,17.513,77.144.824,16.431-15.686-.459-97.277-9.818-116.063-54.437-109.263-258.506-93.794-351.223-62.372-136.891,46.395-108.174,207.288-62.934,311.744,10.6,24.488,2.924,74.687,22.409,93.445C-16.784,2182.558,38.338,2159.089,51.464,2130.3Z" fill="none" stroke="#fff8e6" stroke-linecap="round" stroke-miterlimit="10" stroke-width="0.25"/>
      <path id="Path_363" data-name="Path 363" d="M-40.258,1811.152c-27.014,32.878-9.617,105.462-5.034,145.62,3.984,34.907,15.67,91.318,53.079,42.989,40.51-52.341,76.5-77.185,144.584-90.433,39.975-7.78,200.588-11.34,131.248-92.97-36.8-43.32-107.5-37.88-157.886-38.68C75.29,1776.877-3.459,1766.364-40.258,1811.152Z" fill="none" stroke="#fff8e6" stroke-linecap="round" stroke-miterlimit="10" stroke-width="0.25" stroke-dasharray="6.26 4.174"/>
      <path id="Path_364" data-name="Path 364" d="M47.487,2045.762c-12.02-3.407-73.036,20.08-78.812,31.068-13.459,25.6,20.363,52.415,42.552,38.7C30.235,2103.779,51.654,2069.3,47.487,2045.762Z" fill="none" stroke="#fff8e6" stroke-linecap="round" stroke-miterlimit="10" stroke-width="0.25"/>
      <path id="Path_365" data-name="Path 365" d="M66.034,1823.424c-29.77-.193-42.511.9-59.763,25.393-12.832,18.215-28.509,49.794-9.26,69.066,18.787,18.809,56.753-23.92,74.137-31.173,24.272-10.126,118.837-1.731,118.462-36.9C189.174,1808.952,87.254,1823.561,66.034,1823.424Z" fill="none" stroke="#fff8e6" stroke-linecap="round" stroke-miterlimit="10" stroke-width="0.25"/>
    </g>
  </g>
</svg>
